<svg width="30" height="30" viewBox="0 0 30 30" fill="none" xmlns="http://www.w3.org/2000/svg">
<path d="M23.75 18.75C23.75 18.0833 23.5521 17.4167 23.1562 16.75C22.7604 16.0833 22.1875 15.6042 21.4375 15.3125L11.6875 11.4375L11.25 11.3125C11.1042 11.2708 10.9375 11.25 10.75 11.25H8.75V9.40625C8.75 8.98958 8.84375 8.60417 9.03125 8.25C9.21875 7.89583 9.47917 7.60417 9.8125 7.375L16.0625 2.90625C16.2917 2.73958 16.526 2.61979 16.7656 2.54688C17.0052 2.47396 17.25 2.4375 17.5 2.4375C17.75 2.4375 18 2.47396 18.25 2.54688C18.5 2.61979 18.7292 2.73958 18.9375 2.90625L25.1875 7.375C25.5208 7.60417 25.7812 7.89583 25.9688 8.25C26.1562 8.60417 26.25 8.98958 26.25 9.40625V18.75H23.75ZM18.75 10C18.9167 10 19.0625 9.9375 19.1875 9.8125C19.3125 9.6875 19.375 9.54167 19.375 9.375C19.375 9.20833 19.3125 9.0625 19.1875 8.9375C19.0625 8.8125 18.9167 8.75 18.75 8.75C18.5833 8.75 18.4375 8.8125 18.3125 8.9375C18.1875 9.0625 18.125 9.20833 18.125 9.375C18.125 9.54167 18.1875 9.6875 18.3125 9.8125C18.4375 9.9375 18.5833 10 18.75 10ZM16.25 10C16.4167 10 16.5625 9.9375 16.6875 9.8125C16.8125 9.6875 16.875 9.54167 16.875 9.375C16.875 9.20833 16.8125 9.0625 16.6875 8.9375C16.5625 8.8125 16.4167 8.75 16.25 8.75C16.0833 8.75 15.9375 8.8125 15.8125 8.9375C15.6875 9.0625 15.625 9.20833 15.625 9.375C15.625 9.54167 15.6875 9.6875 15.8125 9.8125C15.9375 9.9375 16.0833 10 16.25 10ZM18.75 12.5C18.9167 12.5 19.0625 12.4375 19.1875 12.3125C19.3125 12.1875 19.375 12.0417 19.375 11.875C19.375 11.7083 19.3125 11.5625 19.1875 11.4375C19.0625 11.3125 18.9167 11.25 18.75 11.25C18.5833 11.25 18.4375 11.3125 18.3125 11.4375C18.1875 11.5625 18.125 11.7083 18.125 11.875C18.125 12.0417 18.1875 12.1875 18.3125 12.3125C18.4375 12.4375 18.5833 12.5 18.75 12.5ZM16.25 12.5C16.4167 12.5 16.5625 12.4375 16.6875 12.3125C16.8125 12.1875 16.875 12.0417 16.875 11.875C16.875 11.7083 16.8125 11.5625 16.6875 11.4375C16.5625 11.3125 16.4167 11.25 16.25 11.25C16.0833 11.25 15.9375 11.3125 15.8125 11.4375C15.6875 11.5625 15.625 11.7083 15.625 11.875C15.625 12.0417 15.6875 12.1875 15.8125 12.3125C15.9375 12.4375 16.0833 12.5 16.25 12.5ZM16.7188 27.2813C16.9479 27.3438 17.2135 27.3698 17.5156 27.3594C17.8177 27.349 18.0729 27.3021 18.2812 27.2188L27.5 23.75C27.5 23.0417 27.25 22.4479 26.75 21.9688C26.25 21.4896 25.6667 21.25 25 21.25H16.4375C16.375 21.25 16.3021 21.2448 16.2188 21.2344C16.1354 21.224 16.0729 21.2083 16.0312 21.1875L14.1875 20.5313C14.0208 20.4688 13.9062 20.3646 13.8438 20.2188C13.7812 20.0729 13.7708 19.9167 13.8125 19.75C13.8542 19.6042 13.9583 19.4896 14.125 19.4063C14.2917 19.3229 14.4583 19.3125 14.625 19.375L16.0312 19.9063C16.1146 19.9479 16.1823 19.974 16.2344 19.9844C16.2865 19.9948 16.3646 20 16.4688 20H19.75C20.1458 20 20.4948 19.8646 20.7969 19.5938C21.099 19.3229 21.25 18.9688 21.25 18.5313C21.25 18.2396 21.1615 17.9583 20.9844 17.6875C20.8073 17.4167 20.5729 17.2292 20.2812 17.125L11.625 13.9063C11.4792 13.8646 11.3333 13.8281 11.1875 13.7969C11.0417 13.7656 10.8958 13.75 10.75 13.75H8.75V25.0313L16.7188 27.2813ZM1.25 25C1.25 25.6875 1.49479 26.276 1.98438 26.7656C2.47396 27.2552 3.0625 27.5 3.75 27.5C4.4375 27.5 5.02604 27.2552 5.51562 26.7656C6.00521 26.276 6.25 25.6875 6.25 25V16.25C6.25 15.5625 6.00521 14.974 5.51562 14.4844C5.02604 13.9948 4.4375 13.75 3.75 13.75C3.0625 13.75 2.47396 13.9948 1.98438 14.4844C1.49479 14.974 1.25 15.5625 1.25 16.25V25Z" fill="black"/>
</svg>
