<svg width="40" height="40" viewBox="0 0 40 40" fill="none" xmlns="http://www.w3.org/2000/svg">
<rect x="0.5" y="0.5" width="39" height="39" rx="5.5" fill="white" stroke="#3029D9"/>
<path d="M24.175 21.0001H13C12.7167 21.0001 12.4792 20.9043 12.2875 20.7126C12.0958 20.5209 12 20.2834 12 20.0001C12 19.7168 12.0958 19.4793 12.2875 19.2876C12.4792 19.0959 12.7167 19.0001 13 19.0001H24.175L19.275 14.1001C19.075 13.9001 18.9792 13.6668 18.9875 13.4001C18.9958 13.1334 19.1 12.9001 19.3 12.7001C19.5 12.5168 19.7333 12.4209 20 12.4126C20.2667 12.4043 20.5 12.5001 20.7 12.7001L27.3 19.3001C27.4 19.4001 27.4708 19.5084 27.5125 19.6251C27.5542 19.7418 27.575 19.8668 27.575 20.0001C27.575 20.1334 27.5542 20.2584 27.5125 20.3751C27.4708 20.4918 27.4 20.6001 27.3 20.7001L20.7 27.3001C20.5167 27.4834 20.2875 27.5751 20.0125 27.5751C19.7375 27.5751 19.5 27.4834 19.3 27.3001C19.1 27.1001 19 26.8626 19 26.5876C19 26.3126 19.1 26.0751 19.3 25.8751L24.175 21.0001Z" fill="#3029D9"/>
</svg>
