<svg width="24" height="24" viewBox="0 0 24 24" fill="none" xmlns="http://www.w3.org/2000/svg">
<path d="M22 22H2V19C2 18.45 2.45 18 3 18H21C21.55 18 22 18.45 22 19V22Z" fill="black" stroke="black" stroke-width="1.5" stroke-linecap="round" stroke-linejoin="round"/>
<path fill-rule="evenodd" clip-rule="evenodd" d="M7 11V18H5V11H7Z" fill="black"/>
<path fill-rule="evenodd" clip-rule="evenodd" d="M11 11V18H9V11H11Z" fill="black"/>
<path fill-rule="evenodd" clip-rule="evenodd" d="M15 11V18H13V11H15Z" fill="black"/>
<path fill-rule="evenodd" clip-rule="evenodd" d="M19 11V18H17V11H19Z" fill="black"/>
<path d="M1 22.75C0.59 22.75 0.25 22.41 0.25 22C0.25 21.59 0.59 21.25 1 21.25H23C23.41 21.25 23.75 21.59 23.75 22C23.75 22.41 23.41 22.75 23 22.75H1Z" fill="black"/>
<path fill-rule="evenodd" clip-rule="evenodd" d="M12.37 2.14984C12.17 2.06984 11.83 2.06984 11.63 2.14984L2.63 5.74984C2.28 5.88984 2 6.29984 2 6.67984V9.99984C2 10.5498 2.45 10.9998 3 10.9998H21C21.55 10.9998 22 10.5498 22 9.99984V6.67984C22 6.29984 21.72 5.88984 21.37 5.74984L12.37 2.14984ZM10.5 6.99984C10.5 6.16984 11.17 5.49984 12 5.49984C12.83 5.49984 13.5 6.16984 13.5 6.99984C13.5 7.82984 12.83 8.49984 12 8.49984C11.17 8.49984 10.5 7.82984 10.5 6.99984Z" fill="black"/>
</svg>
