<svg width="48" height="48" viewBox="0 0 48 48" fill="none" xmlns="http://www.w3.org/2000/svg">
<path d="M42.5 44H5.5C4.68 44 4 43.32 4 42.5C4 41.68 4.68 41 5.5 41H42.5C43.32 41 44 41.68 44 42.5C44 43.32 43.32 44 42.5 44Z" fill="white"/>
<path d="M9.30281 30.5234C8.48281 31.3434 7.16281 31.3434 6.36281 30.5234H6.34281C3.56281 27.7234 3.56281 23.2034 6.34281 20.4234L20.6428 6.12344C23.4428 3.32344 27.9628 3.32344 30.7628 6.12344C31.5828 6.90344 31.5828 8.24344 30.7828 9.04344L9.30281 30.5234Z" fill="white"/>
<path fill-rule="evenodd" clip-rule="evenodd" d="M35.5428 10.8806C34.7228 10.0606 33.4028 10.0606 32.6028 10.8806L11.1228 32.3606C10.3028 33.1606 10.3028 34.4806 11.1228 35.3006L17.2228 41.4206C20.0228 44.2006 24.5428 44.2006 27.3428 41.4206L41.6228 27.1206C44.4628 24.3206 44.4628 19.7806 41.6428 16.9806L35.5428 10.8806ZM23.1028 37.4806C22.6028 37.9806 21.7828 37.9806 21.2628 37.4806C20.7628 36.9806 20.7628 36.1606 21.2628 35.6406L23.7028 33.2006C24.1828 32.7206 25.0228 32.7206 25.5228 33.2006C26.0228 33.7006 26.0228 34.5606 25.5228 35.0406L23.1028 37.4806ZM28.5828 32.0006C28.0828 32.4806 27.2628 32.4806 26.7428 32.0006C26.2428 31.5006 26.2428 30.6806 26.7428 30.1606L31.6428 25.2606C32.1228 24.7806 32.9628 24.7806 33.4628 25.2606C33.9628 25.7806 33.9628 26.6006 33.4628 27.1006L28.5828 32.0006Z" fill="white"/>
</svg>
