<svg width="20" height="20" viewBox="0 0 20 20" fill="none" xmlns="http://www.w3.org/2000/svg">
<path d="M9.99992 11.1673L5.91659 15.2507C5.76381 15.4034 5.56936 15.4798 5.33325 15.4798C5.09714 15.4798 4.9027 15.4034 4.74992 15.2507C4.59714 15.0979 4.52075 14.9034 4.52075 14.6673C4.52075 14.4312 4.59714 14.2368 4.74992 14.084L8.83325 10.0007L4.74992 5.91732C4.59714 5.76454 4.52075 5.5701 4.52075 5.33398C4.52075 5.09787 4.59714 4.90343 4.74992 4.75065C4.9027 4.59787 5.09714 4.52148 5.33325 4.52148C5.56936 4.52148 5.76381 4.59787 5.91659 4.75065L9.99992 8.83398L14.0833 4.75065C14.236 4.59787 14.4305 4.52148 14.6666 4.52148C14.9027 4.52148 15.0971 4.59787 15.2499 4.75065C15.4027 4.90343 15.4791 5.09787 15.4791 5.33398C15.4791 5.5701 15.4027 5.76454 15.2499 5.91732L11.1666 10.0007L15.2499 14.084C15.4027 14.2368 15.4791 14.4312 15.4791 14.6673C15.4791 14.9034 15.4027 15.0979 15.2499 15.2507C15.0971 15.4034 14.9027 15.4798 14.6666 15.4798C14.4305 15.4798 14.236 15.4034 14.0833 15.2507L9.99992 11.1673Z" fill="#5F6368"/>
</svg>
