<svg width="30" height="30" viewBox="0 0 30 30" fill="none" xmlns="http://www.w3.org/2000/svg">
<path d="M25 18C25 21.87 21.87 25 18 25L19.05 23.25" stroke="black" stroke-width="1.5" stroke-linecap="round" stroke-linejoin="round"/>
<path d="M5 12C5 8.13 8.13 5 12 5L10.95 6.75" stroke="black" stroke-width="1.5" stroke-linecap="round" stroke-linejoin="round"/>
<path d="M25 7.2V7.31C25 7.59 24.78 7.81 24.5 7.81H15.5C15.22 7.81 15 7.59 15 7.31V7.2C15 5.44 15.44 5 17.22 5H22.78C24.56 5 25 5.44 25 7.2Z" fill="black"/>
<path d="M15.5 8.81006C15.22 8.81006 15 9.03006 15 9.31006V10.3101V11.3001C15 13.0601 15.44 13.5001 17.22 13.5001H22.78C24.56 13.5001 25 13.0601 25 11.3001V10.3101V9.31006C25 9.03006 24.78 8.81006 24.5 8.81006H15.5Z" fill="black"/>
<path d="M15 18.7V18.81C15 19.09 14.78 19.31 14.5 19.31H5.5C5.22 19.31 5 19.09 5 18.81V18.7C5 16.94 5.44 16.5 7.22 16.5H12.78C14.56 16.5 15 16.94 15 18.7Z" fill="black"/>
<path d="M5.5 20.3101C5.22 20.3101 5 20.5301 5 20.8101V21.8101V22.8001C5 24.5601 5.44 25.0001 7.22 25.0001H12.78C14.56 25.0001 15 24.5601 15 22.8001V21.8101V20.8101C15 20.5301 14.78 20.3101 14.5 20.3101H5.5Z" fill="black"/>
</svg>
