<svg width="52" height="52" viewBox="0 0 52 52" fill="none" xmlns="http://www.w3.org/2000/svg">
<rect x="0.5" y="0.5" width="51" height="51" rx="25.5" stroke="#3029D9"/>
<path fill-rule="evenodd" clip-rule="evenodd" d="M21.81 16C18.17 16 16 18.17 16 21.81V30.18C16 33.83 18.17 36 21.81 36H30.18C33.82 36 35.99 33.83 35.99 30.19V21.81C36 18.17 33.83 16 30.19 16H21.81ZM23.53 24.98L25.25 26.7V20.51C25.25 20.1 25.59 19.76 26 19.76C26.41 19.76 26.75 20.1 26.75 20.51V26.7L28.47 24.98C28.76 24.69 29.24 24.69 29.53 24.98C29.82 25.27 29.82 25.75 29.53 26.04L26.53 29.04C26.46 29.11 26.38 29.16 26.29 29.2C26.2 29.24 26.1 29.26 26 29.26C25.9 29.26 25.81 29.24 25.71 29.2C25.62 29.16 25.54 29.11 25.47 29.04L22.47 26.04C22.18 25.75 22.18 25.28 22.47 24.98C22.76 24.69 23.24 24.69 23.53 24.98ZM26 32.23C23.88 32.23 21.77 31.89 19.76 31.22C19.37 31.09 19.16 30.66 19.29 30.27C19.42 29.88 19.84 29.66 20.24 29.8C23.96 31.04 28.05 31.04 31.77 29.8C32.16 29.67 32.59 29.88 32.72 30.27C32.84 30.67 32.63 31.09 32.24 31.22C30.23 31.89 28.12 32.23 26 32.23Z" fill="#3029D9"/>
</svg>
