<svg width="40" height="40" viewBox="0 0 40 40" fill="none" xmlns="http://www.w3.org/2000/svg">
<circle cx="20" cy="20" r="19" fill="white" stroke="#1D4ED8" stroke-width="2"/>
<path d="M27.17 14.6395C26.74 12.4695 25.13 11.5195 22.89 11.5195H14.11C11.47 11.5195 9.70996 12.8395 9.70996 15.9195V21.0695C9.70996 23.2895 10.62 24.5895 12.12 25.1495C12.34 25.2295 12.58 25.2995 12.83 25.3395C13.23 25.4295 13.66 25.4695 14.11 25.4695H22.9C25.54 25.4695 27.3 24.1495 27.3 21.0695V15.9195C27.3 15.4495 27.26 15.0295 27.17 14.6395ZM13.53 19.9995C13.53 20.4095 13.19 20.7495 12.78 20.7495C12.37 20.7495 12.03 20.4095 12.03 19.9995V16.9995C12.03 16.5895 12.37 16.2495 12.78 16.2495C13.19 16.2495 13.53 16.5895 13.53 16.9995V19.9995ZM18.5 21.1395C17.04 21.1395 15.86 19.9595 15.86 18.4995C15.86 17.0395 17.04 15.8595 18.5 15.8595C19.96 15.8595 21.14 17.0395 21.14 18.4995C21.14 19.9595 19.96 21.1395 18.5 21.1395ZM24.96 19.9995C24.96 20.4095 24.62 20.7495 24.21 20.7495C23.8 20.7495 23.46 20.4095 23.46 19.9995V16.9995C23.46 16.5895 23.8 16.2495 24.21 16.2495C24.62 16.2495 24.96 16.5895 24.96 16.9995V19.9995Z" fill="black"/>
<path d="M30.3 18.9203V24.0703C30.3 27.1503 28.54 28.4803 25.89 28.4803H17.11C16.36 28.4803 15.69 28.3703 15.11 28.1503C14.64 27.9803 14.23 27.7303 13.9 27.4103C13.72 27.2403 13.86 26.9703 14.11 26.9703H22.89C26.59 26.9703 28.79 24.7703 28.79 21.0803V15.9203C28.79 15.6803 29.06 15.5303 29.23 15.7103C29.91 16.4303 30.3 17.4803 30.3 18.9203Z" fill="black"/>
</svg>
