<svg width="20" height="20" viewBox="0 0 20 20" fill="none" xmlns="http://www.w3.org/2000/svg">
<path d="M8.625 11.0249V8.96657C8.625 8.20824 9.24167 7.59155 10 7.59155C10.7583 7.59155 11.375 8.20824 11.375 8.96657V11.0249C11.375 11.7832 10.7583 12.3999 10 12.3999C9.24167 12.3999 8.625 11.7832 8.625 11.0249Z" stroke="black" stroke-width="1.5" stroke-linecap="round"/>
<path d="M14.15 11.225C13.9834 13.375 12.1834 15.0583 10 15.0583C7.70004 15.0583 5.83337 13.1917 5.83337 10.8917V9.10832C5.83337 6.80832 7.70004 4.94165 10 4.94165C12.1584 4.94165 13.9334 6.58331 14.1417 8.68331" stroke="black" stroke-width="1.5" stroke-linecap="round"/>
<path d="M12.5 1.66675H14.1667C16.6667 1.66675 18.3333 3.33341 18.3333 5.83341V7.50008" stroke="black" stroke-width="1.5" stroke-linecap="round" stroke-linejoin="round"/>
<path d="M1.66663 7.50008V5.83341C1.66663 3.33341 3.33329 1.66675 5.83329 1.66675H7.49996" stroke="black" stroke-width="1.5" stroke-linecap="round" stroke-linejoin="round"/>
<path d="M12.5 18.3333H14.1667C16.6667 18.3333 18.3333 16.6667 18.3333 14.1667V12.5" stroke="black" stroke-width="1.5" stroke-linecap="round" stroke-linejoin="round"/>
<path d="M1.66663 12.5V14.1667C1.66663 16.6667 3.33329 18.3333 5.83329 18.3333H7.49996" stroke="black" stroke-width="1.5" stroke-linecap="round" stroke-linejoin="round"/>
</svg>
