<svg width="280" height="262" viewBox="0 0 280 262" fill="none" xmlns="http://www.w3.org/2000/svg">
<path d="M140 261.426C217.32 261.426 280 225.237 280 180.595C280 135.954 217.32 99.7651 140 99.7651C62.6801 99.7651 0 135.954 0 180.595C0 225.237 62.6801 261.426 140 261.426Z" fill="#F0F0F0"/>
<path d="M111.03 241.845C137.693 241.845 159.307 229.367 159.307 213.975C159.307 198.582 137.693 186.104 111.03 186.104C84.3676 186.104 62.7532 198.582 62.7532 213.975C62.7532 229.367 84.3676 241.845 111.03 241.845Z" fill="#E0E0E0"/>
<path d="M170.402 161.478L168.15 160.177C167.774 159.933 167.462 159.604 167.238 159.217C167.014 158.83 166.884 158.395 166.86 157.948V64.3416C166.885 63.8956 167.014 63.4615 167.237 63.0745C167.459 62.6874 167.77 62.3581 168.144 62.1131L230.748 25.9707C231.147 25.7686 231.588 25.6633 232.035 25.6633C232.482 25.6633 232.923 25.7686 233.321 25.9707L235.574 27.2721C235.949 27.5157 236.261 27.8446 236.485 28.2318C236.709 28.6191 236.839 29.0538 236.863 29.5005V123.107C236.839 123.553 236.71 123.987 236.487 124.374C236.264 124.761 235.953 125.091 235.579 125.336L172.975 161.484C172.576 161.687 172.135 161.792 171.688 161.791C171.24 161.79 170.8 161.682 170.402 161.478Z" fill="#455A64"/>
<path d="M236.863 29.2925C236.774 28.627 236.233 28.3833 235.585 28.7577L172.975 64.9061C172.596 65.1436 172.284 65.4727 172.066 65.8629L167.234 63.0758C167.45 62.6827 167.763 62.3513 168.144 62.1131L230.748 25.9707C231.147 25.7686 231.588 25.6633 232.035 25.6633C232.482 25.6633 232.922 25.7686 233.321 25.9707L235.573 27.2721C235.921 27.496 236.217 27.7925 236.439 28.1413C236.662 28.49 236.806 28.8827 236.863 29.2925Z" fill="#455A64"/>
<path d="M172.755 161.585C172.375 161.739 171.966 161.81 171.555 161.793C171.145 161.775 170.744 161.67 170.378 161.484L168.12 160.177C167.746 159.932 167.436 159.603 167.213 159.215C166.99 158.828 166.861 158.394 166.836 157.948V64.3417C166.851 63.8948 166.98 63.4592 167.211 63.0759L172.042 65.863C171.807 66.2468 171.676 66.685 171.662 67.1347V160.741C171.685 161.478 172.149 161.817 172.755 161.585Z" fill="#263238"/>
<path d="M171.685 67.1464V160.741C171.685 161.561 172.28 161.894 172.975 161.484L235.579 125.336C235.953 125.091 236.264 124.761 236.487 124.374C236.709 123.987 236.838 123.553 236.863 123.107V29.5005C236.863 28.6805 236.269 28.3477 235.579 28.7577L172.975 64.9061C172.598 65.1509 172.285 65.4816 172.06 65.8711C171.836 66.2605 171.708 66.6976 171.685 67.1464Z" fill="#37474F"/>
<path d="M157.067 102.802C156.259 102.32 152.509 100.187 152.313 100.074C152.16 99.9827 152.029 99.8584 151.931 99.7101C151.833 99.5618 151.769 99.3933 151.745 99.2171C151.72 99.0408 151.735 98.8613 151.789 98.6918C151.844 98.5223 151.935 98.3671 152.057 98.2377L166.86 82.3593L171.685 85.1285L156.888 101.019C156.772 101.143 156.684 101.29 156.629 101.45C156.575 101.611 156.555 101.782 156.572 101.951C156.589 102.12 156.642 102.283 156.727 102.43C156.813 102.576 156.928 102.703 157.067 102.802Z" fill="#455A64"/>
<path d="M171.686 85.1462L156.889 101.019C156.724 101.194 156.617 101.415 156.581 101.653C156.545 101.891 156.582 102.134 156.687 102.35C156.792 102.566 156.96 102.746 157.169 102.864C157.378 102.983 157.618 103.036 157.857 103.015L171.686 101.874V85.1462Z" fill="#37474F"/>
<path d="M204.274 56.5688C211.571 52.3555 217.484 55.7725 217.484 64.199C217.484 72.6255 211.571 82.8644 204.274 87.0777C196.977 91.2909 191.064 87.874 191.064 79.4534C191.064 71.0329 196.977 60.782 204.274 56.5688Z" fill="#1C1C1C"/>
<path d="M204.179 63.2005C206.556 61.8337 208.464 62.939 208.464 65.6726C208.383 67.1585 207.953 68.6044 207.208 69.893C206.464 71.1815 205.426 72.2764 204.179 73.0888C201.802 74.4556 199.889 73.3503 199.889 70.6167C199.97 69.1303 200.401 67.684 201.147 66.3954C201.892 65.1068 202.931 64.0122 204.179 63.2005Z" fill="white"/>
<path d="M212.629 77.7715C212.629 73.2849 209.474 71.4606 205.587 73.7068L203.157 75.1093C199.27 77.3555 196.115 82.8346 196.115 87.3093V88.5394C196.849 88.7739 197.615 88.8922 198.385 88.89C200.47 88.8191 202.5 88.2046 204.274 87.1072C207.652 85.0265 210.51 82.2012 212.629 78.8471V77.7715Z" fill="white"/>
<path d="M195.907 128.788L212.641 119.126C213.354 118.716 213.931 119.048 213.931 119.868V125.258C213.906 125.705 213.777 126.14 213.553 126.527C213.329 126.914 213.016 127.243 212.641 127.487L195.907 137.149C195.194 137.559 194.617 137.227 194.617 136.406V131.017C194.642 130.57 194.771 130.135 194.995 129.748C195.219 129.361 195.532 129.032 195.907 128.788Z" fill="#1C1C1C"/>
<path d="M187.712 116.749L220.818 97.6255C221.668 97.1323 222.363 97.5305 222.363 98.5169V100.52C222.334 101.055 222.179 101.577 221.911 102.042C221.642 102.506 221.268 102.901 220.818 103.194L187.695 122.317C186.845 122.81 186.156 122.412 186.156 121.425V119.441C186.183 118.9 186.338 118.375 186.609 117.906C186.879 117.438 187.258 117.041 187.712 116.749Z" fill="#FAFAFA"/>
<path d="M191.587 102.908C192.039 102.647 192.389 102.605 192.639 102.79C192.888 102.974 193.013 103.384 193.013 104.014C193.026 104.589 192.897 105.158 192.639 105.672C192.405 106.136 192.039 106.521 191.587 106.777L190.696 107.294V109.213C190.694 109.279 190.678 109.344 190.648 109.404C190.627 109.457 190.59 109.503 190.541 109.534L190.09 109.796C190.074 109.807 190.055 109.814 190.036 109.814C190.017 109.814 189.998 109.807 189.983 109.796C189.951 109.756 189.936 109.704 189.941 109.653V104.097C189.941 104.031 189.955 103.966 189.983 103.907C190.005 103.854 190.042 103.809 190.09 103.776L191.587 102.908ZM190.696 106.218L191.557 105.719C191.766 105.602 191.941 105.434 192.068 105.232C192.204 104.993 192.269 104.722 192.259 104.447C192.259 104.127 192.193 103.942 192.068 103.889C191.98 103.867 191.888 103.866 191.8 103.886C191.711 103.906 191.628 103.945 191.557 104.002L190.696 104.501V106.218Z" fill="#FAFAFA"/>
<path d="M195.503 100.645C195.562 100.609 195.61 100.609 195.64 100.645C195.678 100.698 195.704 100.759 195.717 100.823L197.09 105.47C197.09 105.47 197.09 105.506 197.09 105.523C197.089 105.59 197.072 105.655 197.042 105.714C197.021 105.767 196.984 105.813 196.935 105.844L196.531 106.076C196.46 106.118 196.406 106.124 196.377 106.076C196.348 106.046 196.327 106.009 196.317 105.969L196.073 105.155L194.291 106.177L194.053 107.271C194.036 107.33 194.014 107.387 193.988 107.443C193.958 107.515 193.903 107.575 193.833 107.609L193.429 107.841C193.414 107.854 193.395 107.861 193.376 107.861C193.356 107.861 193.337 107.854 193.322 107.841C193.291 107.803 193.276 107.754 193.281 107.704C193.277 107.683 193.277 107.661 193.281 107.639L194.647 101.411C194.664 101.32 194.69 101.23 194.725 101.144C194.754 101.081 194.801 101.029 194.861 100.995L195.503 100.645ZM195.812 104.246L195.218 102.148L194.624 104.953L195.812 104.246Z" fill="#FAFAFA"/>
<path d="M199.17 98.4399C199.368 98.3144 199.595 98.2389 199.829 98.22C199.995 98.2051 200.161 98.2425 200.305 98.327C200.435 98.4116 200.537 98.5339 200.596 98.6776C200.661 98.8238 200.697 98.9812 200.703 99.1411C200.707 99.2071 200.692 99.273 200.661 99.3313C200.64 99.385 200.603 99.4308 200.554 99.462L200.162 99.6878C200.097 99.7235 200.049 99.7294 200.019 99.6878C199.983 99.6636 199.952 99.631 199.93 99.5927C199.906 99.5393 199.872 99.4912 199.829 99.4513C199.786 99.4115 199.736 99.3808 199.681 99.361C199.5 99.3351 199.316 99.3821 199.17 99.4917C199.073 99.5538 198.982 99.6234 198.896 99.6997C198.808 99.7809 198.73 99.8727 198.664 99.973C198.601 100.07 198.549 100.173 198.51 100.282C198.475 100.385 198.457 100.494 198.456 100.603C198.449 100.703 198.468 100.803 198.51 100.894C198.528 100.926 198.554 100.953 198.585 100.973C198.616 100.992 198.652 101.004 198.688 101.007C198.798 101.026 198.911 101.026 199.021 101.007L199.538 100.894C199.731 100.837 199.932 100.813 200.132 100.823C200.276 100.822 200.415 100.868 200.53 100.954C200.639 101.045 200.718 101.167 200.756 101.304C200.814 101.497 200.841 101.697 200.833 101.898C200.833 102.164 200.795 102.428 200.721 102.683C200.648 102.945 200.542 103.197 200.406 103.432C200.262 103.673 200.09 103.896 199.895 104.097C199.695 104.304 199.467 104.482 199.217 104.626C199.034 104.737 198.833 104.816 198.623 104.858C198.452 104.891 198.275 104.876 198.112 104.816C197.963 104.747 197.84 104.633 197.761 104.489C197.664 104.306 197.611 104.103 197.607 103.895C197.606 103.827 197.62 103.761 197.648 103.699C197.675 103.648 197.714 103.605 197.761 103.574L198.153 103.348C198.213 103.313 198.26 103.301 198.296 103.319C198.332 103.337 198.355 103.366 198.379 103.42C198.404 103.481 198.436 103.539 198.474 103.592C198.511 103.644 198.563 103.683 198.623 103.705C198.701 103.723 198.782 103.723 198.861 103.705C198.987 103.675 199.107 103.625 199.217 103.556C199.332 103.491 199.442 103.415 199.544 103.331C199.744 103.172 199.903 102.969 200.007 102.736C200.055 102.617 200.079 102.49 200.079 102.362C200.084 102.315 200.08 102.268 200.067 102.223C200.054 102.178 200.032 102.137 200.002 102.1C199.969 102.072 199.932 102.051 199.891 102.039C199.849 102.026 199.806 102.023 199.764 102.029C199.629 102.035 199.495 102.057 199.366 102.095C199.211 102.13 199.033 102.172 198.825 102.207C198.666 102.247 198.501 102.259 198.338 102.243C198.209 102.235 198.087 102.182 197.993 102.095C197.89 101.994 197.818 101.866 197.785 101.726C197.737 101.52 197.715 101.308 197.72 101.096C197.719 100.835 197.757 100.574 197.833 100.324C197.903 100.066 198.007 99.8181 198.142 99.5868C198.27 99.3571 198.426 99.1436 198.605 98.9509C198.768 98.7547 198.958 98.5826 199.17 98.4399Z" fill="#FAFAFA"/>
<path d="M203.074 96.1936C203.272 96.0642 203.498 95.9866 203.734 95.9678C203.899 95.9537 204.065 95.991 204.209 96.0747C204.336 96.1616 204.435 96.2834 204.494 96.4253C204.559 96.5716 204.596 96.7289 204.601 96.8889C204.608 96.9551 204.594 97.0218 204.56 97.079C204.539 97.1328 204.501 97.1786 204.453 97.2097L204.06 97.4356C204.001 97.4712 203.954 97.4831 203.918 97.4356C203.88 97.4117 203.851 97.3763 203.835 97.3345C203.78 97.2303 203.689 97.1498 203.579 97.1087C203.49 97.0957 203.4 97.1006 203.313 97.123C203.227 97.1455 203.145 97.1851 203.074 97.2395C202.975 97.3001 202.881 97.3697 202.795 97.4474C202.708 97.5288 202.632 97.6206 202.569 97.7208C202.503 97.8162 202.451 97.9202 202.414 98.0298C202.377 98.1329 202.357 98.2412 202.355 98.3507C202.348 98.4507 202.366 98.5509 202.408 98.6419C202.427 98.6738 202.453 98.7008 202.484 98.7205C202.515 98.7401 202.55 98.7519 202.587 98.7548C202.697 98.774 202.809 98.774 202.92 98.7548L203.437 98.6419C203.63 98.588 203.83 98.564 204.031 98.5706C204.174 98.5693 204.314 98.6152 204.429 98.7013C204.538 98.7941 204.618 98.9156 204.661 99.0519C204.713 99.2455 204.737 99.4457 204.732 99.6462C204.732 99.9117 204.694 100.176 204.619 100.431C204.547 100.693 204.441 100.944 204.304 101.179C204.161 101.423 203.989 101.648 203.793 101.851C203.592 102.053 203.367 102.229 203.122 102.374C202.938 102.485 202.737 102.563 202.527 102.606C202.358 102.638 202.184 102.624 202.022 102.564C201.871 102.497 201.745 102.382 201.666 102.237C201.568 102.054 201.517 101.85 201.517 101.643C201.51 101.577 201.525 101.51 201.559 101.453C201.58 101.399 201.617 101.353 201.666 101.322L202.058 101.096C202.117 101.061 202.171 101.049 202.2 101.066C202.221 101.076 202.239 101.09 202.254 101.107C202.268 101.125 202.278 101.145 202.284 101.167C202.311 101.227 202.342 101.285 202.379 101.34C202.418 101.392 202.472 101.431 202.533 101.453C202.611 101.471 202.693 101.471 202.771 101.453C202.897 101.423 203.018 101.373 203.128 101.304C203.24 101.237 203.347 101.161 203.448 101.078C203.553 100.997 203.645 100.901 203.722 100.793C203.799 100.69 203.863 100.579 203.912 100.46C203.96 100.341 203.984 100.214 203.983 100.086C203.989 100.039 203.985 99.9922 203.972 99.9472C203.958 99.9023 203.936 99.8605 203.906 99.8245C203.874 99.7961 203.836 99.7751 203.795 99.7628C203.754 99.7505 203.711 99.7472 203.668 99.7531C203.536 99.7613 203.404 99.7832 203.276 99.8185C203.122 99.8542 202.937 99.8958 202.735 99.9314C202.574 99.9712 202.407 99.9833 202.242 99.9671C202.113 99.9603 201.991 99.9076 201.897 99.8185C201.797 99.7173 201.726 99.5895 201.695 99.4501C201.643 99.2464 201.619 99.0364 201.624 98.8261C201.626 98.5627 201.664 98.3008 201.737 98.0476C201.81 97.7907 201.914 97.5433 202.046 97.3108C202.175 97.0796 202.332 96.8659 202.515 96.6749C202.675 96.4864 202.864 96.324 203.074 96.1936Z" fill="#FAFAFA"/>
<path d="M207.406 96.9361L206.925 99.7826C206.911 99.8682 206.887 99.952 206.854 100.032C206.83 100.096 206.787 100.151 206.729 100.187L206.277 100.448C206.218 100.484 206.176 100.484 206.146 100.448C206.107 100.399 206.084 100.339 206.081 100.276L205.368 95.2544C205.368 95.2544 205.368 95.2069 205.368 95.189C205.37 95.1229 205.386 95.058 205.415 94.9989C205.438 94.946 205.475 94.9007 205.522 94.8681L205.932 94.6304C205.967 94.6166 206.005 94.6166 206.039 94.6304C206.075 94.6304 206.099 94.678 206.111 94.7731L206.58 98.1543L206.99 95.6169C207.001 95.5536 207.019 95.4918 207.044 95.4327C207.067 95.3575 207.118 95.2939 207.186 95.2544L207.644 94.987C207.709 94.9513 207.757 94.9573 207.787 94.987C207.812 95.0248 207.83 95.0671 207.84 95.1118L208.256 97.1738L208.725 93.2518C208.731 93.1746 208.753 93.0996 208.791 93.0319C208.819 92.9875 208.855 92.9491 208.898 92.919L209.308 92.6813C209.323 92.6697 209.342 92.6635 209.361 92.6635C209.381 92.6635 209.399 92.6697 209.415 92.6813C209.432 92.7008 209.445 92.7234 209.453 92.7479C209.461 92.7723 209.464 92.7982 209.462 92.8239C209.465 92.8476 209.465 92.8715 209.462 92.8952L208.749 98.7367C208.737 98.8222 208.715 98.906 208.684 98.9863C208.657 99.0497 208.611 99.1035 208.553 99.1408L208.096 99.4023C208.042 99.432 208 99.432 207.971 99.4023C207.941 99.3477 207.917 99.2899 207.899 99.2299L207.406 96.9361Z" fill="#FAFAFA"/>
<path d="M210.187 94.4167C210.2 94.0872 210.24 93.7593 210.306 93.4362C210.374 93.1204 210.477 92.8134 210.615 92.521C210.746 92.2368 210.914 91.9711 211.114 91.7307C211.317 91.4922 211.561 91.2911 211.833 91.1364C212.042 90.9944 212.287 90.9141 212.54 90.9047C212.729 90.9067 212.91 90.9812 213.045 91.1127C213.189 91.2744 213.293 91.4678 213.348 91.6772C213.425 91.9501 213.467 92.2317 213.473 92.5151C213.473 92.6221 213.473 92.7409 213.473 92.8716C213.473 93.0024 213.473 93.1391 213.473 93.2817C213.473 93.4243 213.473 93.561 213.473 93.6917C213.473 93.8224 213.473 93.9472 213.473 94.0601C213.46 94.3877 213.421 94.7137 213.354 95.0347C213.286 95.3496 213.184 95.6563 213.051 95.9499C212.916 96.2332 212.747 96.4987 212.546 96.7402C212.343 96.9765 212.102 97.1773 211.833 97.3345C211.619 97.4755 211.37 97.5556 211.114 97.5662C211.021 97.5681 210.929 97.5512 210.844 97.5165C210.758 97.4817 210.68 97.4299 210.615 97.3642C210.46 97.1978 210.353 96.9924 210.306 96.7699C210.235 96.496 210.195 96.2149 210.187 95.932C210.187 95.8251 210.187 95.7062 210.187 95.5755C210.187 95.4448 210.187 95.3081 210.187 95.1655C210.187 95.0228 210.187 94.8921 210.187 94.7554C210.187 94.6187 210.181 94.5237 210.187 94.4167ZM212.718 92.9964C212.732 92.8511 212.715 92.7045 212.67 92.5656C212.625 92.4267 212.553 92.2983 212.457 92.1883C212.303 92.0516 212.089 92.0575 211.833 92.1883C211.556 92.3513 211.336 92.5963 211.203 92.8895C211.035 93.2359 210.945 93.6155 210.942 94.0007C210.942 94.2206 210.942 94.4642 210.942 94.7317C210.942 94.9991 210.942 95.2368 210.942 95.4507C210.928 95.5961 210.945 95.7426 210.99 95.8815C211.035 96.0204 211.107 96.1488 211.203 96.2589C211.358 96.3896 211.572 96.3777 211.833 96.2292C212.106 96.065 212.323 95.8228 212.457 95.5339C212.626 95.1896 212.715 94.8119 212.718 94.4286C212.718 94.2028 212.718 93.9591 212.718 93.6917C212.718 93.4243 212.724 93.2104 212.718 92.9964Z" fill="#FAFAFA"/>
<path d="M216.064 88.7652C216.534 88.4978 216.884 88.4562 217.128 88.6523C217.272 88.8114 217.38 89.0005 217.442 89.206C217.505 89.4115 217.522 89.6283 217.491 89.8408C217.495 90.2445 217.433 90.6461 217.306 91.0293C217.186 91.3863 216.998 91.717 216.754 92.0039L217.526 93.6857C217.529 93.7133 217.529 93.7412 217.526 93.7689C217.526 93.8224 217.514 93.8753 217.491 93.9234C217.474 93.9665 217.445 94.0038 217.407 94.0303L216.932 94.3037C216.855 94.3453 216.801 94.3512 216.766 94.3037C216.734 94.2725 216.708 94.2364 216.688 94.1967L215.957 92.6101L215.215 93.0379V95.0465C215.215 95.1122 215.201 95.1772 215.173 95.2367C215.148 95.2883 215.112 95.3332 215.066 95.3674L214.614 95.6289C214.599 95.6414 214.58 95.6483 214.561 95.6483C214.541 95.6483 214.522 95.6414 214.507 95.6289C214.49 95.6107 214.477 95.5891 214.469 95.5656C214.461 95.542 214.458 95.517 214.46 95.4922V89.9359C214.462 89.8698 214.478 89.8049 214.507 89.7458C214.528 89.692 214.566 89.6462 214.614 89.615L216.064 88.7652ZM215.226 91.9623L216.064 91.5107C216.269 91.3964 216.444 91.2356 216.575 91.0412C216.713 90.8122 216.779 90.5474 216.766 90.2806C216.766 89.9597 216.7 89.7814 216.575 89.7458C216.395 89.7212 216.211 89.7681 216.064 89.8765L215.256 90.34L215.226 91.9623Z" fill="#FAFAFA"/>
<path d="M220.045 86.4775C220.261 86.3367 220.508 86.2511 220.765 86.2279C220.95 86.2211 221.132 86.2872 221.27 86.4121C221.427 86.5776 221.536 86.7832 221.585 87.0064C221.665 87.3011 221.708 87.6044 221.715 87.9096C221.715 88.3256 221.715 88.7535 221.715 89.1873C221.703 89.5411 221.659 89.8931 221.585 90.2391C221.517 90.5606 221.413 90.8736 221.276 91.1721C221.143 91.4462 220.975 91.7019 220.776 91.9327C220.578 92.169 220.341 92.3699 220.075 92.527L218.667 93.2936C218.652 93.3061 218.633 93.313 218.613 93.313C218.594 93.313 218.575 93.3061 218.56 93.2936C218.543 93.2756 218.529 93.2541 218.521 93.2305C218.513 93.2069 218.51 93.1818 218.512 93.1569V87.6006C218.514 87.5345 218.53 87.4696 218.56 87.4105C218.581 87.3567 218.618 87.3109 218.667 87.2797L220.045 86.4775ZM220.961 88.3256C220.958 88.1647 220.934 88.0048 220.889 87.8502C220.862 87.7332 220.802 87.6262 220.717 87.5412C220.68 87.5039 220.635 87.4746 220.586 87.4552C220.537 87.4358 220.484 87.4266 220.432 87.4283C220.283 87.4382 220.139 87.4874 220.016 87.5709L219.267 87.9988V91.8733L220.045 91.4276C220.196 91.3399 220.331 91.2274 220.444 91.0948C220.554 90.9645 220.648 90.8207 220.723 90.667C220.797 90.5032 220.853 90.3319 220.889 90.1559C220.931 89.9724 220.955 89.7853 220.961 89.5973C220.978 89.1635 220.978 88.7416 220.961 88.3256Z" fill="#FAFAFA"/>
<path d="M138.443 0.227767C139.469 0.456008 140.457 0.828127 141.379 1.33308C142.261 1.80746 143.052 2.43529 143.714 3.18715C144.348 3.91039 144.818 4.76166 145.093 5.68301C145.373 6.66925 145.394 7.71126 145.152 8.70775C144.993 9.49782 144.68 10.2489 144.231 10.9184C143.821 11.4909 143.333 12.003 142.781 12.4397C142.239 12.8607 141.66 13.2326 141.052 13.5509L139.341 14.4601C138.825 14.729 138.336 15.0453 137.879 15.405C137.465 15.7221 137.148 16.148 136.963 16.6351C136.873 16.8576 136.723 17.0509 136.53 17.1937C136.438 17.2647 136.332 17.3139 136.219 17.3376C136.105 17.3613 135.988 17.3588 135.876 17.3304L133.356 16.7718C133.235 16.7463 133.12 16.697 133.018 16.6266C132.916 16.5562 132.829 16.4661 132.762 16.3617C132.691 16.2647 132.644 16.1522 132.624 16.0335C132.604 15.9148 132.613 15.7931 132.649 15.6783C132.852 14.898 133.21 14.1665 133.701 13.5271C134.149 12.9616 134.669 12.4563 135.246 12.0237C135.809 11.6118 136.405 11.248 137.029 10.9362C137.623 10.6331 138.217 10.3419 138.734 10.0508C139.215 9.79227 139.667 9.48351 140.083 9.12967C140.448 8.82421 140.701 8.40612 140.802 7.94117C140.897 7.53742 140.892 7.11679 140.789 6.71526C140.685 6.31372 140.486 5.94322 140.208 5.63547C139.513 4.87679 138.584 4.3726 137.57 4.20332C135.692 3.78734 134.107 4.41923 132.816 6.09898C132.691 6.28234 132.534 6.44143 132.352 6.56844C132.147 6.67012 131.91 6.68719 131.692 6.61598L129.012 6.02173C128.821 5.98479 128.652 5.8737 128.543 5.71272C128.484 5.62671 128.445 5.52913 128.428 5.42659C128.41 5.32405 128.415 5.21897 128.442 5.11847C128.67 4.29272 129.094 3.5343 129.678 2.90785C130.337 2.18135 131.12 1.57771 131.99 1.12509C132.941 0.627343 133.966 0.286222 135.026 0.11486C136.162 -0.0698396 137.322 -0.0314897 138.443 0.227767ZM135.597 19.3508C135.832 19.4062 136.037 19.5516 136.167 19.7559C136.297 19.9602 136.342 20.2073 136.292 20.4442L135.65 23.3561C135.628 23.478 135.581 23.594 135.512 23.6964C135.442 23.7988 135.352 23.8853 135.246 23.9503C135.147 24.0189 135.034 24.066 134.915 24.0885C134.797 24.111 134.674 24.1085 134.557 24.0811L131.681 23.4215C131.558 23.4008 131.442 23.3541 131.339 23.2843C131.237 23.2146 131.15 23.1235 131.086 23.0174C131.02 22.917 130.974 22.8041 130.953 22.6856C130.931 22.567 130.934 22.4454 130.962 22.328L131.609 19.4162C131.665 19.1801 131.81 18.9749 132.014 18.844C132.218 18.7131 132.465 18.6669 132.703 18.715L135.597 19.3508Z" fill="#1C1C1C"/>
<path d="M141.617 28.1041C142.332 27.9893 143.06 27.9753 143.78 28.0625C144.467 28.1442 145.135 28.3453 145.753 28.6567C146.341 28.9621 146.859 29.3872 147.274 29.9047C147.647 30.4111 147.909 30.9901 148.044 31.6043C148.179 32.2184 148.184 32.8541 148.058 33.4702C147.945 33.9439 147.763 34.3984 147.518 34.8191C147.281 35.2284 147.007 35.6144 146.698 35.972C146.394 36.3285 146.103 36.6673 145.836 36.9941C145.574 37.2986 145.341 37.6269 145.141 37.9746C144.952 38.2794 144.857 38.6327 144.867 38.9908C144.862 39.1582 144.815 39.3216 144.731 39.4662C144.688 39.5328 144.631 39.5895 144.564 39.6326C144.498 39.6756 144.423 39.704 144.344 39.7158L142.562 40.001C142.478 40.0161 142.393 40.0145 142.31 39.9961C142.227 39.9777 142.149 39.943 142.08 39.8941C142.01 39.8499 141.951 39.7897 141.909 39.7184C141.867 39.6471 141.842 39.5668 141.837 39.484C141.762 38.931 141.802 38.3686 141.955 37.832C142.095 37.357 142.295 36.9017 142.55 36.4771C142.8 36.0697 143.086 35.6858 143.405 35.3302C143.72 34.9736 144 34.6409 144.273 34.32C144.517 34.0334 144.728 33.7205 144.903 33.387C145.058 33.1 145.114 32.7702 145.063 32.4481C145.019 32.1646 144.906 31.896 144.735 31.6653C144.565 31.4346 144.341 31.2485 144.083 31.1229C143.444 30.8143 142.721 30.7265 142.027 30.8733C141.398 30.9652 140.814 31.2493 140.353 31.6865C139.892 32.1238 139.578 32.6928 139.454 33.3157C139.419 33.4655 139.358 33.6082 139.275 33.7376C139.169 33.8504 139.025 33.9202 138.871 33.9337L136.993 34.2368C136.861 34.262 136.725 34.2343 136.613 34.1595C136.556 34.1202 136.508 34.0691 136.472 34.0097C136.436 33.9502 136.413 33.8838 136.405 33.8148C136.349 33.2252 136.441 32.6308 136.672 32.0856C136.907 31.4511 137.254 30.8635 137.695 30.3504C138.178 29.7885 138.748 29.307 139.382 28.9241C140.067 28.5089 140.826 28.2304 141.617 28.1041ZM144.683 41.0885C144.765 41.0755 144.848 41.0788 144.929 41.0982C145.01 41.1176 145.085 41.1526 145.152 41.2014C145.223 41.2474 145.282 41.3078 145.327 41.3785C145.372 41.4491 145.402 41.5285 145.414 41.6114L145.747 43.6497C145.773 43.8151 145.732 43.9839 145.634 44.1196C145.536 44.2553 145.389 44.347 145.224 44.3747L143.233 44.7016C143.068 44.7271 142.899 44.6865 142.764 44.5886C142.695 44.542 142.636 44.4814 142.592 44.4108C142.548 44.3401 142.52 44.261 142.508 44.1786L142.175 42.1403C142.16 42.0585 142.162 41.9745 142.182 41.8936C142.201 41.8127 142.238 41.7369 142.288 41.6709C142.335 41.6019 142.395 41.5436 142.466 41.4996C142.537 41.4555 142.616 41.4268 142.698 41.4153L144.683 41.0885Z" fill="#1C1C1C"/>
<g opacity="0.2">
<path d="M141.617 28.1041C142.332 27.9893 143.06 27.9753 143.78 28.0625C144.467 28.1442 145.135 28.3453 145.753 28.6567C146.341 28.9621 146.859 29.3872 147.274 29.9047C147.647 30.4111 147.909 30.9901 148.044 31.6043C148.179 32.2184 148.184 32.8541 148.058 33.4702C147.945 33.9439 147.763 34.3984 147.518 34.8191C147.281 35.2284 147.007 35.6144 146.698 35.972C146.394 36.3285 146.103 36.6673 145.836 36.9941C145.574 37.2986 145.341 37.6269 145.141 37.9746C144.952 38.2794 144.857 38.6327 144.867 38.9908C144.862 39.1582 144.815 39.3216 144.731 39.4662C144.688 39.5328 144.631 39.5895 144.564 39.6326C144.498 39.6756 144.423 39.704 144.344 39.7158L142.562 40.001C142.478 40.0161 142.393 40.0145 142.31 39.9961C142.227 39.9777 142.149 39.943 142.08 39.8941C142.01 39.8499 141.951 39.7897 141.909 39.7184C141.867 39.6471 141.842 39.5668 141.837 39.484C141.762 38.931 141.802 38.3686 141.955 37.832C142.095 37.357 142.295 36.9017 142.55 36.4771C142.8 36.0697 143.086 35.6858 143.405 35.3302C143.72 34.9736 144 34.6409 144.273 34.32C144.517 34.0334 144.728 33.7205 144.903 33.387C145.058 33.1 145.114 32.7702 145.063 32.4481C145.019 32.1646 144.906 31.896 144.735 31.6653C144.565 31.4346 144.341 31.2485 144.083 31.1229C143.444 30.8143 142.721 30.7265 142.027 30.8733C141.398 30.9652 140.814 31.2493 140.353 31.6865C139.892 32.1238 139.578 32.6928 139.454 33.3157C139.419 33.4655 139.358 33.6082 139.275 33.7376C139.169 33.8504 139.025 33.9202 138.871 33.9337L136.993 34.2368C136.861 34.262 136.725 34.2343 136.613 34.1595C136.556 34.1202 136.508 34.0691 136.472 34.0097C136.436 33.9502 136.413 33.8838 136.405 33.8148C136.349 33.2252 136.441 32.6308 136.672 32.0856C136.907 31.4511 137.254 30.8635 137.695 30.3504C138.178 29.7885 138.748 29.307 139.382 28.9241C140.067 28.5089 140.826 28.2304 141.617 28.1041ZM144.683 41.0885C144.765 41.0755 144.848 41.0788 144.929 41.0982C145.01 41.1176 145.085 41.1526 145.152 41.2014C145.223 41.2474 145.282 41.3078 145.327 41.3785C145.372 41.4491 145.402 41.5285 145.414 41.6114L145.747 43.6497C145.773 43.8151 145.732 43.9839 145.634 44.1196C145.536 44.2553 145.389 44.347 145.224 44.3747L143.233 44.7016C143.068 44.7271 142.899 44.6865 142.764 44.5886C142.695 44.542 142.636 44.4814 142.592 44.4108C142.548 44.3401 142.52 44.261 142.508 44.1786L142.175 42.1403C142.16 42.0585 142.162 41.9745 142.182 41.8936C142.201 41.8127 142.238 41.7369 142.288 41.6709C142.335 41.6019 142.395 41.5436 142.466 41.4996C142.537 41.4555 142.616 41.4268 142.698 41.4153L144.683 41.0885Z" fill="black"/>
</g>
<path d="M158.422 31.3071C158.503 31.3635 158.572 31.4357 158.624 31.5195C158.676 31.6033 158.71 31.6968 158.725 31.7944C158.744 31.8911 158.743 31.9906 158.721 32.0868C158.7 32.1829 158.659 32.2736 158.6 32.353L157.186 34.3438C157.13 34.4248 157.057 34.4934 156.974 34.5456C156.89 34.5977 156.796 34.6321 156.699 34.6468C156.602 34.6657 156.503 34.6644 156.406 34.6429C156.31 34.6215 156.22 34.5803 156.14 34.522L154.191 33.1374C154.11 33.0818 154.041 33.0097 153.99 32.9257C153.939 32.8417 153.906 32.7478 153.894 32.6501C153.875 32.5535 153.876 32.4539 153.898 32.3578C153.919 32.2616 153.96 32.171 154.019 32.0915L155.451 30.1008C155.567 29.9394 155.741 29.8302 155.937 29.7969C156.133 29.7635 156.334 29.8086 156.497 29.9225L158.422 31.3071ZM166.647 17.8235C167.357 18.3216 167.99 18.9224 168.524 19.6063C169.046 20.2424 169.448 20.9671 169.713 21.7456C169.96 22.4917 170.043 23.2821 169.957 24.0632C169.856 24.8961 169.54 25.6886 169.041 26.3629C168.671 26.9082 168.194 27.3731 167.639 27.7297C167.151 28.0358 166.62 28.268 166.064 28.4191C165.523 28.5606 164.97 28.656 164.412 28.7043L162.831 28.8469C162.357 28.8848 161.888 28.9664 161.429 29.0906C161.006 29.1867 160.618 29.401 160.312 29.7086C160.173 29.8491 159.998 29.948 159.807 29.9938C159.715 30.02 159.619 30.0239 159.526 30.0053C159.433 29.9867 159.346 29.9461 159.272 29.8869L157.549 28.6627C157.384 28.5451 157.271 28.3684 157.234 28.1695C157.211 28.0731 157.212 27.9728 157.236 27.8768C157.26 27.7808 157.306 27.6917 157.37 27.6168C157.773 27.0944 158.276 26.658 158.85 26.3332C159.367 26.051 159.918 25.8373 160.49 25.6974C161.042 25.5634 161.605 25.4779 162.172 25.4419C162.73 25.4062 163.253 25.3646 163.741 25.3171C164.187 25.2777 164.627 25.19 165.054 25.0556C165.427 24.9312 165.749 24.6867 165.969 24.3603C166.168 24.0847 166.297 23.7651 166.345 23.4289C166.394 23.0926 166.361 22.7496 166.248 22.429C165.967 21.637 165.43 20.9614 164.721 20.5096C163.438 19.5944 162.037 19.5647 160.52 20.4204C160.367 20.5176 160.198 20.5861 160.021 20.6225C159.928 20.6289 159.836 20.617 159.748 20.5874C159.66 20.5578 159.579 20.5112 159.51 20.4501L157.679 19.1487C157.613 19.1047 157.556 19.0479 157.512 18.9815C157.468 18.9152 157.438 18.8407 157.424 18.7625C157.41 18.6816 157.412 18.5986 157.432 18.5189C157.451 18.4391 157.487 18.3642 157.537 18.2989C157.969 17.7456 158.53 17.3069 159.171 17.0213C159.899 16.6913 160.679 16.4902 161.477 16.427C162.354 16.3537 163.237 16.424 164.091 16.635C165.014 16.8573 165.882 17.2613 166.647 17.8235Z" fill="#1C1C1C"/>
<g opacity="0.6">
<path d="M158.422 31.3071C158.503 31.3635 158.572 31.4357 158.624 31.5195C158.676 31.6033 158.71 31.6968 158.725 31.7944C158.744 31.8911 158.743 31.9906 158.721 32.0868C158.7 32.1829 158.659 32.2736 158.6 32.353L157.186 34.3438C157.13 34.4248 157.057 34.4934 156.974 34.5456C156.89 34.5977 156.796 34.6321 156.699 34.6468C156.602 34.6657 156.503 34.6644 156.406 34.6429C156.31 34.6215 156.22 34.5803 156.14 34.522L154.191 33.1374C154.11 33.0818 154.041 33.0097 153.99 32.9257C153.939 32.8417 153.906 32.7478 153.894 32.6501C153.875 32.5535 153.876 32.4539 153.898 32.3578C153.919 32.2616 153.96 32.171 154.019 32.0915L155.451 30.1008C155.567 29.9394 155.741 29.8302 155.937 29.7969C156.133 29.7635 156.334 29.8086 156.497 29.9225L158.422 31.3071ZM166.647 17.8235C167.357 18.3216 167.99 18.9224 168.524 19.6063C169.046 20.2424 169.448 20.9671 169.713 21.7456C169.96 22.4917 170.043 23.2821 169.957 24.0632C169.856 24.8961 169.54 25.6886 169.041 26.3629C168.671 26.9082 168.194 27.3731 167.639 27.7297C167.151 28.0358 166.62 28.268 166.064 28.4191C165.523 28.5606 164.97 28.656 164.412 28.7043L162.831 28.8469C162.357 28.8848 161.888 28.9664 161.429 29.0906C161.006 29.1867 160.618 29.401 160.312 29.7086C160.173 29.8491 159.998 29.948 159.807 29.9938C159.715 30.02 159.619 30.0239 159.526 30.0053C159.433 29.9867 159.346 29.9461 159.272 29.8869L157.549 28.6627C157.384 28.5451 157.271 28.3684 157.234 28.1695C157.211 28.0731 157.212 27.9728 157.236 27.8768C157.26 27.7808 157.306 27.6917 157.37 27.6168C157.773 27.0944 158.276 26.658 158.85 26.3332C159.367 26.051 159.918 25.8373 160.49 25.6974C161.042 25.5634 161.605 25.4779 162.172 25.4419C162.73 25.4062 163.253 25.3646 163.741 25.3171C164.187 25.2777 164.627 25.19 165.054 25.0556C165.427 24.9312 165.749 24.6867 165.969 24.3603C166.168 24.0847 166.297 23.7651 166.345 23.4289C166.394 23.0926 166.361 22.7496 166.248 22.429C165.967 21.637 165.43 20.9614 164.721 20.5096C163.438 19.5944 162.037 19.5647 160.52 20.4204C160.367 20.5176 160.198 20.5861 160.021 20.6225C159.928 20.6289 159.836 20.617 159.748 20.5874C159.66 20.5578 159.579 20.5112 159.51 20.4501L157.679 19.1487C157.613 19.1047 157.556 19.0479 157.512 18.9815C157.468 18.9152 157.438 18.8407 157.424 18.7625C157.41 18.6816 157.412 18.5986 157.432 18.5189C157.451 18.4391 157.487 18.3642 157.537 18.2989C157.969 17.7456 158.53 17.3069 159.171 17.0213C159.899 16.6913 160.679 16.4902 161.477 16.427C162.354 16.3537 163.237 16.424 164.091 16.635C165.014 16.8573 165.882 17.2613 166.647 17.8235Z" fill="white"/>
</g>
<path d="M131.298 212.76L136.065 210.719L132.621 199.143L127.853 201.178L131.298 212.76Z" fill="#FFC3BD"/>
<path d="M91.9834 215.104H97.1671L97.4357 203.105H92.252L91.9834 215.104Z" fill="#FFC3BD"/>
<path d="M97.8722 214.506H91.5537C91.4505 214.507 91.3504 214.542 91.27 214.607C91.1895 214.671 91.1333 214.761 91.1105 214.862L90.0899 219.468C90.0654 219.581 90.0668 219.697 90.0938 219.808C90.1209 219.92 90.1729 220.024 90.2459 220.113C90.319 220.201 90.4112 220.272 90.5156 220.32C90.62 220.368 90.7338 220.391 90.8486 220.388C92.863 220.388 94.3671 220.234 96.9254 220.234C98.4967 220.234 103.251 220.395 105.426 220.395C107.602 220.395 107.884 218.246 106.997 218.052C102.969 217.179 99.994 215.97 98.7115 214.822C98.4808 214.616 98.1815 214.503 97.8722 214.506Z" fill="#263238"/>
<path d="M135.951 210.008L130.834 212.425C130.742 212.47 130.668 212.545 130.623 212.638C130.578 212.73 130.565 212.835 130.586 212.935L131.633 217.541C131.658 217.653 131.708 217.757 131.779 217.846C131.85 217.935 131.94 218.007 132.043 218.056C132.146 218.105 132.259 218.131 132.373 218.13C132.487 218.129 132.599 218.102 132.701 218.052C134.534 217.152 137.146 215.782 139.47 214.694C142.155 213.412 142.263 213.412 145.446 211.908C147.366 211.001 146.983 208.806 146.117 209.007C142.088 209.94 141.37 210.31 137.281 209.853C136.832 209.781 136.371 209.834 135.951 210.008Z" fill="#263238"/>
<path d="M107.192 50.7016L109.321 51.232C110.059 51.4066 110.791 51.5611 111.523 51.7021C112.932 51.9846 114.356 52.193 115.787 52.3265C116.414 52.3791 117.045 52.3925 117.674 52.3668C118.088 52.3561 118.5 52.3021 118.902 52.2057C118.99 52.2057 118.983 52.2057 118.902 52.2795C118.78 52.4187 118.69 52.584 118.641 52.763C118.594 52.951 118.641 53.0383 118.641 52.998C118.666 52.8717 118.666 52.7416 118.641 52.6153C118.308 51.4465 117.791 50.3381 117.11 49.3318C116.308 48.0761 115.44 46.8635 114.511 45.6991C112.604 43.302 110.482 40.8981 108.354 38.6017L110.784 35.5599C113.652 37.3372 116.35 39.3759 118.842 41.6502C120.139 42.8302 121.348 44.1026 122.461 45.4574C123.781 46.9985 124.805 48.7694 125.483 50.6814C125.695 51.3346 125.828 52.0109 125.879 52.6958C125.942 53.5824 125.827 54.4725 125.543 55.3146C125.21 56.2563 124.655 57.1038 123.925 57.7856C123.32 58.3447 122.625 58.7986 121.87 59.1285C120.759 59.6037 119.582 59.9049 118.379 60.0216C117.395 60.1216 116.406 60.1531 115.418 60.1156C113.614 60.0443 111.818 59.8355 110.046 59.4911C109.186 59.33 108.34 59.1419 107.501 58.9405C106.662 58.7391 105.863 58.5242 104.943 58.269L107.192 50.7016Z" fill="#FFC3BD"/>
<path d="M100.001 52.8836C102.687 48.7339 117.224 51.7891 117.224 51.7891L118.063 64.3455C114.126 63.7633 110.161 63.3801 106.185 63.1973C102.082 63.016 96.6299 58.0404 100.001 52.8836Z" fill="#263238"/>
<path d="M109.153 39.1053L104.285 36.5L108.985 32.7935C109.648 33.2091 110.216 33.7601 110.651 34.4105C111.086 35.0608 111.378 35.7957 111.51 36.5671L109.153 39.1053Z" fill="#FFC3BD"/>
<path d="M101.317 33.7869L106.064 30.8458L109.012 32.7931L104.285 36.4996L101.317 33.7869Z" fill="#FFC3BD"/>
<path opacity="0.2" d="M132.621 199.15L134.393 205.112L129.626 207.154L127.846 201.184L132.621 199.15Z" fill="black"/>
<path opacity="0.2" d="M92.2521 203.105H97.4358L97.2948 209.296H92.1111L92.2521 203.105Z" fill="black"/>
<path d="M87.8472 64.2247L81.5287 73.3366C81.1218 73.9149 80.8888 74.5975 80.8572 75.304L80.3603 87.3904C80.3248 88.2903 80.6158 89.1726 81.1795 89.8749L83.9258 93.2859C84.2998 93.7393 84.7759 94.0974 85.3152 94.3309C85.8545 94.5643 86.4416 94.6665 87.028 94.6289L95.3341 94.1723C96.2847 94.1206 97.1792 93.7058 97.8328 93.0135C98.4863 92.3212 98.849 91.4044 98.8459 90.4523L98.772 66.1787C98.7713 65.6831 98.6714 65.1926 98.4781 64.7361C98.2848 64.2797 98.0021 63.8666 97.6467 63.5212C97.2912 63.1757 96.8702 62.9049 96.4084 62.7248C95.9467 62.5446 95.4535 62.4587 94.9581 62.4722L90.7815 62.5863C90.1982 62.61 89.6286 62.7707 89.1188 63.0553C88.609 63.3399 88.1734 63.7405 87.8472 64.2247Z" fill="#1C1C1C"/>
<path opacity="0.3" d="M87.8472 64.2247L81.5287 73.3366C81.1218 73.9149 80.8888 74.5975 80.8572 75.304L80.3603 87.3904C80.3248 88.2903 80.6158 89.1726 81.1795 89.8749L83.9258 93.2859C84.2998 93.7393 84.7759 94.0974 85.3152 94.3309C85.8545 94.5643 86.4416 94.6665 87.028 94.6289L95.3341 94.1723C96.2847 94.1206 97.1792 93.7058 97.8328 93.0135C98.4863 92.3212 98.849 91.4044 98.8459 90.4523L98.772 66.1787C98.7713 65.6831 98.6714 65.1926 98.4781 64.7361C98.2848 64.2797 98.0021 63.8666 97.6467 63.5212C97.2912 63.1757 96.8702 62.9049 96.4084 62.7248C95.9467 62.5446 95.4535 62.4587 94.9581 62.4722L90.7815 62.5863C90.1982 62.61 89.6286 62.7707 89.1188 63.0553C88.609 63.3399 88.1734 63.7405 87.8472 64.2247Z" fill="black"/>
<path d="M104.671 48.2728L86.3868 48.7739C84.3627 48.8294 82.7669 50.5152 82.8224 52.5392L82.9637 57.6942C83.0191 59.7182 84.7049 61.3141 86.7289 61.2586L105.013 60.7574C107.037 60.702 108.633 59.0162 108.577 56.9922L108.436 51.8372C108.381 49.8132 106.695 48.2173 104.671 48.2728Z" fill="#1C1C1C"/>
<path opacity="0.3" d="M104.671 48.2728L86.3868 48.7739C84.3627 48.8294 82.7669 50.5152 82.8224 52.5392L82.9637 57.6942C83.0191 59.7182 84.7049 61.3141 86.7289 61.2586L105.013 60.7574C107.037 60.702 108.633 59.0162 108.577 56.9922L108.436 51.8372C108.381 49.8132 106.695 48.2173 104.671 48.2728Z" fill="black"/>
<path d="M82.1665 52.1517C83.5699 57.7764 84.5552 63.4973 85.1143 69.2674C85.5239 73.2962 85.7387 77.1236 85.8529 80.6086C86.1147 88.7602 85.8126 94.9646 86.014 97.073L113.699 95.73C114.518 54.9987 111.174 51.0035 111.174 51.0035C108.995 50.5512 106.791 50.2328 104.573 50.05C104.126 50.0097 103.649 49.9828 103.143 49.9694C99.2117 49.9336 95.2815 50.1264 91.3724 50.5469C90.6337 50.6207 89.8817 50.7147 89.1498 50.8155C85.4366 51.3191 82.1665 52.1517 82.1665 52.1517Z" fill="#263238"/>
<path d="M109.911 64.5805C103.226 63.0916 96.2486 63.6173 89.8614 66.0913L89.2974 64.1508C96.0291 61.5439 103.382 60.9902 110.429 62.5594C110.267 63.2309 110.086 63.909 109.911 64.5805Z" fill="#1C1C1C"/>
<path opacity="0.2" d="M88.9953 59.7529C88.9603 64.0023 87.6861 68.1491 85.329 71.6849C85.2686 70.8926 85.1947 70.0936 85.1142 69.2878C84.8053 66.2662 84.389 63.1304 83.825 59.9611L88.9953 59.7529Z" fill="black"/>
<path d="M105.345 50.0971L104.573 50.0299C104.103 49.9897 103.627 49.9628 103.15 49.9359C99.2182 49.9055 95.2882 50.1006 91.3789 50.5201C90.6336 50.594 89.8883 50.688 89.1564 50.7887H89.1094L89.6398 51.6146C90.459 52.9105 93.0778 55.9657 99.7723 56.5701L100.444 56.6238L101.001 56.3082C102.438 55.489 104.768 53.5081 105.292 51.3997C105.392 50.9728 105.41 50.5308 105.345 50.0971Z" fill="white"/>
<path d="M87.5853 29.2951C84.9733 27.9924 81.9987 31.7459 82.885 34.0893C83.5449 33.9633 84.227 34.027 84.8522 34.273C85.4774 34.519 86.0199 34.9373 86.4169 35.4793C86.4169 35.4793 84.6778 37.6146 85.7455 39.9378C87.8673 38.5949 90.0362 40.4482 90.0362 40.4482C89.7818 41.0737 89.7221 41.7614 89.8646 42.4214C90.0072 43.0814 90.3454 43.6831 90.8352 44.148C91.3993 42.6304 93.5211 44.0002 94.3806 42.805C95.7839 40.851 94.1657 38.7762 94.1657 38.7762L93.5815 37.8093C93.1518 33.1762 91.6477 31.3162 87.5853 29.2951Z" fill="#263238"/>
<path d="M91.8759 37.2115C92.8093 40.9651 93.8903 47.861 91.3723 50.5201C92.4198 52.1786 95.1124 54.0856 99.947 54.5489C101.666 53.5752 103.929 51.1915 103.136 49.9695C98.8659 49.1704 98.8189 46.0347 99.4098 43.0533L91.8759 37.2115Z" fill="#FFC3BD"/>
<path d="M105.158 50.2314C105.46 52.7494 107.655 69.4891 113.423 76.647C113.468 76.7 113.527 76.7382 113.594 76.7566C113.661 76.7751 113.732 76.7729 113.797 76.7504C113.862 76.7278 113.919 76.686 113.961 76.6304C114.002 76.5748 114.025 76.508 114.028 76.4388C114.028 74.9683 114.028 73.5784 114.028 73.3299C114.031 73.3032 114.031 73.2761 114.028 73.2494C113.826 72.5175 110.885 61.4114 110.489 50.7417C110.487 50.6843 110.471 50.6282 110.442 50.5788C110.412 50.5294 110.371 50.4884 110.321 50.4597C108.77 49.8648 107.096 49.6596 105.446 49.8621C105.403 49.8671 105.361 49.8806 105.323 49.9019C105.285 49.9233 105.251 49.9519 105.225 49.9863C105.198 50.0207 105.178 50.06 105.166 50.1021C105.155 50.1442 105.152 50.1881 105.158 50.2314Z" fill="#1C1C1C"/>
<path opacity="0.2" d="M94.9581 39.5819L99.4099 43.0198C99.2629 43.7138 99.1776 44.4193 99.1547 45.1282C97.5298 44.9738 95.2266 43.3153 94.9715 41.6299C94.841 40.9539 94.8364 40.2596 94.9581 39.5819Z" fill="black"/>
<path d="M101.149 31.014C102.539 31.155 104.573 26.5151 102.257 23.1981C100.115 20.1429 95.8914 23.3122 95.3609 23.8695C94.8305 24.4268 96.16 30.4969 101.149 31.014Z" fill="#263238"/>
<path d="M89.4586 32.1755C90.7478 37.1511 91.2514 40.1324 94.2999 42.2475C98.886 45.3967 104.661 41.8715 104.882 36.6072C105.077 31.8733 102.935 24.5207 97.6102 23.48C96.4403 23.2464 95.2301 23.3151 94.094 23.6794C92.958 24.0437 91.9336 24.6917 91.1176 25.5621C90.3017 26.4325 89.7212 27.4966 89.4309 28.6537C89.1406 29.8109 89.1501 31.023 89.4586 32.1755Z" fill="#FFC3BD"/>
<path d="M91.661 36.1371C93.0577 36.2782 93.5344 29.9261 92.769 28.3212C92.0035 26.7164 86.2759 28.3212 85.8797 28.9927C83.6638 32.7932 86.6787 35.6201 91.661 36.1371Z" fill="#263238"/>
<path d="M102.902 20.6532C102.7 18.7328 100.437 17.7054 98.0199 17.9673C97.9058 19.3841 95.5758 20.4518 95.5758 20.4518C94.8695 19.8896 94.0468 19.4919 93.1676 19.2874C92.2883 19.083 91.3746 19.0771 90.4928 19.27C90.6405 21.4187 88.6261 23.0705 88.6261 23.0705C88.6261 23.0705 86.5311 22.1774 84.3891 24.1784C86.1215 24.9976 83.2946 26.8039 84.8726 28.8115C86.6587 31.0878 89.828 29.7986 89.828 29.7986L91.1709 29.0869C97.7379 28.3214 103.445 25.6624 102.902 20.6532Z" fill="#263238"/>
<path d="M102.412 36.9633C101.396 37.694 100.259 38.2395 99.0542 38.5748C99.0368 38.5799 99.0186 38.581 99.0008 38.5781C98.983 38.5752 98.9661 38.5683 98.9513 38.558C98.9364 38.5477 98.9241 38.5342 98.9152 38.5185C98.9063 38.5028 98.901 38.4854 98.8997 38.4674C98.8986 38.4273 98.9114 38.388 98.9359 38.3562C98.9603 38.3244 98.995 38.302 99.034 38.2928C100.183 37.9669 101.267 37.4444 102.237 36.7484C102.264 36.7229 102.3 36.7087 102.338 36.7087C102.375 36.7087 102.411 36.7229 102.438 36.7484C102.455 36.7621 102.468 36.7798 102.476 36.7999C102.484 36.82 102.487 36.8418 102.485 36.8633C102.482 36.8848 102.474 36.9053 102.461 36.9227C102.448 36.9402 102.431 36.9542 102.412 36.9633Z" fill="#263238"/>
<path d="M88.2636 37.6213C89.152 38.5606 90.3756 39.1109 91.6679 39.1522C93.3802 39.1925 93.8166 37.5608 93.0109 36.1642C92.2655 34.9018 90.4727 33.3709 88.9216 33.9953C87.3705 34.6198 87.1758 36.4529 88.2636 37.6213Z" fill="#FFC3BD"/>
<path d="M124.63 152.087C121.904 136.509 113.699 95.6832 113.699 95.6832L95.5017 96.583C95.5017 96.583 107.991 142.35 111.577 155.619C115.162 168.887 127.692 206.832 127.692 206.832L135.622 203.085C135.622 203.085 127.464 168.289 124.63 152.087Z" fill="#1C1C1C"/>
<path opacity="0.2" d="M102.881 111.973L100.323 114.296C102.519 122.354 105.124 131.929 107.367 140.161C107.991 130.868 106.85 116.902 102.881 111.973Z" fill="black"/>
<path d="M106.064 96.0792C106.064 96.0792 102.418 139.443 101.962 154.625C101.458 171.243 99.7659 208.094 99.7659 208.094H90.2713C90.2713 208.094 88.8142 174.42 88.5187 158.076C88.1561 139.611 86.041 97.073 86.041 97.073L106.064 96.0792Z" fill="#1C1C1C"/>
<path d="M100.142 208.302H89.7205L89.2505 204.965L100.988 204.743L100.142 208.302Z" fill="#263238"/>
<path d="M136.186 203.058L127.236 207.295L125.315 204.287L135.522 199.445L136.186 203.058Z" fill="#263238"/>
<path d="M97.3754 32.0682C97.456 32.4778 97.738 32.7397 98.0066 32.7397C98.2751 32.7397 98.4296 32.3167 98.349 31.9071C98.2684 31.4975 97.9864 31.2356 97.7178 31.2356C97.4492 31.2356 97.2948 31.6855 97.3754 32.0682Z" fill="#263238"/>
<path d="M102.015 31.1886C102.096 31.5982 102.378 31.86 102.646 31.86C102.915 31.86 103.063 31.4303 102.982 31.0207C102.901 30.6111 102.619 30.3492 102.351 30.3492C102.082 30.3492 101.948 30.779 102.015 31.1886Z" fill="#263238"/>
<path d="M100.605 31.6786C101.339 32.838 102.23 33.8909 103.251 34.8076C102.653 35.6268 101.283 35.4791 101.283 35.4791L100.605 31.6786Z" fill="#ED847E"/>
<path d="M98.0399 29.7112C97.9967 29.7 97.9512 29.701 97.9086 29.714C97.8659 29.7271 97.8277 29.7517 97.7981 29.7851C97.5986 30.018 97.3466 30.2003 97.063 30.317C96.7794 30.4337 96.4721 30.4815 96.1665 30.4566C96.1025 30.4488 96.0381 30.4662 95.9868 30.505C95.9354 30.5438 95.9011 30.6011 95.8912 30.6647C95.8854 30.697 95.8864 30.7301 95.8938 30.762C95.9013 30.7939 95.9152 30.824 95.9347 30.8504C95.9542 30.8768 95.9788 30.8989 96.0071 30.9155C96.0354 30.932 96.0668 30.9427 96.0993 30.9467C96.4881 30.9779 96.8788 30.9155 97.2386 30.7648C97.5983 30.6141 97.9168 30.3795 98.1674 30.0805C98.1908 30.0585 98.2094 30.032 98.2222 30.0026C98.2349 29.9731 98.2415 29.9414 98.2415 29.9093C98.2415 29.8772 98.2349 29.8455 98.2222 29.816C98.2094 29.7866 98.1908 29.7601 98.1674 29.7381C98.1295 29.7142 98.0842 29.7047 98.0399 29.7112Z" fill="#263238"/>
<path d="M103.747 27.4418C103.795 27.4279 103.837 27.3998 103.868 27.3612C103.889 27.3356 103.904 27.3063 103.913 27.2749C103.922 27.2435 103.924 27.2107 103.921 27.1783C103.917 27.1458 103.907 27.1145 103.891 27.0859C103.875 27.0574 103.854 27.0323 103.828 27.012C103.528 26.7625 103.173 26.5893 102.791 26.5075C102.41 26.4256 102.015 26.4374 101.639 26.542C101.578 26.5634 101.528 26.6076 101.499 26.6652C101.471 26.7228 101.465 26.7894 101.485 26.8509C101.506 26.9116 101.55 26.9617 101.608 26.9905C101.665 27.0193 101.732 27.0246 101.793 27.0053C102.093 26.9308 102.406 26.9278 102.707 26.9966C103.008 27.0655 103.288 27.2041 103.526 27.4015C103.557 27.4243 103.594 27.4397 103.632 27.4467C103.67 27.4536 103.71 27.452 103.747 27.4418Z" fill="#263238"/>
<path d="M99.5844 215.413C99.9388 215.441 100.292 215.346 100.585 215.144C100.682 215.064 100.756 214.96 100.8 214.842C100.845 214.724 100.859 214.597 100.84 214.473C100.841 214.4 100.821 214.329 100.783 214.267C100.745 214.205 100.69 214.155 100.625 214.124C100.054 213.828 98.3824 214.855 98.1944 214.976C98.174 214.988 98.1579 215.007 98.1483 215.028C98.1386 215.05 98.136 215.074 98.1407 215.097C98.1438 215.121 98.1537 215.143 98.1692 215.161C98.1847 215.179 98.2052 215.192 98.228 215.198C98.6706 215.32 99.1256 215.392 99.5844 215.413ZM100.357 214.338C100.41 214.327 100.465 214.327 100.518 214.338C100.542 214.354 100.562 214.376 100.575 214.402C100.588 214.428 100.594 214.457 100.592 214.486C100.604 214.568 100.595 214.652 100.566 214.73C100.536 214.807 100.487 214.876 100.424 214.929C99.8458 215.198 99.1861 215.232 98.5839 215.023C99.1257 214.684 99.7274 214.452 100.357 214.338Z" fill="#1C1C1C"/>
<path d="M98.2616 215.225C98.2789 215.232 98.2981 215.232 98.3154 215.225C98.8525 214.936 99.8933 213.801 99.7792 213.211C99.762 213.12 99.7136 213.038 99.6425 212.979C99.5714 212.92 99.482 212.888 99.3897 212.888C99.2965 212.876 99.2016 212.883 99.1114 212.91C99.0212 212.936 98.9376 212.982 98.866 213.043C98.2684 213.54 98.1408 215.057 98.1341 215.097C98.1336 215.119 98.1389 215.141 98.1495 215.159C98.1602 215.178 98.1757 215.194 98.1945 215.205C98.2142 215.218 98.2377 215.225 98.2616 215.225ZM99.3024 213.13H99.3628C99.5173 213.13 99.5374 213.224 99.5374 213.258C99.6046 213.593 98.9465 214.453 98.4094 214.856C98.4474 214.267 98.6602 213.704 99.0204 213.237C99.0986 213.169 99.1986 213.131 99.3024 213.13Z" fill="#1C1C1C"/>
<path d="M136.716 210.464C137.542 210.256 138.973 209.793 139.268 209.121C139.32 209.015 139.343 208.897 139.335 208.779C139.326 208.661 139.287 208.548 139.221 208.45C139.19 208.39 139.144 208.339 139.088 208.302C139.031 208.266 138.966 208.245 138.899 208.242C138.187 208.201 136.75 210.034 136.589 210.256C136.574 210.277 136.566 210.301 136.566 210.327C136.566 210.352 136.574 210.376 136.589 210.397C136.599 210.421 136.617 210.441 136.641 210.453C136.664 210.466 136.691 210.469 136.716 210.464ZM138.879 208.504C138.905 208.506 138.93 208.515 138.951 208.531C138.972 208.546 138.989 208.567 138.999 208.591C139.04 208.652 139.065 208.721 139.072 208.794C139.079 208.867 139.068 208.94 139.04 209.007C138.872 209.403 138.12 209.813 137.025 210.128C137.616 209.417 138.462 208.53 138.879 208.504Z" fill="#1C1C1C"/>
<path d="M136.717 210.464C136.732 210.463 136.747 210.46 136.761 210.453C136.775 210.446 136.787 210.436 136.797 210.424C137.247 209.9 137.885 208.356 137.549 207.865C137.469 207.751 137.307 207.644 136.992 207.751C136.876 207.792 136.769 207.856 136.678 207.939C136.586 208.022 136.513 208.123 136.461 208.235C136.099 209.007 136.569 210.33 136.589 210.383C136.596 210.404 136.609 210.422 136.626 210.436C136.642 210.45 136.662 210.46 136.683 210.464H136.717ZM137.213 207.953C137.239 207.948 137.265 207.95 137.288 207.96C137.312 207.969 137.333 207.986 137.348 208.006C137.549 208.302 137.166 209.457 136.75 210.075C136.55 209.517 136.529 208.912 136.69 208.342C136.724 208.259 136.776 208.184 136.842 208.122C136.908 208.061 136.987 208.014 137.072 207.986C137.117 207.967 137.165 207.956 137.213 207.953Z" fill="#1C1C1C"/>
<path d="M87.5919 59.8602L86.0945 61.9149C85.5842 62.62 85.0873 63.3384 84.5972 64.0569C83.6101 65.4938 82.6633 66.9509 81.7367 68.408C80.8101 69.8651 79.9707 71.3625 79.1583 72.8532C78.3802 74.3186 77.6765 75.8224 77.0499 77.3587C77.0499 77.3587 77.0499 77.4259 77.0499 77.4191C77.0499 77.4729 77.0499 77.4191 77.0499 77.54C77.0531 77.5757 77.0531 77.6117 77.0499 77.6474C77.0499 77.6877 77.0499 77.7549 77.0499 77.8086V77.9765L77.0834 78.1779C77.2028 78.85 77.3942 79.5074 77.6542 80.1386C78.2833 81.6647 79.0216 83.1435 79.8633 84.5636C80.7161 86.0542 81.6629 87.5382 82.6365 89.0154C83.6101 90.4926 84.6509 91.9766 85.6245 93.4135L82.7708 96.0591C79.9031 93.5562 77.2753 90.7912 74.9213 87.8001C73.6839 86.2428 72.5852 84.5801 71.6378 82.8312C71.105 81.8251 70.6753 80.7678 70.3553 79.6753L70.2277 79.2187L70.1337 78.7151C70.1337 78.5405 70.0733 78.3793 70.0531 78.198L70.0129 77.6273C69.988 77.213 69.9992 76.7974 70.0464 76.3851C70.0704 76.1586 70.1108 75.9342 70.1673 75.7136L70.2479 75.3644C70.2691 75.2689 70.296 75.1747 70.3284 75.0824C71.4923 71.3659 73.0689 67.7916 75.0287 64.4262C75.9688 62.7677 76.976 61.1629 78.0302 59.5983C78.5607 58.8127 79.1045 58.0405 79.6619 57.2751C80.2192 56.5096 80.7698 55.7777 81.4211 54.9719L87.5919 59.8602Z" fill="#FFC3BD"/>
<path d="M82.1667 52.1518C77.2851 53.0382 72.7661 64.8292 72.7661 64.8292L82.7374 73.2897C82.7374 73.2897 86.1821 67.3203 88.9552 61.5457C91.997 55.2607 88.0689 51.0842 82.1667 52.1518Z" fill="#263238"/>
<path d="M83.5496 92.6818L88.7669 92.0104L86.7525 98.3222C86.7525 98.3222 82.1865 97.8924 82.1462 95.4416L83.5496 92.6818Z" fill="#FFC3BD"/>
<path d="M92.4939 94.2395L90.6003 99.3763L86.7729 98.3422L88.7672 92.0371L92.4939 94.2395Z" fill="#FFC3BD"/>
<path d="M85.3358 51.6481C85.8998 54.4481 88.3305 67.8775 85.4768 78.7083C85.473 78.726 85.473 78.7443 85.4768 78.762C85.4746 79.409 85.5195 80.0554 85.6111 80.6959C85.6204 80.74 85.6409 80.7809 85.6707 80.8147C85.7004 80.8485 85.7384 80.8741 85.7809 80.889C85.8235 80.9038 85.8691 80.9074 85.9135 80.8995C85.9578 80.8916 85.9994 80.8723 86.0341 80.8436C87.4375 79.682 92.6078 74.6997 92.6414 64.0166C92.6749 55.5091 91.3589 51.769 90.862 50.6543C90.8084 50.5442 90.7205 50.4546 90.6115 50.3988C90.5024 50.3431 90.3782 50.3244 90.2576 50.3455L85.8058 51.0169C85.7324 51.0249 85.6614 51.048 85.5973 51.0847C85.5332 51.1214 85.4774 51.1709 85.4332 51.2301C85.3891 51.2893 85.3577 51.357 85.3409 51.4289C85.3242 51.5009 85.3224 51.5755 85.3358 51.6481Z" fill="#1C1C1C"/>
</svg>
