<svg width="60" height="55" viewBox="0 0 60 55" fill="none" xmlns="http://www.w3.org/2000/svg">
<rect width="60" height="55" fill="white"/>
<path d="M22.72 14V12.336H26.048V24H24.208V14H22.72ZM29.5618 21.52C30.5858 20.6347 31.3911 19.9093 31.9778 19.344C32.5751 18.768 33.0711 18.1707 33.4658 17.552C33.8604 16.9333 34.0578 16.3147 34.0578 15.696C34.0578 15.056 33.9031 14.5547 33.5938 14.192C33.2951 13.8293 32.8204 13.648 32.1698 13.648C31.5404 13.648 31.0498 13.8507 30.6978 14.256C30.3564 14.6507 30.1751 15.184 30.1538 15.856H28.3938C28.4258 14.64 28.7884 13.712 29.4818 13.072C30.1858 12.4213 31.0764 12.096 32.1538 12.096C33.3164 12.096 34.2231 12.416 34.8738 13.056C35.5351 13.696 35.8658 14.5493 35.8658 15.616C35.8658 16.384 35.6684 17.1253 35.2738 17.84C34.8898 18.544 34.4258 19.1787 33.8818 19.744C33.3484 20.2987 32.6658 20.944 31.8338 21.68L31.1138 22.32H36.1858V23.84H28.4098V22.512L29.5618 21.52Z" fill="black"/>
<path d="M26.84 38.08V45H25.93V39.84L23.63 45H22.99L20.68 39.83V45H19.77V38.08H20.75L23.31 43.8L25.87 38.08H26.84ZM28.0433 42.24C28.0433 41.68 28.1566 41.19 28.3833 40.77C28.6099 40.3433 28.9199 40.0133 29.3133 39.78C29.7133 39.5467 30.1566 39.43 30.6433 39.43C31.1233 39.43 31.5399 39.5333 31.8933 39.74C32.2466 39.9467 32.5099 40.2067 32.6833 40.52V39.52H33.6033V45H32.6833V43.98C32.5033 44.3 32.2333 44.5667 31.8733 44.78C31.5199 44.9867 31.1066 45.09 30.6333 45.09C30.1466 45.09 29.7066 44.97 29.3133 44.73C28.9199 44.49 28.6099 44.1533 28.3833 43.72C28.1566 43.2867 28.0433 42.7933 28.0433 42.24ZM32.6833 42.25C32.6833 41.8367 32.5999 41.4767 32.4333 41.17C32.2666 40.8633 32.0399 40.63 31.7533 40.47C31.4733 40.3033 31.1633 40.22 30.8233 40.22C30.4833 40.22 30.1733 40.3 29.8933 40.46C29.6133 40.62 29.3899 40.8533 29.2233 41.16C29.0566 41.4667 28.9733 41.8267 28.9733 42.24C28.9733 42.66 29.0566 43.0267 29.2233 43.34C29.3899 43.6467 29.6133 43.8833 29.8933 44.05C30.1733 44.21 30.4833 44.29 30.8233 44.29C31.1633 44.29 31.4733 44.21 31.7533 44.05C32.0399 43.8833 32.2666 43.6467 32.4333 43.34C32.5999 43.0267 32.6833 42.6633 32.6833 42.25ZM39.8611 39.52L36.5611 47.58H35.6211L36.7011 44.94L34.4911 39.52H35.5011L37.2211 43.96L38.9211 39.52H39.8611Z" fill="black"/>
</svg>
