<svg width="26" height="26" viewBox="0 0 26 26" fill="none" xmlns="http://www.w3.org/2000/svg">
<path d="M4.25 19V12.75C4.25 12.3958 4.36979 12.099 4.60938 11.8594C4.84896 11.6198 5.14583 11.5 5.5 11.5C5.85417 11.5 6.15104 11.6198 6.39062 11.8594C6.63021 12.099 6.75 12.3958 6.75 12.75V19C6.75 19.3542 6.63021 19.651 6.39062 19.8906C6.15104 20.1302 5.85417 20.25 5.5 20.25C5.14583 20.25 4.84896 20.1302 4.60938 19.8906C4.36979 19.651 4.25 19.3542 4.25 19ZM11.75 19V12.75C11.75 12.3958 11.8698 12.099 12.1094 11.8594C12.349 11.6198 12.6458 11.5 13 11.5C13.3542 11.5 13.651 11.6198 13.8906 11.8594C14.1302 12.099 14.25 12.3958 14.25 12.75V19C14.25 19.3542 14.1302 19.651 13.8906 19.8906C13.651 20.1302 13.3542 20.25 13 20.25C12.6458 20.25 12.349 20.1302 12.1094 19.8906C11.8698 19.651 11.75 19.3542 11.75 19ZM1.75 25.25C1.39583 25.25 1.09896 25.1302 0.859375 24.8906C0.619792 24.651 0.5 24.3542 0.5 24C0.5 23.6458 0.619792 23.349 0.859375 23.1094C1.09896 22.8698 1.39583 22.75 1.75 22.75H24.25C24.6042 22.75 24.901 22.8698 25.1406 23.1094C25.3802 23.349 25.5 23.6458 25.5 24C25.5 24.3542 25.3802 24.651 25.1406 24.8906C24.901 25.1302 24.6042 25.25 24.25 25.25H1.75ZM19.25 19V12.75C19.25 12.3958 19.3698 12.099 19.6094 11.8594C19.849 11.6198 20.1458 11.5 20.5 11.5C20.8542 11.5 21.151 11.6198 21.3906 11.8594C21.6302 12.099 21.75 12.3958 21.75 12.75V19C21.75 19.3542 21.6302 19.651 21.3906 19.8906C21.151 20.1302 20.8542 20.25 20.5 20.25C20.1458 20.25 19.849 20.1302 19.6094 19.8906C19.3698 19.651 19.25 19.3542 19.25 19ZM24.25 9H1.625C1.3125 9 1.04688 8.89062 0.828125 8.67188C0.609375 8.45313 0.5 8.1875 0.5 7.875V7.1875C0.5 6.95833 0.557292 6.76042 0.671875 6.59375C0.786458 6.42708 0.9375 6.29167 1.125 6.1875L11.875 0.8125C12.2292 0.645833 12.6042 0.5625 13 0.5625C13.3958 0.5625 13.7708 0.645833 14.125 0.8125L24.8125 6.15625C25.0417 6.26042 25.2135 6.41667 25.3281 6.625C25.4427 6.83333 25.5 7.05208 25.5 7.28125V7.75C25.5 8.10417 25.3802 8.40104 25.1406 8.64062C24.901 8.88021 24.6042 9 24.25 9Z" fill="black"/>
</svg>
