<svg width="48" height="48" viewBox="0 0 48 48" fill="none" xmlns="http://www.w3.org/2000/svg">
<path d="M42.5628 4.6C42.3828 4.54 42.2028 4.5 42.0028 4.5H34.0028C33.1828 4.5 32.5028 5.18 32.5028 6C32.5028 6.82 33.1828 7.5 34.0028 7.5H38.3828L28.9428 16.94C28.3628 17.52 28.3628 18.48 28.9428 19.06C29.2428 19.36 29.6228 19.5 30.0028 19.5C30.3828 19.5 30.7628 19.36 31.0628 19.06L40.5028 9.62V14C40.5028 14.82 41.1828 15.5 42.0028 15.5C42.8228 15.5 43.5028 14.82 43.5028 14V6C43.5028 5.8 43.4628 5.62 43.3828 5.42C43.2228 5.06 42.9428 4.76 42.5628 4.6Z" fill="white"/>
<path d="M7.5 38.3828V34.0028C7.5 33.1828 6.82 32.5028 6 32.5028C5.18 32.5028 4.5 33.1828 4.5 34.0028V42.0028C4.5 42.2028 4.54 42.3828 4.62 42.5828C4.78 42.9428 5.06 43.2428 5.44 43.4028C5.6 43.4628 5.8 43.5028 6 43.5028H14C14.82 43.5028 15.5 42.8228 15.5 42.0028C15.5 41.1828 14.82 40.5028 14 40.5028H9.62L19.06 31.0628C19.64 30.4828 19.64 29.5228 19.06 28.9428C18.48 28.3628 17.52 28.3628 16.94 28.9428L7.5 38.3828Z" fill="white"/>
<path d="M2.94 28.3C2.66 26.9 2.5 25.44 2.5 24C2.5 12.14 12.14 2.5 24 2.5C25.46 2.5 26.92 2.64 28.34 2.94C29.16 3.1 29.68 3.9 29.52 4.7C29.36 5.52 28.54 6.02 27.76 5.88C26.5 5.62 25.26 5.5 24 5.5C13.8 5.5 5.5 13.8 5.5 24C5.5 25.24 5.62 26.5 5.88 27.7C6.04 28.52 5.52 29.3 4.7 29.46C4.6 29.5 4.5 29.5 4.4 29.5C3.7 29.5 3.08 29 2.94 28.3Z" fill="white"/>
<path d="M19.662 45.0567C18.842 44.8967 18.322 44.0967 18.482 43.2967C18.642 42.4767 19.462 41.9767 20.242 42.1167C21.462 42.3567 22.722 42.4967 23.982 42.4967C34.182 42.4967 42.482 34.1967 42.482 23.9967C42.482 22.7567 42.362 21.5167 42.122 20.2967C41.962 19.4767 42.482 18.6967 43.302 18.5367C44.122 18.3767 44.902 18.8967 45.062 19.7167C45.342 21.1167 45.482 22.5567 45.482 23.9967C45.502 35.8567 35.862 45.4967 24.002 45.4967C22.542 45.4967 21.082 45.3567 19.662 45.0567Z" fill="white"/>
</svg>
