<svg width="20" height="20" viewBox="0 0 20 20" fill="none" xmlns="http://www.w3.org/2000/svg">
<path d="M14.1667 2.91675H5.83341C3.33341 2.91675 1.66675 4.16675 1.66675 7.08342V12.9167C1.66675 15.8334 3.33341 17.0834 5.83341 17.0834H14.1667C16.6667 17.0834 18.3334 15.8334 18.3334 12.9167V7.08342C18.3334 4.16675 16.6667 2.91675 14.1667 2.91675ZM14.5584 7.99175L11.9501 10.0751C11.4001 10.5167 10.7001 10.7334 10.0001 10.7334C9.30008 10.7334 8.59175 10.5167 8.05008 10.0751L5.44175 7.99175C5.17508 7.77508 5.13341 7.37508 5.34175 7.10841C5.55841 6.84175 5.95008 6.79175 6.21675 7.00841L8.82508 9.09175C9.45841 9.60008 10.5334 9.60008 11.1667 9.09175L13.7751 7.00841C14.0417 6.79175 14.4417 6.83341 14.6501 7.10841C14.8667 7.37508 14.8251 7.77508 14.5584 7.99175Z" fill="black"/>
</svg>
