<svg width="48" height="48" viewBox="0 0 48 48" fill="none" xmlns="http://www.w3.org/2000/svg">
<path d="M19.0584 15.6436H14.2384C13.4384 15.6436 12.6584 15.7036 11.8984 15.8636L13.8984 11.0636L13.9784 10.8836L14.0984 10.5636C14.1584 10.4236 14.1984 10.3036 14.2584 10.2036C16.5784 4.82357 19.1784 3.14357 23.8784 4.42357L19.0584 15.6436Z" fill="white"/>
<path d="M37.4222 16.1591C36.2222 15.8191 35.0022 15.6391 33.7622 15.6391H21.2422L25.7422 5.17906L25.8022 5.03906C26.0822 5.13906 26.3822 5.27906 26.6822 5.37906L31.1022 7.23906C33.5622 8.25906 35.2822 9.31906 36.3422 10.5991C36.5222 10.8391 36.6822 11.0591 36.8422 11.3191C37.0222 11.5991 37.1622 11.8791 37.2422 12.1791C37.3222 12.3591 37.3822 12.5191 37.4222 12.6991C37.7222 13.7191 37.7422 14.8791 37.4622 16.1791L37.4222 16.1591Z" fill="white"/>
<path fill-rule="evenodd" clip-rule="evenodd" d="M33.7566 18.6406H14.2366C12.8766 18.6406 11.5966 18.9006 10.3966 19.4206C6.91656 20.9206 4.47656 24.3806 4.47656 28.4006V32.3006C4.47656 32.7806 4.51656 33.2406 4.57656 33.7206C5.01656 40.0806 8.41656 43.4806 14.7766 43.9006C15.2366 43.9606 15.6966 44.0006 16.1966 44.0006H31.7966C39.1966 44.0006 43.0966 40.4806 43.4766 33.4806C43.4966 33.1006 43.5166 32.7006 43.5166 32.3006V28.4006C43.5166 23.9806 40.5766 20.2606 36.5766 19.0406C35.6766 18.7806 34.7366 18.6406 33.7566 18.6406ZM25.4966 32.3806V36.0006C25.4966 36.8206 24.8166 37.5006 23.9966 37.5006C23.1766 37.5006 22.4966 36.8206 22.4966 36.0006V32.3806H18.9966C18.1766 32.3806 17.4966 31.7206 17.4966 30.8806C17.4966 30.0606 18.1766 29.3806 18.9966 29.3806H22.4966V26.0006C22.4966 25.1806 23.1766 24.5006 23.9966 24.5006C24.8166 24.5006 25.4966 25.1806 25.4966 26.0006V29.3806H28.9966C29.8166 29.3806 30.4966 30.0606 30.4966 30.8806C30.4966 31.7206 29.8166 32.3806 28.9966 32.3806H25.4966Z" fill="white"/>
</svg>
