<svg width="20" height="20" viewBox="0 0 20 20" fill="none" xmlns="http://www.w3.org/2000/svg">
<path d="M7.89171 12.1084C7.35004 11.5667 7.01671 10.8251 7.01671 10.0001C7.01671 8.35006 8.35004 7.01672 10 7.01672C10.825 7.01672 11.5667 7.35006 12.1084 7.89172L7.89171 12.1084Z" stroke="black" stroke-opacity="0.6" stroke-width="1.5" stroke-linecap="round" stroke-linejoin="round"/>
<path d="M14.85 4.80828C13.3916 3.70828 11.725 3.10828 9.99998 3.10828C7.05831 3.10828 4.31664 4.84161 2.40831 7.84161C1.65831 9.01661 1.65831 10.9916 2.40831 12.1666C3.06664 13.1999 3.83331 14.0916 4.66664 14.8083" stroke="black" stroke-opacity="0.6" stroke-width="1.5" stroke-linecap="round" stroke-linejoin="round"/>
<path d="M7.01671 16.2751C7.96671 16.6751 8.97504 16.8917 10 16.8917C12.9417 16.8917 15.6834 15.1584 17.5917 12.1584C18.3417 10.9834 18.3417 9.0084 17.5917 7.8334C17.3167 7.40006 17.0167 6.99173 16.7084 6.6084" stroke="black" stroke-opacity="0.6" stroke-width="1.5" stroke-linecap="round" stroke-linejoin="round"/>
<path d="M12.925 10.5833C12.7083 11.7583 11.75 12.7166 10.575 12.9333" stroke="black" stroke-opacity="0.6" stroke-width="1.5" stroke-linecap="round" stroke-linejoin="round"/>
<path d="M7.89167 12.1084L1.66667 18.3334" stroke="black" stroke-opacity="0.6" stroke-width="1.5" stroke-linecap="round" stroke-linejoin="round"/>
<path d="M18.3334 1.66663L12.1084 7.89163" stroke="black" stroke-opacity="0.6" stroke-width="1.5" stroke-linecap="round" stroke-linejoin="round"/>
</svg>
