<svg width="48" height="48" viewBox="0 0 48 48" fill="none" xmlns="http://www.w3.org/2000/svg">
<path fill-rule="evenodd" clip-rule="evenodd" d="M12 6C7.58 6 4 9.56 4 13.94V34.06C4 38.44 7.58 42 12 42H36C40.42 42 44 38.44 44 34.06V13.94C44 9.56 40.42 6 36 6H12ZM21.62 18.96C21.62 21.5 19.54 23.58 17 23.58C14.46 23.58 12.38 21.5 12.38 18.96C12.38 16.42 14.46 14.34 17 14.34C19.54 14.34 21.62 16.42 21.62 18.96ZM24 33.64H10C9.72 33.64 9.44 33.52 9.26 33.32C9.08 33.12 8.98 32.84 9 32.56C9.34 29.2 12.02 26.54 15.38 26.22C16.44 26.12 17.54 26.12 18.6 26.22C21.96 26.54 24.66 29.2 24.98 32.56C25.02 32.84 24.92 33.12 24.74 33.32C24.56 33.52 24.28 33.64 24 33.64ZM34 33.5C33.18 33.5 32.5 32.82 32.5 32C32.5 31.18 33.18 30.5 34 30.5H38C38.82 30.5 39.5 31.18 39.5 32C39.5 32.82 38.82 33.5 38 33.5H34ZM30 25.5C29.18 25.5 28.5 24.82 28.5 24C28.5 23.18 29.18 22.5 30 22.5H38C38.82 22.5 39.5 23.18 39.5 24C39.5 24.82 38.82 25.5 38 25.5H30ZM28 17.5C27.18 17.5 26.5 16.82 26.5 16C26.5 15.18 27.18 14.5 28 14.5H38C38.82 14.5 39.5 15.18 39.5 16C39.5 16.82 38.82 17.5 38 17.5H28Z" fill="white"/>
</svg>
