<svg width="30" height="30" viewBox="0 0 30 30" fill="none" xmlns="http://www.w3.org/2000/svg">
<path d="M22.5 13.75H20C19.6458 13.75 19.349 13.6302 19.1094 13.3906C18.8698 13.151 18.75 12.8542 18.75 12.5C18.75 12.1458 18.8698 11.849 19.1094 11.6094C19.349 11.3698 19.6458 11.25 20 11.25H22.5V8.75C22.5 8.39583 22.6198 8.09896 22.8594 7.85938C23.099 7.61979 23.3958 7.5 23.75 7.5C24.1042 7.5 24.401 7.61979 24.6406 7.85938C24.8802 8.09896 25 8.39583 25 8.75V11.25H27.5C27.8542 11.25 28.151 11.3698 28.3906 11.6094C28.6302 11.849 28.75 12.1458 28.75 12.5C28.75 12.8542 28.6302 13.151 28.3906 13.3906C28.151 13.6302 27.8542 13.75 27.5 13.75H25V16.25C25 16.6042 24.8802 16.901 24.6406 17.1406C24.401 17.3802 24.1042 17.5 23.75 17.5C23.3958 17.5 23.099 17.3802 22.8594 17.1406C22.6198 16.901 22.5 16.6042 22.5 16.25V13.75ZM11.25 15C9.875 15 8.69792 14.5104 7.71875 13.5312C6.73958 12.5521 6.25 11.375 6.25 10C6.25 8.625 6.73958 7.44792 7.71875 6.46875C8.69792 5.48958 9.875 5 11.25 5C12.625 5 13.8021 5.48958 14.7812 6.46875C15.7604 7.44792 16.25 8.625 16.25 10C16.25 11.375 15.7604 12.5521 14.7812 13.5312C13.8021 14.5104 12.625 15 11.25 15ZM1.25 22.5V21.5C1.25 20.7917 1.43229 20.1406 1.79688 19.5469C2.16146 18.9531 2.64583 18.5 3.25 18.1875C4.54167 17.5417 5.85417 17.0573 7.1875 16.7344C8.52083 16.4115 9.875 16.25 11.25 16.25C12.625 16.25 13.9792 16.4115 15.3125 16.7344C16.6458 17.0573 17.9583 17.5417 19.25 18.1875C19.8542 18.5 20.3385 18.9531 20.7031 19.5469C21.0677 20.1406 21.25 20.7917 21.25 21.5V22.5C21.25 23.1875 21.0052 23.776 20.5156 24.2656C20.026 24.7552 19.4375 25 18.75 25H3.75C3.0625 25 2.47396 24.7552 1.98438 24.2656C1.49479 23.776 1.25 23.1875 1.25 22.5Z" fill="black"/>
</svg>
