<svg width="48" height="48" viewBox="0 0 48 48" fill="none" xmlns="http://www.w3.org/2000/svg">
<path d="M26 42V38H30V42H26ZM22 38V28H26V38H22ZM38 32V24H42V32H38ZM34 24V20H38V24H34ZM10 28V24H14V28H10ZM6 24V20H10V24H6ZM24 10V6H28V10H24ZM9 15H15V9H9V15ZM6 16V8C6 7.43333 6.19167 6.95833 6.575 6.575C6.95833 6.19167 7.43333 6 8 6H16C16.5667 6 17.0417 6.19167 17.425 6.575C17.8083 6.95833 18 7.43333 18 8V16C18 16.5667 17.8083 17.0417 17.425 17.425C17.0417 17.8083 16.5667 18 16 18H8C7.43333 18 6.95833 17.8083 6.575 17.425C6.19167 17.0417 6 16.5667 6 16ZM9 39H15V33H9V39ZM6 40V32C6 31.4333 6.19167 30.9583 6.575 30.575C6.95833 30.1917 7.43333 30 8 30H16C16.5667 30 17.0417 30.1917 17.425 30.575C17.8083 30.9583 18 31.4333 18 32V40C18 40.5667 17.8083 41.0417 17.425 41.425C17.0417 41.8083 16.5667 42 16 42H8C7.43333 42 6.95833 41.8083 6.575 41.425C6.19167 41.0417 6 40.5667 6 40ZM33 15H39V9H33V15ZM30 16V8C30 7.43333 30.1917 6.95833 30.575 6.575C30.9583 6.19167 31.4333 6 32 6H40C40.5667 6 41.0417 6.19167 41.425 6.575C41.8083 6.95833 42 7.43333 42 8V16C42 16.5667 41.8083 17.0417 41.425 17.425C41.0417 17.8083 40.5667 18 40 18H32C31.4333 18 30.9583 17.8083 30.575 17.425C30.1917 17.0417 30 16.5667 30 16ZM34 42V36H30V32H38V38H42V42H34ZM26 28V24H34V28H26ZM18 28V24H14V20H26V24H22V28H18ZM20 18V10H24V14H28V18H20ZM10.5 13.5V10.5H13.5V13.5H10.5ZM10.5 37.5V34.5H13.5V37.5H10.5ZM34.5 13.5V10.5H37.5V13.5H34.5Z" fill="black"/>
</svg>
