<svg width="48" height="48" viewBox="0 0 48 48" fill="none" xmlns="http://www.w3.org/2000/svg">
<path fill-rule="evenodd" clip-rule="evenodd" d="M42.9817 39.48C43.0217 40.02 42.7617 40.38 42.6217 40.54C42.4617 40.72 42.1217 41 41.5617 41H36.1017L40.4217 19.7H41.8017L42.9817 39.48ZM43.9817 12.04C44.0217 12.52 43.9817 13.02 43.8617 13.52L29.1217 40.58C28.6417 42.6 26.8417 44 24.7617 44H41.5617C44.1417 44 46.1817 41.82 45.9817 39.24L44.0017 12L43.9817 12.04Z" fill="white"/>
<path d="M21.8005 2.66273C21.0005 2.48273 20.1805 2.96273 19.9805 3.76273L18.9805 7.90273H22.0605L22.9005 4.48273C23.1005 3.68273 22.6005 2.86273 21.8005 2.66273Z" fill="white"/>
<path d="M34.9417 2.63718C34.1417 2.45718 33.3417 2.97718 33.1617 3.79718L32.2617 7.93718H35.3417L36.1017 4.41718C36.2817 3.59718 35.7617 2.81718 34.9417 2.63718Z" fill="white"/>
<path fill-rule="evenodd" clip-rule="evenodd" d="M39.4995 7.92281H35.3395L34.2195 13.1028C34.0595 13.8028 33.4395 14.2828 32.7595 14.2828C32.6595 14.2828 32.5395 14.2828 32.4395 14.2428C31.6395 14.0628 31.1195 13.2628 31.2795 12.4628L32.2595 7.90281H22.0595L20.7995 13.1028C20.6395 13.7828 20.0195 14.2428 19.3395 14.2428C19.2195 14.2428 19.0995 14.2228 18.9795 14.2028C18.1795 14.0028 17.6795 13.2028 17.8795 12.3828L18.9595 7.88281H14.8995C12.9395 7.88281 11.1995 9.16281 10.6195 11.0428L2.19951 38.1428C1.31951 41.0428 3.45951 44.0028 6.47951 44.0028H32.7595C34.8395 44.0028 36.6395 42.6028 37.1195 40.5828L43.8595 13.5228C43.9795 13.0228 44.0195 12.5228 43.9795 12.0428C43.9395 11.5628 43.8395 11.0828 43.6395 10.6628C42.9795 9.06281 41.4195 7.92281 39.4995 7.92281ZM13.3995 33.5028C12.5795 33.5028 11.8995 32.8228 11.8995 32.0028C11.8995 31.1828 12.5795 30.5028 13.3995 30.5028H29.3995C30.2195 30.5028 30.8995 31.1828 30.8995 32.0028C30.8995 32.8228 30.2195 33.5028 29.3995 33.5028H13.3995ZM15.3995 25.5028C14.5795 25.5028 13.8995 24.8228 13.8995 24.0028C13.8995 23.1828 14.5795 22.5028 15.3995 22.5028H31.3995C32.2195 22.5028 32.8995 23.1828 32.8995 24.0028C32.8995 24.8228 32.2195 25.5028 31.3995 25.5028H15.3995Z" fill="white"/>
</svg>
