<svg width="280" height="194" viewBox="0 0 280 194" fill="none" xmlns="http://www.w3.org/2000/svg">
<path d="M280 188.307C280 188.394 217.316 188.468 140 188.468C62.6841 188.468 0 188.394 0 188.307C0 188.221 62.6717 188.146 140 188.146C217.328 188.146 280 188.221 280 188.307Z" fill="#263238"/>
<path d="M192.432 57.4073L189.954 56.8931C187.743 56.2303 186.491 55.9453 185.977 55.2205C185.296 54.248 186.597 53.6904 186.597 53.6904C186.597 53.6904 185.073 52.8046 185.426 51.832C185.513 51.6392 185.658 51.4788 185.842 51.3741C186.026 51.2695 186.238 51.2259 186.448 51.2497C186.448 51.2497 185.122 50.4011 184.955 49.7444C184.726 48.8524 185.829 48.617 185.829 48.617C184.106 47.0188 184.522 45.8542 184.999 45.8294C185.475 45.8046 186.857 46.802 186.857 46.802C188.096 47.4214 191.391 49.1993 190.468 46.994C189.545 44.7887 189.663 42.7506 190.078 42.2179C190.188 42.1043 190.33 42.0283 190.486 42.0005C190.641 41.9728 190.801 41.9949 190.943 42.0635C191.086 42.1322 191.202 42.244 191.277 42.3829C191.352 42.5219 191.381 42.6809 191.36 42.8373C191.415 43.6427 191.58 44.4367 191.85 45.1975C192.046 45.8156 192.345 46.3958 192.736 46.9135C193.194 47.5329 193.603 48.0099 193.975 48.4188L195.765 50.9834L192.432 57.4073Z" fill="#FFBE9D"/>
<path d="M182.892 185.829L185.023 181.332L193.473 185.272L190.425 191.882L189.886 191.671C187.495 190.711 177.794 186.635 176.456 185.433C174.963 184.095 182.892 185.829 182.892 185.829Z" fill="#1C1C1C"/>
<g opacity="0.3">
<path d="M187.39 190.383C187.848 189.729 188.532 189.268 189.31 189.088C190.075 188.898 190.883 189.006 191.571 189.391L190.468 191.752L187.39 190.383Z" fill="white"/>
</g>
<g opacity="0.3">
<path d="M178.959 185.105C178.959 185.105 176.109 184.659 176.227 185.222C176.344 185.786 185.996 190.271 190.425 191.882L190.499 191.683L179.2 186.542C179.2 186.542 179.442 185.377 178.959 185.105Z" fill="white"/>
</g>
<path d="M190.63 191.739L190.481 191.69L190.053 191.522L188.486 190.872C187.167 190.314 185.352 189.521 183.376 188.598C181.399 187.675 179.615 186.808 178.339 186.158L176.834 185.377L176.431 185.16L176.289 185.08C176.341 185.093 176.391 185.114 176.438 185.142L176.853 185.34L178.376 186.09C179.659 186.709 181.443 187.576 183.419 188.499C185.395 189.422 187.204 190.221 188.517 190.798L190.066 191.479L190.487 191.665L190.63 191.739Z" fill="#263238"/>
<path d="M179.145 186.672C179.192 186.388 179.209 186.099 179.194 185.811C179.143 185.524 179.06 185.243 178.946 184.975C179.144 185.206 179.269 185.491 179.304 185.793C179.34 186.095 179.284 186.401 179.145 186.672Z" fill="#263238"/>
<path d="M182.198 186.573C182.126 186.432 182.086 186.278 182.081 186.121C182.044 185.97 182.044 185.813 182.081 185.662C182.081 185.662 182.161 185.854 182.192 186.108C182.233 186.26 182.235 186.42 182.198 186.573Z" fill="#263238"/>
<path d="M183.078 186.53C183.047 186.53 182.954 186.387 182.867 186.189C182.78 185.991 182.737 185.823 182.768 185.811C182.799 185.799 182.892 185.947 182.972 186.146C183.04 186.262 183.076 186.395 183.078 186.53Z" fill="#263238"/>
<path d="M183.877 185.929C183.877 185.96 183.66 185.892 183.412 185.78C183.256 185.728 183.113 185.644 182.991 185.532C182.991 185.501 183.214 185.569 183.456 185.681C183.612 185.733 183.756 185.817 183.877 185.929Z" fill="#263238"/>
<path d="M184.292 185.439C184.1 185.468 183.903 185.438 183.728 185.352C183.544 185.301 183.38 185.196 183.258 185.049C183.435 185.099 183.607 185.165 183.772 185.247C183.95 185.296 184.124 185.361 184.292 185.439Z" fill="#263238"/>
<path d="M182.279 185.699C182.086 185.646 181.904 185.56 181.74 185.445C181.554 185.331 181.38 185.198 181.22 185.049C181.122 184.962 181.035 184.864 180.959 184.758C180.912 184.691 180.893 184.609 180.904 184.528C180.912 184.484 180.933 184.443 180.965 184.411C180.997 184.378 181.039 184.357 181.083 184.349C181.247 184.347 181.409 184.382 181.557 184.45C181.706 184.518 181.838 184.618 181.944 184.742C182.05 184.867 182.127 185.014 182.17 185.172C182.213 185.329 182.22 185.495 182.192 185.656C182.185 185.711 182.166 185.764 182.136 185.811C182.157 185.616 182.146 185.42 182.105 185.228C182.048 185.031 181.936 184.853 181.783 184.714C181.695 184.629 181.59 184.562 181.475 184.517C181.36 184.472 181.237 184.451 181.114 184.454C180.997 184.454 180.984 184.597 181.052 184.702C181.125 184.801 181.208 184.893 181.3 184.974C181.453 185.121 181.617 185.255 181.789 185.377C182.081 185.588 182.285 185.681 182.279 185.699Z" fill="#263238"/>
<path d="M182.124 185.662C182.114 185.516 182.156 185.372 182.242 185.253C182.325 185.121 182.437 185.008 182.57 184.925C182.655 184.868 182.752 184.832 182.853 184.821C182.955 184.81 183.058 184.825 183.152 184.863C183.201 184.901 183.233 184.956 183.243 185.017C183.252 185.078 183.237 185.141 183.202 185.191C183.15 185.273 183.08 185.34 182.998 185.39C182.871 185.478 182.734 185.549 182.589 185.6C182.458 185.659 182.316 185.684 182.174 185.675C182.174 185.675 182.329 185.625 182.558 185.526C182.692 185.468 182.819 185.393 182.936 185.303C183.066 185.222 183.214 185.043 183.09 184.956C182.967 184.869 182.756 184.956 182.626 185.018C182.5 185.088 182.391 185.183 182.304 185.297C182.237 185.415 182.177 185.537 182.124 185.662Z" fill="#263238"/>
<path d="M191.534 189.348C191.534 189.348 191.304 189.212 190.914 189.082C190.39 188.909 189.829 188.883 189.291 189.007C188.757 189.145 188.269 189.423 187.879 189.813C187.581 190.116 187.458 190.352 187.439 190.345C187.454 190.283 187.481 190.224 187.519 190.172C187.604 190.022 187.706 189.883 187.823 189.757C188.208 189.333 188.711 189.034 189.266 188.896C189.823 188.765 190.405 188.804 190.939 189.007C191.099 189.065 191.253 189.14 191.397 189.23C191.49 189.299 191.54 189.342 191.534 189.348Z" fill="#263238"/>
<path d="M192.296 185.427C192.09 186.03 191.845 186.62 191.565 187.192C191.318 187.784 191.036 188.361 190.722 188.921C190.935 188.317 191.181 187.725 191.46 187.149C191.706 186.56 191.985 185.985 192.296 185.427Z" fill="#263238"/>
<path d="M186.708 189.094C186.262 188.995 185.829 188.843 185.419 188.642C184.997 188.466 184.597 188.239 184.23 187.967C184.23 187.936 184.781 188.227 185.469 188.537C186.157 188.846 186.72 189.038 186.708 189.094Z" fill="#263238"/>
<path d="M188.393 189.837C188.393 189.837 188.294 189.93 188.176 190.03C188.058 190.129 187.978 190.228 187.953 190.215C187.928 190.203 187.953 190.06 188.102 189.943C188.251 189.825 188.393 189.807 188.393 189.837Z" fill="#263238"/>
<path d="M189.353 189.348C189.353 189.348 189.266 189.441 189.142 189.491C189.019 189.54 188.901 189.553 188.888 189.522C188.876 189.491 188.975 189.429 189.099 189.385C189.223 189.342 189.341 189.317 189.353 189.348Z" fill="#263238"/>
<path d="M190.413 189.41C190.413 189.41 190.282 189.379 190.134 189.367C189.985 189.354 189.874 189.367 189.861 189.367C189.849 189.367 189.973 189.255 190.146 189.274C190.32 189.292 190.431 189.385 190.413 189.41Z" fill="#263238"/>
<path d="M191.125 189.54C191.125 189.54 191.057 189.59 190.97 189.583C190.883 189.577 190.821 189.546 190.827 189.515C190.834 189.484 190.895 189.466 190.982 189.472C191.069 189.478 191.125 189.509 191.125 189.54Z" fill="#263238"/>
<path d="M254.162 188.289L252.056 183.779L260.474 179.802L263.627 186.362L263.119 186.647C260.858 187.886 251.535 192.749 249.758 193.015C247.775 193.294 254.162 188.289 254.162 188.289Z" fill="#1C1C1C"/>
<g opacity="0.3">
<path d="M260.543 187.725C260.326 186.956 260.406 186.134 260.766 185.421C261.11 184.715 261.707 184.165 262.438 183.878L263.559 186.226L260.543 187.725Z" fill="white"/>
</g>
<g opacity="0.3">
<path d="M251.102 190.86C251.102 190.86 248.94 192.774 249.448 193.04C249.956 193.307 259.564 188.704 263.628 186.344L263.522 186.164L252.372 191.591C252.372 191.591 251.579 190.649 251.102 190.86Z" fill="white"/>
</g>
<path d="M263.652 186.096L263.516 186.176L263.113 186.399L261.614 187.192C260.344 187.855 258.579 188.747 256.603 189.67C254.627 190.593 252.83 191.417 251.517 191.987L249.956 192.656L249.528 192.83L249.38 192.879L249.522 192.805L249.937 192.613L251.486 191.919C252.787 191.33 254.583 190.507 256.559 189.565C258.535 188.623 260.276 187.75 261.577 187.087L263.088 186.325L263.504 186.121C263.552 186.107 263.602 186.099 263.652 186.096Z" fill="#263238"/>
<path d="M252.427 191.721C252.244 191.492 252.037 191.284 251.808 191.101C251.555 190.959 251.287 190.845 251.009 190.761C251.314 190.756 251.614 190.842 251.87 191.009C252.126 191.176 252.327 191.415 252.446 191.696L252.427 191.721Z" fill="#263238"/>
<path d="M254.311 189.28C254.311 189.28 254.106 189.218 253.89 189.082C253.673 188.946 253.512 188.815 253.53 188.791C253.549 188.766 253.735 188.853 253.952 188.989C254.168 189.125 254.323 189.255 254.311 189.28Z" fill="#263238"/>
<path d="M254.819 188.592C254.819 188.623 254.633 188.592 254.429 188.536C254.224 188.481 254.063 188.4 254.069 188.369C254.202 188.358 254.336 188.379 254.46 188.431C254.676 188.474 254.825 188.561 254.819 188.592Z" fill="#263238"/>
<path d="M254.874 187.595C254.874 187.626 254.701 187.744 254.459 187.861C254.218 187.979 254.013 188.053 253.995 188.022C254.112 187.905 254.254 187.814 254.41 187.756C254.676 187.638 254.856 187.564 254.874 187.595Z" fill="#263238"/>
<path d="M254.75 186.963C254.75 186.963 254.608 187.186 254.329 187.341C254.17 187.449 253.983 187.509 253.79 187.514C254.113 187.336 254.433 187.152 254.75 186.963Z" fill="#263238"/>
<path d="M253.673 188.679C253.51 188.796 253.328 188.882 253.134 188.933C252.933 189.003 252.725 189.053 252.514 189.082C252.383 189.098 252.25 189.098 252.118 189.082C252.077 189.079 252.038 189.069 252.002 189.051C251.966 189.033 251.933 189.007 251.907 188.976C251.883 188.938 251.87 188.894 251.87 188.849C251.87 188.804 251.883 188.76 251.907 188.722C252.067 188.523 252.29 188.385 252.54 188.332C252.789 188.279 253.05 188.314 253.276 188.431C253.409 188.5 253.527 188.595 253.623 188.71C253.66 188.749 253.687 188.796 253.704 188.846C253.57 188.707 253.412 188.592 253.239 188.506C253.046 188.416 252.83 188.388 252.62 188.425C252.499 188.439 252.381 188.477 252.275 188.536C252.169 188.596 252.075 188.676 252 188.772C251.944 188.877 252 188.964 252.149 188.976C252.27 188.989 252.393 188.989 252.514 188.976C252.724 188.955 252.931 188.915 253.134 188.859C253.437 188.76 253.667 188.667 253.673 188.679Z" fill="#263238"/>
<path d="M253.548 188.772C253.548 188.772 253.394 188.685 253.307 188.425C253.256 188.276 253.241 188.116 253.263 187.96C253.273 187.858 253.307 187.76 253.363 187.675C253.419 187.59 253.496 187.52 253.586 187.471C253.646 187.458 253.71 187.468 253.763 187.501C253.816 187.533 253.854 187.584 253.871 187.644C253.891 187.738 253.891 187.835 253.871 187.929C253.856 188.082 253.82 188.232 253.765 188.375C253.678 188.623 253.573 188.753 253.561 188.741C253.548 188.728 253.623 188.592 253.691 188.351C253.731 188.211 253.756 188.068 253.765 187.923C253.765 187.768 253.734 187.539 253.592 187.582C253.449 187.626 253.375 187.836 253.344 187.979C253.312 188.12 253.312 188.266 253.344 188.406C253.397 188.536 253.466 188.659 253.548 188.772Z" fill="#263238"/>
<path d="M262.382 183.872C262.382 183.872 262.134 183.965 261.763 184.194C261.3 184.48 260.926 184.89 260.685 185.377C260.447 185.874 260.351 186.427 260.406 186.975C260.449 187.403 260.549 187.651 260.53 187.657C260.494 187.604 260.467 187.545 260.449 187.483C260.39 187.323 260.348 187.157 260.326 186.988C260.245 186.422 260.333 185.844 260.58 185.328C260.829 184.807 261.231 184.375 261.732 184.089C261.88 184.001 262.038 183.931 262.203 183.878C262.262 183.866 262.322 183.864 262.382 183.872Z" fill="#263238"/>
<path d="M259.849 180.787C260.177 181.334 260.475 181.898 260.741 182.478C261.039 183.044 261.304 183.628 261.534 184.225C261.205 183.677 260.907 183.11 260.642 182.528C260.34 181.965 260.075 181.384 259.849 180.787Z" fill="#263238"/>
<path d="M259.093 187.409C258.735 187.694 258.341 187.932 257.922 188.115C257.52 188.334 257.091 188.499 256.646 188.605C256.646 188.605 257.197 188.345 257.885 188.016C258.573 187.688 259.074 187.384 259.093 187.409Z" fill="#263238"/>
<path d="M260.741 186.616C260.741 186.616 260.741 186.759 260.741 186.907C260.741 187.056 260.772 187.186 260.741 187.199C260.71 187.211 260.629 187.087 260.629 186.914C260.629 186.74 260.71 186.616 260.741 186.616Z" fill="#263238"/>
<path d="M260.995 185.557C261.026 185.557 260.995 185.681 260.964 185.811C260.933 185.941 260.859 186.034 260.834 186.028C260.809 186.022 260.834 185.904 260.834 185.774C260.834 185.644 260.964 185.545 260.995 185.557Z" fill="#263238"/>
<path d="M261.713 184.758C261.713 184.789 261.608 184.845 261.509 184.944C261.41 185.043 261.348 185.154 261.317 185.148C261.286 185.142 261.317 184.987 261.429 184.863C261.54 184.739 261.713 184.758 261.713 184.758Z" fill="#263238"/>
<path d="M262.271 184.312C262.271 184.312 262.271 184.398 262.209 184.46C262.147 184.522 262.085 184.547 262.061 184.529C262.036 184.51 262.061 184.442 262.122 184.38C262.184 184.318 262.246 184.287 262.271 184.312Z" fill="#263238"/>
<path d="M264.006 182.02L250.377 188.357L225.871 144.728C222.681 133.218 219.602 92.6923 219.602 92.6923L237.331 94.0427C237.331 94.0427 240.063 123.158 244.344 138.124L264.006 182.02Z" fill="#263238"/>
<path d="M248.196 184.089C248.196 184.089 248.37 183.959 248.71 183.779C249.051 183.599 249.553 183.345 250.172 183.042C251.411 182.422 253.14 181.611 255.054 180.719C256.968 179.827 258.702 179.04 259.966 178.489C260.586 178.21 261.118 177.987 261.472 177.869C261.652 177.778 261.843 177.711 262.041 177.671C261.886 177.798 261.713 177.903 261.527 177.981C261.18 178.16 260.685 178.414 260.065 178.718C258.826 179.337 257.098 180.149 255.19 181.041C253.282 181.933 251.541 182.714 250.272 183.271C249.652 183.55 249.125 183.773 248.766 183.89C248.586 183.983 248.395 184.05 248.196 184.089Z" fill="#455A64"/>
<path d="M245.384 76.3816C245.719 76.3816 249.343 87.117 245.855 94.2347C245.502 94.9471 242.758 98.8683 242.758 98.8683C233.106 110.254 223.331 132.32 220.606 138.136C215.03 150.036 194.365 189.181 194.365 189.181L181.108 181.592L200.491 131.756L218.084 86.7825L245.384 76.3816Z" fill="#263238"/>
<path d="M221.485 122.427C221.485 122.427 220.55 126.955 220.066 126.695C218.685 125.945 209.188 122.408 209.188 122.408L211.753 119.565L221.485 122.427Z" fill="#455A64"/>
<path d="M218.685 125.945C218.685 125.945 216.907 133.249 214.621 132.853C212.335 132.456 207.559 130.053 207.559 130.053L210.44 122.848L218.685 125.945Z" fill="#455A64"/>
<path d="M220.066 126.695L209.467 122.458L209.975 124.013L218.369 127.085L220.066 126.695Z" fill="#263238"/>
<path d="M238.465 104.598C238.42 104.697 238.362 104.789 238.292 104.871L237.746 105.608C237.276 106.228 236.607 107.194 235.832 108.39C234.277 110.781 232.32 114.2 230.319 118.066C228.318 121.931 226.602 125.499 225.394 128.064L223.938 131.118L223.536 131.942C223.493 132.041 223.439 132.134 223.375 132.221C223.395 132.115 223.428 132.013 223.474 131.917L223.827 131.068C224.137 130.331 224.601 129.272 225.184 127.971C226.361 125.369 228.021 121.776 230.034 117.917C231.711 114.598 233.572 111.376 235.609 108.266C236.415 107.082 237.108 106.153 237.616 105.534C237.852 105.249 238.05 105.02 238.236 104.834C238.302 104.746 238.379 104.667 238.465 104.598Z" fill="#455A64"/>
<path d="M182.118 179.269C182.155 179.195 185.283 180.682 189.105 182.596C192.928 184.51 195.988 186.133 195.92 186.214C195.851 186.294 192.754 184.801 188.932 182.887C185.11 180.973 182.081 179.35 182.118 179.269Z" fill="#455A64"/>
<path d="M197.871 50.7234C197.152 52.346 196.337 53.9243 195.43 55.4499C194.618 57.0292 193.708 58.5561 192.705 60.0216C193.425 58.3976 194.24 56.8173 195.145 55.2889C195.962 53.7142 196.873 52.1897 197.871 50.7234Z" fill="#263238"/>
<path d="M222.916 31.8728C223.641 31.8728 224.502 37.1383 225.233 46.5976C226.063 57.3268 225.989 68.1551 223.021 74.9631C222.747 75.69 222.333 76.3558 221.801 76.9223C221.27 77.4888 220.632 77.9451 219.924 78.2648C212.243 81.4365 191.051 58.7144 191.051 58.7144L196.266 49.5648L211.189 61.6135C211.189 61.6135 212.676 49.4224 212.391 43.8038C212.162 39.5418 216.418 31.9224 222.916 31.8728Z" fill="#455A64"/>
<path d="M229.519 31.9781C229.519 31.9781 242.479 33.8737 245.83 38.9658C249.181 44.0578 247.484 88.9693 247.484 88.9693L214.169 90.9392C214.169 90.9392 216.857 33.7746 218.505 33.1242C222.643 31.5012 229.024 31.8171 229.519 31.9781Z" fill="#455A64"/>
<path d="M176.183 20.1526C176.086 18.7898 176.34 17.4249 176.92 16.188C177.177 15.6589 177.313 15.0789 177.317 14.4907V12.9854H157.897C157.106 12.9854 156.348 13.2993 155.79 13.8581C155.231 14.4169 154.917 15.1748 154.917 15.965V35.3048H153.604C152.997 35.2991 152.399 35.155 151.857 34.8836C150.639 34.2975 149.294 34.027 147.945 34.0971C146.596 34.1672 145.286 34.5755 144.136 35.2846C142.986 35.9937 142.033 36.9807 141.365 38.1547C140.696 39.3288 140.334 40.6521 140.311 42.0029C140.288 43.3537 140.605 44.6886 141.234 45.8846C141.862 47.0806 142.781 48.0993 143.906 48.8469C145.032 49.5946 146.327 50.0471 147.673 50.1628C149.019 50.2786 150.373 50.0538 151.609 49.5092C152.121 49.2764 152.676 49.1539 153.238 49.15H154.942V68.0066C154.941 68.3984 155.017 68.7865 155.167 69.1488C155.316 69.511 155.535 69.8402 155.812 70.1175C156.089 70.3949 156.418 70.6149 156.78 70.765C157.142 70.9152 157.529 70.9924 157.921 70.9924H210.384C211.028 70.9924 211.646 70.7366 212.101 70.2812C212.557 69.8258 212.812 69.2081 212.812 68.5641V15.4137C212.813 15.0946 212.751 14.7784 212.629 14.4834C212.508 14.1884 212.329 13.9204 212.103 13.6948C211.877 13.4691 211.609 13.2903 211.314 13.1685C211.019 13.0468 210.703 12.9845 210.384 12.9854H191.428V15.1349C191.426 15.6322 191.523 16.1249 191.713 16.5845C192.157 17.6651 192.36 18.8294 192.309 19.9964C192.258 21.1635 191.953 22.3054 191.416 23.3429C190.88 24.3805 190.123 25.2889 189.201 26.005C188.278 26.7212 187.21 27.228 186.072 27.4903C184.933 27.7525 183.751 27.764 182.608 27.5239C181.465 27.2838 180.388 26.7978 179.451 26.0997C178.514 25.4016 177.741 24.5081 177.184 23.4812C176.627 22.4542 176.301 21.3184 176.227 20.1526H176.183Z" fill="#1C1C1C"/>
<path d="M216.431 41.5305C216.45 41.6535 216.46 41.7777 216.461 41.9022C216.461 42.1872 216.461 42.5217 216.461 42.9739C216.461 43.9464 216.462 45.2845 216.511 46.9137C216.511 50.2403 216.567 54.8367 216.461 59.9226C216.356 65.0084 216.077 69.5987 215.737 72.9314C215.563 74.5916 215.396 75.9234 215.26 76.8464C215.192 77.2801 215.136 77.627 215.086 77.9057C215.077 78.0308 215.05 78.1539 215.006 78.2712C214.997 78.1475 214.997 78.0233 215.006 77.8995C215.037 77.6208 215.068 77.2801 215.117 76.8341C215.21 75.9049 215.346 74.5668 215.489 72.9128C215.774 69.5987 216.028 65.0146 216.108 59.9411C216.189 54.8677 216.208 50.2774 216.251 46.9323C216.251 45.3031 216.294 43.965 216.307 42.9925C216.307 42.5588 216.307 42.1995 216.338 41.9208C216.351 41.7871 216.382 41.6558 216.431 41.5305Z" fill="#263238"/>
<path d="M236.247 10.8049C235.714 14.1872 235.745 17.1545 237.399 19.3598C237.758 19.7839 238.089 20.2309 238.39 20.6979C238.54 20.9328 238.639 21.1958 238.683 21.4707C238.727 21.7455 238.713 22.0265 238.644 22.2961C238.568 22.5352 238.429 22.7496 238.242 22.9171C238.054 23.0846 237.826 23.1991 237.58 23.249C237.334 23.2989 237.079 23.2822 236.841 23.2007C236.604 23.1192 236.392 22.9759 236.228 22.7855C236.282 23.1681 236.221 23.558 236.052 23.9055C235.883 24.253 235.615 24.5424 235.281 24.7368C235.11 24.8153 234.924 24.854 234.736 24.8499C234.548 24.8458 234.363 24.799 234.196 24.713C234.029 24.6271 233.884 24.5042 233.771 24.3538C233.659 24.2034 233.582 24.0293 233.546 23.8448C233.546 23.8448 233.986 25.5607 232.016 25.2943L233.404 13.5244L236.247 10.8049Z" fill="#263238"/>
<path d="M227.419 36.8223C226.651 36.8223 225.891 36.6606 225.189 36.3479C224.487 36.0351 223.859 35.5783 223.345 35.007C222.831 34.4358 222.442 33.7628 222.205 33.0318C221.968 32.3008 221.887 31.5282 221.968 30.7639C222.148 29.0046 222.309 27.5737 222.309 27.5737C222.309 27.5737 217.973 26.8984 217.917 22.5622C217.861 18.2259 218.617 8.27102 218.617 8.27102C221.082 7.21295 223.785 6.83195 226.446 7.16735C229.107 7.50276 231.631 8.54241 233.757 10.179L234.376 10.6684L232.871 31.7303C232.772 33.1103 232.156 34.402 231.145 35.3464C230.134 36.2908 228.803 36.818 227.419 36.8223Z" fill="#FFBE9D"/>
<path d="M219.732 16.1014C219.821 16.0184 219.884 15.9109 219.912 15.7925C219.941 15.674 219.934 15.5497 219.892 15.4352C219.85 15.3208 219.775 15.2212 219.677 15.1489C219.579 15.0766 219.462 15.0349 219.34 15.0289C219.218 15.023 219.098 15.053 218.993 15.1154C218.888 15.1777 218.804 15.2696 218.752 15.3794C218.699 15.4893 218.68 15.6122 218.696 15.7329C218.713 15.8536 218.765 15.9667 218.846 16.058C218.901 16.1199 218.967 16.1703 219.042 16.206C219.116 16.2418 219.197 16.2624 219.28 16.2664C219.362 16.2704 219.445 16.2579 219.522 16.2296C219.6 16.2012 219.671 16.1576 219.732 16.1014Z" fill="#263238"/>
<path d="M218.53 14.732C218.598 14.8064 219.026 14.478 219.621 14.478C220.215 14.478 220.655 14.7816 220.717 14.7072C220.779 14.6329 220.686 14.54 220.494 14.3913C220.24 14.2077 219.934 14.112 219.621 14.1187C219.307 14.1187 219.001 14.2185 218.747 14.4037C218.561 14.5648 218.499 14.701 218.53 14.732Z" fill="#263238"/>
<path d="M225.412 15.6427C225.341 15.6847 225.279 15.7405 225.23 15.8068C225.181 15.8732 225.145 15.9487 225.126 16.0289C225.106 16.1091 225.103 16.1924 225.116 16.274C225.129 16.3556 225.158 16.4337 225.202 16.5038C225.244 16.5757 225.3 16.6385 225.367 16.6883C225.433 16.738 225.51 16.7738 225.591 16.7935C225.671 16.8132 225.756 16.8163 225.838 16.8027C225.92 16.7891 225.999 16.7591 226.069 16.7144C226.14 16.6719 226.203 16.6154 226.252 16.5484C226.301 16.4813 226.336 16.4051 226.355 16.3241C226.374 16.2432 226.377 16.1593 226.363 16.0773C226.349 15.9954 226.318 15.9171 226.273 15.8471C226.231 15.7765 226.175 15.7151 226.108 15.6665C226.042 15.6179 225.966 15.583 225.886 15.564C225.806 15.545 225.722 15.5421 225.641 15.5556C225.56 15.5691 225.482 15.5987 225.412 15.6427Z" fill="#263238"/>
<path d="M225.016 15.2587C225.084 15.3331 225.511 15.0047 226.106 15.0047C226.701 15.0047 227.141 15.3083 227.203 15.2339C227.265 15.1596 227.165 15.0667 226.98 14.918C226.724 14.7335 226.415 14.6378 226.1 14.6454C225.786 14.6458 225.481 14.7504 225.233 14.9428C225.047 15.0915 224.985 15.2277 225.016 15.2587Z" fill="#263238"/>
<path d="M222.625 20.1836C222.316 20.0655 221.989 19.9965 221.659 19.9792C221.504 19.9792 221.38 19.9296 221.368 19.8429C221.361 19.6866 221.4 19.5317 221.479 19.3969L221.95 18.1579C222.4 17.1326 222.742 16.0635 222.972 14.9677C222.423 15.9526 221.975 16.9903 221.634 18.065C221.479 18.4862 221.33 18.8889 221.188 19.3039C221.084 19.504 221.053 19.7341 221.101 19.9544C221.123 20.0137 221.158 20.067 221.205 20.1101C221.251 20.1531 221.307 20.1847 221.368 20.2022C221.455 20.2246 221.544 20.2371 221.634 20.2393C221.965 20.2777 222.3 20.2589 222.625 20.1836Z" fill="#263238"/>
<path d="M224.564 20.8463C225.183 20.4746 222.848 21.7569 221.634 21.695C221.836 22.0084 222.138 22.2439 222.492 22.3632C222.845 22.4825 223.228 22.4784 223.579 22.3516C224.88 21.8746 224.564 20.8463 224.564 20.8463Z" fill="white"/>
<path d="M222.272 27.5117C224.273 27.5489 226.24 26.9881 227.921 25.9011C227.921 25.9011 226.583 28.9985 222.259 28.633L222.272 27.5117Z" fill="#EB996E"/>
<path d="M234.376 14.8685C234.469 14.8376 237.61 14.6208 237.089 18.2756C236.569 21.9305 233.05 20.196 233.057 20.0907C233.063 19.9853 234.376 14.8685 234.376 14.8685Z" fill="#FFBE9D"/>
<path d="M234.357 18.9694C234.357 18.9694 234.413 19.0252 234.518 19.0871C234.588 19.131 234.665 19.1608 234.746 19.1746C234.827 19.1884 234.909 19.1861 234.989 19.1677C235.247 19.051 235.469 18.8678 235.632 18.637C235.795 18.4062 235.894 18.1361 235.918 17.8544C235.976 17.5434 235.962 17.2232 235.875 16.919C235.857 16.8001 235.81 16.6873 235.739 16.5903C235.668 16.4932 235.574 16.4148 235.466 16.3615C235.395 16.3303 235.316 16.3257 235.242 16.3485C235.168 16.3712 235.105 16.4198 235.063 16.4854C235.002 16.5783 235.014 16.6526 234.989 16.6588C234.964 16.665 234.921 16.5845 234.989 16.442C235.021 16.3519 235.085 16.2768 235.169 16.2314C235.223 16.1993 235.284 16.1789 235.347 16.1714C235.41 16.1639 235.474 16.1696 235.534 16.188C235.679 16.2453 235.807 16.3394 235.905 16.461C236.003 16.5827 236.067 16.7277 236.092 16.8818C236.205 17.2189 236.23 17.5791 236.166 17.9287C236.139 18.2572 236.015 18.5703 235.81 18.8283C235.605 19.0863 235.328 19.2777 235.014 19.3783C234.912 19.3923 234.807 19.3834 234.709 19.3523C234.61 19.3213 234.52 19.2688 234.444 19.1986C234.351 19.0562 234.345 18.9756 234.357 18.9694Z" fill="#EB996E"/>
<path d="M217.452 7.85605C217.516 7.48789 217.722 7.15952 218.026 6.94168C218.329 6.72385 218.706 6.63399 219.075 6.69146C218.826 6.67008 218.585 6.59155 218.371 6.46197C218.157 6.3324 217.976 6.15525 217.841 5.94427C217.706 5.73329 217.622 5.49415 217.595 5.2454C217.568 4.99665 217.598 4.74498 217.684 4.50989C217.77 4.27481 217.909 4.06265 218.09 3.88985C218.271 3.71705 218.489 3.58826 218.728 3.51348C218.966 3.43869 219.219 3.41991 219.466 3.4586C219.714 3.4973 219.949 3.59242 220.153 3.73659C219.665 3.27806 219.277 2.72333 219.013 2.10738C218.881 1.79245 218.85 1.44382 218.925 1.11049C219.001 0.777159 219.179 0.475876 219.435 0.248975C219.717 0.0858655 220.038 0 220.364 0C220.69 0 221.011 0.0858655 221.293 0.248975C222.185 0.701187 222.86 1.51889 223.771 1.90297C224.682 2.28704 225.753 2.19412 226.763 2.29943C227.885 2.39098 228.95 2.83551 229.805 3.56933C230.23 3.93531 230.564 4.39615 230.779 4.91476C230.995 5.43336 231.085 5.99524 231.044 6.55517C232.413 6.47464 233.912 6.55517 234.971 7.40384C234.891 6.85198 234.959 6.28871 235.168 5.77169C235.376 5.25466 235.719 4.80246 236.16 4.46137C236.723 4.07003 237.376 3.82928 238.059 3.76205C238.741 3.69482 239.429 3.80335 240.057 4.0773C240.355 4.17885 240.628 4.34151 240.86 4.55485C241.091 4.76819 241.276 5.02753 241.401 5.31624C241.68 6.15252 241.153 7.05075 240.49 7.63305C239.87 8.15936 239.135 8.53275 238.344 8.72318C237.554 8.91362 236.729 8.91578 235.937 8.72951C236.188 9.37587 236.294 10.0696 236.247 10.7614C236.179 11.9569 235.219 13.1959 234.797 14.3171L234.705 15.0543L233.986 18.1207L232.066 17.9658L232.592 11.5233C232.592 11.5233 232.951 8.81624 230.597 8.90916C228.244 9.00208 224.905 11.449 220.395 10.5012C219.655 10.4131 218.944 10.1612 218.313 9.76402C218.016 9.54864 217.78 9.25927 217.629 8.92459C217.478 8.5899 217.417 8.22154 217.452 7.85605Z" fill="#263238"/>
<path d="M242.708 10.687C242.346 10.9647 241.92 11.1477 241.469 11.2198C240.374 11.4686 239.227 11.3344 238.219 10.8395C237.211 10.3445 236.404 9.51887 235.931 8.50028C235.709 8.09794 235.592 7.64639 235.59 7.18701C235.646 7.18701 235.745 7.68878 236.135 8.42595C236.635 9.35739 237.414 10.1088 238.363 10.5743C239.312 11.0399 240.383 11.1963 241.426 11.0215C242.219 10.8605 242.683 10.6251 242.708 10.687Z" fill="#263238"/>
<path d="M238.105 14.2551C238.056 14.2551 238.105 13.8711 237.994 13.3011C237.817 12.5566 237.513 11.8482 237.095 11.2073C236.658 10.5529 236.265 9.86999 235.918 9.16308C235.757 8.87083 235.672 8.54282 235.671 8.20911C235.844 8.48158 235.995 8.76745 236.123 9.06398C236.402 9.58433 236.879 10.2534 237.362 11.0401C237.806 11.71 238.098 12.4691 238.217 13.264C238.289 13.5977 238.25 13.9458 238.105 14.2551Z" fill="#263238"/>
<path d="M206.011 50.0854C203.855 48.7738 201.772 47.3448 199.773 45.8048C197.375 43.7792 197.549 43.5562 197.828 43.327C198.571 42.6641 202.164 46.734 201.898 45.396C201.631 44.0579 196.942 40.9482 197.735 40.2915C198.788 39.4305 202.48 43.7606 202.821 44.1013C203.161 44.442 203.657 43.9526 203.335 43.6615C202.87 43.2402 198.113 38.7057 199.135 37.8508C199.705 37.3739 200.436 38.5013 200.436 38.5013C200.436 38.5013 204.586 43.0916 205.057 42.6703C205.528 42.2491 203.198 39.4677 202.331 38.588C201.464 37.7084 201.544 36.9588 202.232 36.8907C202.697 36.8473 205.379 39.4738 206.209 40.3597C207.039 41.2455 209.257 43.7296 209.133 41.5986C209.009 39.4677 209.69 37.7703 210.186 37.442C210.682 37.1137 211.307 37.7084 211.072 38.3278C210.883 39.0264 210.791 39.7476 210.799 40.4712C210.781 41.0523 210.861 41.6323 211.035 42.1871C211.183 42.6641 211.332 43.0854 211.475 43.457L212.93 47.465L209.275 52.0924L206.011 50.0854Z" fill="#FFBE9D"/>
<path d="M242.07 36.3084C242.838 36.5004 247.41 38.8668 247.484 49.2305C247.54 57.4694 246.908 75.7561 241.29 78.4756C238.744 79.7146 234.878 79.7146 231.521 77.5154C222.055 71.4013 205.292 51.6898 205.292 51.6898L212.794 43.6986C212.794 43.6986 232.27 63.5216 233.1 62.7907C234.339 61.688 232.437 52.2225 233.503 42.8685C234.234 36.2154 237.331 35.1252 242.07 36.3084Z" fill="#455A64"/>
<path d="M212.782 43.9835C212.744 44.0344 212.701 44.0802 212.652 44.1198L212.249 44.5163C211.896 44.857 211.375 45.3649 210.719 46.0464C208.849 47.977 207.13 50.048 205.577 52.241V52.0986C210.867 57.4941 218.586 65.3428 227.153 74.0711C229.177 75.9959 231.646 77.3898 234.339 78.1287C235.608 78.4816 236.94 78.5409 238.236 78.3021C239.467 78.0297 240.611 77.4525 241.562 76.6233C243.298 75.0337 244.568 73.0014 245.236 70.7446C245.828 68.777 246.226 66.7561 246.425 64.711C246.927 60.9941 247.193 57.8968 247.311 55.8092C247.373 54.7561 247.404 53.9508 247.428 53.3809V52.7614C247.42 52.6914 247.42 52.6207 247.428 52.5508C247.438 52.6227 247.438 52.6956 247.428 52.7676C247.428 52.9225 247.428 53.1331 247.428 53.3871C247.428 53.9446 247.428 54.7623 247.373 55.8216C247.292 57.934 247.063 60.9941 246.586 64.7481C246.401 66.8111 246.013 68.8507 245.428 70.8375C244.758 73.1447 243.473 75.2261 241.711 76.8587C240.724 77.7244 239.535 78.3274 238.254 78.6118C236.914 78.8605 235.535 78.8012 234.221 78.4384C231.472 77.6928 228.952 76.275 226.887 74.3127C218.289 65.572 210.632 57.6676 205.379 52.2596L205.311 52.1915L205.367 52.1172C206.942 49.93 208.69 47.8729 210.595 45.9658C211.27 45.303 211.834 44.8074 212.175 44.4729L212.596 44.1074L212.782 43.9835Z" fill="#263238"/>
<path d="M212.788 43.6986C212.788 43.6986 212.831 43.6986 212.893 43.7853L213.184 44.0764L214.293 45.1977C215.253 46.1764 216.66 47.5764 218.425 49.2924C220.191 51.0083 222.321 53.0525 224.725 55.295L228.516 58.8074C229.848 60.0092 231.223 61.2853 232.698 62.4871L232.444 62.611C232.487 61.88 232.53 61.1056 232.574 60.3251C232.822 56.2304 233.051 52.3278 233.261 48.7782C233.391 47.0065 233.422 45.3154 233.614 43.7357C233.757 42.2587 234.164 40.8193 234.816 39.4862C235.357 38.3782 236.176 37.4303 237.195 36.7357C237.974 36.2258 238.869 35.9211 239.797 35.8499C240.379 35.8015 240.965 35.8731 241.519 36.0605C241.713 36.1176 241.899 36.2009 242.07 36.3083C242.07 36.3083 241.878 36.2278 241.5 36.1225C240.949 35.9655 240.373 35.915 239.803 35.9738C238.905 36.0668 238.043 36.3795 237.294 36.8844C236.319 37.5812 235.535 38.5122 235.014 39.5915C234.394 40.9061 234.008 42.3191 233.875 43.7667C233.701 45.3278 233.683 47.0189 233.559 48.7906L232.896 60.3375C232.852 61.118 232.803 61.8986 232.766 62.6233V62.9393L232.524 62.7472C231.013 61.5083 229.662 60.2694 228.33 59.0304C226.998 57.7915 225.747 56.6269 224.545 55.4994C222.154 53.2384 220.036 51.1632 218.289 49.4472C216.542 47.7313 215.16 46.2756 214.225 45.272C213.748 44.7764 213.401 44.38 213.16 44.1074L212.893 43.8039C212.813 43.7357 212.782 43.6986 212.788 43.6986Z" fill="#263238"/>
<path d="M208.6 54.9977C208.867 54.5228 209.185 54.0783 209.548 53.672C210.167 52.8853 211.047 51.8136 212.057 50.6552C213.066 49.4968 214.002 48.4747 214.696 47.7499C215.05 47.3364 215.447 46.9606 215.879 46.6287C215.582 47.0857 215.242 47.513 214.863 47.9048L212.298 50.8658L209.721 53.8207C209.386 54.2476 209.01 54.6417 208.6 54.9977Z" fill="#263238"/>
<path d="M234.389 67.2633C234.006 66.5059 233.69 65.7161 233.447 64.9031C233.097 64.1299 232.815 63.3277 232.604 62.5057C233.523 63.9505 234.131 65.5707 234.389 67.2633Z" fill="#263238"/>
<path d="M236.092 65.9437C235.363 65.4943 234.693 64.9553 234.097 64.3392C233.432 63.7939 232.835 63.1699 232.32 62.4808C233.719 63.4699 234.987 64.6336 236.092 65.9437Z" fill="#263238"/>
<path d="M50.5489 158.226L30.6515 176.185L25.2002 169.209L42.6382 147.608L50.5489 158.226Z" fill="#FFBE9D"/>
<path d="M31.1097 176.859L31.7911 176.24L25.5097 168.528L22.6787 171.005L23.0566 171.489C24.7477 173.638 31.8159 182.298 33.4389 183.302C35.2477 184.417 31.1097 176.859 31.1097 176.859Z" fill="#1C1C1C"/>
<g opacity="0.5">
<path d="M25.1133 173.644C25.6437 172.983 25.9087 172.149 25.8567 171.303C25.8191 170.467 25.4648 169.676 24.8655 169.091L22.7903 170.95L25.1133 173.644Z" fill="white"/>
</g>
<path opacity="0.5" d="M33.0238 180.651C33.0238 180.651 34.3371 183.426 33.7238 183.469C33.1106 183.513 25.6707 175.032 22.6787 171.006L22.8584 170.869L31.4876 180.837C31.4876 180.837 32.6212 180.236 33.0238 180.651Z" fill="white"/>
<path d="M22.7593 170.751C22.7873 170.8 22.8205 170.846 22.8584 170.888L23.1557 171.278L24.2894 172.678C25.2495 173.855 26.6062 175.459 28.1363 177.2C29.6664 178.941 31.0911 180.49 32.138 181.598L33.377 182.899L33.7177 183.246C33.7567 183.29 33.8003 183.329 33.8478 183.364L33.7363 183.228L33.4079 182.868C33.0796 182.503 32.6708 182.063 32.169 181.543C31.1407 180.421 29.7283 178.866 28.1982 177.126C26.6681 175.385 25.3053 173.787 24.3203 172.622L23.1619 171.247L22.846 170.875C22.8216 170.831 22.7925 170.79 22.7593 170.751Z" fill="#263238"/>
<path d="M31.3699 180.936C31.6451 180.795 31.9363 180.689 32.2371 180.62C32.5438 180.585 32.8535 180.585 33.1601 180.62C32.8727 180.462 32.5369 180.418 32.2185 180.496C31.8912 180.533 31.589 180.689 31.3699 180.936Z" fill="#263238"/>
<path d="M30.5522 177.764C30.7131 177.802 30.8807 177.802 31.0416 177.764C31.308 177.727 31.5186 177.665 31.5124 177.628C31.1845 177.6 30.8548 177.653 30.5522 177.783V177.764Z" fill="#263238"/>
<path d="M30.3416 176.884C30.3416 176.884 30.515 176.965 30.7442 176.99C30.9734 177.014 31.1593 176.99 31.1654 176.99C31.1716 176.99 30.9858 176.909 30.7566 176.884C30.5274 176.86 30.3416 176.847 30.3416 176.884Z" fill="#263238"/>
<path d="M30.707 175.887C30.707 175.887 30.8123 176.098 30.9982 176.314C31.184 176.531 31.3575 176.692 31.3823 176.668C31.407 176.643 31.2769 176.457 31.0849 176.24C30.8929 176.023 30.7318 175.862 30.707 175.887Z" fill="#263238"/>
<path d="M31.0847 175.317C31.1097 175.521 31.1986 175.712 31.3387 175.862C31.5431 176.128 31.7723 176.283 31.7909 176.258C31.8095 176.234 31.6237 176.048 31.4378 175.788C31.3327 175.622 31.2147 175.464 31.0847 175.317Z" fill="#263238"/>
<path d="M31.4195 177.448C31.5331 177.629 31.6778 177.788 31.8469 177.919C32.0181 178.074 32.2049 178.211 32.4044 178.328C32.5205 178.408 32.6479 178.47 32.7823 178.513C32.8621 178.544 32.9503 178.544 33.0301 178.513C33.0731 178.49 33.1085 178.455 33.1316 178.412C33.1548 178.369 33.1647 178.32 33.1602 178.272C33.1121 178.105 33.0279 177.951 32.9136 177.82C32.7992 177.689 32.6575 177.585 32.4984 177.515C32.3394 177.446 32.1669 177.412 31.9933 177.416C31.8197 177.421 31.6491 177.463 31.4938 177.541C31.4397 177.566 31.3912 177.602 31.3513 177.646C31.5468 177.559 31.7571 177.511 31.9708 177.504C32.1896 177.501 32.4046 177.561 32.5903 177.677C32.7048 177.744 32.8046 177.833 32.8834 177.939C32.9623 178.046 33.0185 178.168 33.0487 178.297C33.0487 178.42 32.9496 178.47 32.8257 178.433C32.7034 178.387 32.5853 178.331 32.4726 178.266C32.2757 178.153 32.0873 178.027 31.9088 177.888C31.5929 177.615 31.438 177.429 31.4195 177.448Z" fill="#263238"/>
<path d="M31.506 177.59C31.6568 177.561 31.7915 177.478 31.8839 177.355C31.9973 177.23 32.0781 177.079 32.1193 176.915C32.1586 176.812 32.1696 176.7 32.151 176.591C32.1325 176.482 32.0852 176.38 32.014 176.296C31.9599 176.257 31.8933 176.241 31.8276 176.25C31.762 176.26 31.7024 176.294 31.6609 176.345C31.5957 176.423 31.5472 176.514 31.5184 176.612C31.4688 176.768 31.4396 176.931 31.4317 177.095C31.4082 177.243 31.4232 177.394 31.4751 177.535C31.4979 177.391 31.5103 177.246 31.5122 177.101C31.5361 176.947 31.5734 176.796 31.6237 176.649C31.6671 176.494 31.8096 176.289 31.9397 176.389C31.9859 176.461 32.0164 176.543 32.0292 176.629C32.042 176.714 32.0368 176.801 32.014 176.884C31.9805 177.033 31.915 177.172 31.822 177.293C31.7251 177.401 31.6195 177.5 31.506 177.59Z" fill="#263238"/>
<path d="M24.9211 169.11C24.9211 169.11 25.1318 169.302 25.3857 169.674C25.721 170.156 25.9161 170.722 25.9495 171.309C25.9711 171.894 25.8341 172.474 25.553 172.988C25.33 173.378 25.1256 173.607 25.1442 173.607C25.1627 173.607 25.2061 173.57 25.2928 173.477C25.4182 173.345 25.5283 173.2 25.6211 173.044C25.9407 172.526 26.0962 171.923 26.0672 171.315C26.0325 170.706 25.8168 170.122 25.4477 169.636C25.3393 169.491 25.2146 169.358 25.076 169.24C24.9893 169.141 24.9273 169.104 24.9211 169.11Z" fill="#263238"/>
<path d="M26.6494 173.948C26.8847 174.374 27.1741 174.767 27.5105 175.119C27.8181 175.498 28.1742 175.836 28.5698 176.122C28.5698 176.122 28.1361 175.639 27.6096 175.038C27.083 174.437 26.7114 173.929 26.6494 173.948Z" fill="#263238"/>
<path d="M25.3795 172.486C25.3423 172.486 25.3113 172.616 25.2432 172.759C25.175 172.901 25.1007 173.025 25.1255 173.05C25.1503 173.075 25.2742 172.982 25.3547 172.808C25.4352 172.635 25.4104 172.486 25.3795 172.486Z" fill="#263238"/>
<path d="M25.5778 171.334C25.5468 171.334 25.5096 171.445 25.4972 171.594C25.4848 171.743 25.4972 171.86 25.5406 171.86C25.584 171.86 25.6087 171.749 25.6211 171.6C25.6335 171.451 25.6087 171.334 25.5778 171.334Z" fill="#263238"/>
<path d="M25.2002 170.275C25.2002 170.275 25.2683 170.399 25.3241 170.541C25.3798 170.684 25.3922 170.814 25.4294 170.82C25.4666 170.826 25.5099 170.671 25.4294 170.498C25.3489 170.324 25.2126 170.244 25.2002 170.275Z" fill="#263238"/>
<path d="M24.8533 169.587C24.8533 169.587 24.8533 169.674 24.8533 169.754C24.8533 169.835 24.9338 169.897 24.9648 169.884C24.9957 169.872 24.9648 169.798 24.9648 169.711C24.9648 169.624 24.8842 169.575 24.8533 169.587Z" fill="#263238"/>
<path d="M85.939 158.04L88.3363 185.166H78.0841L73.562 158.04H85.939Z" fill="#FFBE9D"/>
<path d="M88.0391 185.421V184.51L78.0842 184.467L78.2019 188.227H78.8214C81.5595 188.276 92.7347 188.301 94.5373 187.682C96.4825 187.013 88.0391 185.421 88.0391 185.421Z" fill="#1C1C1C"/>
<g opacity="0.5">
<path d="M81.7203 188.016C81.5455 187.187 81.0686 186.451 80.3823 185.953C79.7082 185.463 78.8753 185.242 78.0469 185.334L78.146 188.103L81.7203 188.016Z" fill="white"/>
</g>
<path opacity="0.5" d="M92.1582 186.344C92.1582 186.344 95.1317 187.087 94.7848 187.583C94.4379 188.078 83.1388 188.481 78.1396 188.202V187.979L91.3219 187.626C91.3219 187.626 91.5821 186.393 92.1582 186.344Z" fill="white"/>
<path d="M77.9912 188.004H78.1647H78.654H80.4505C81.9744 188.004 84.0744 188.004 86.3912 187.898C88.708 187.793 90.808 187.7 92.3257 187.595L94.1222 187.459L94.6116 187.409H94.1222L92.3195 187.508C90.8018 187.595 88.708 187.7 86.3912 187.781C84.0744 187.861 81.9744 187.898 80.4505 187.917H78.654H78.1647L77.9912 188.004Z" fill="#263238"/>
<path d="M91.3284 187.805C91.3965 187.504 91.4983 187.211 91.6319 186.932C91.8105 186.674 92.0183 186.437 92.2514 186.226C91.9453 186.346 91.6969 186.579 91.5576 186.876C91.3692 187.147 91.2876 187.478 91.3284 187.805Z" fill="#263238"/>
<path d="M88.3547 186.424C88.3857 186.424 88.522 186.269 88.6583 186.034C88.7946 185.799 88.8813 185.6 88.8503 185.582C88.724 185.691 88.6227 185.826 88.553 185.978C88.4555 186.111 88.3878 186.263 88.3547 186.424Z" fill="#263238"/>
<path d="M87.5432 186.034C87.5432 186.034 87.7167 185.947 87.8839 185.786C88.0512 185.625 88.1627 185.476 88.1379 185.458C88.1132 185.439 87.9645 185.538 87.7972 185.699C87.63 185.86 87.5185 185.997 87.5432 186.034Z" fill="#263238"/>
<path d="M87.0044 185.117C87.1701 185.171 87.3461 185.186 87.5186 185.16C87.6949 185.175 87.8723 185.152 88.0389 185.092C87.8717 185.035 87.6935 185.018 87.5186 185.043C87.2336 185.049 87.0044 185.08 87.0044 185.117Z" fill="#263238"/>
<path d="M86.8 184.46C86.9741 184.569 87.1775 184.621 87.3824 184.609C87.5941 184.644 87.8114 184.609 88.0018 184.51C87.8083 184.489 87.6131 184.489 87.4195 184.51C87.2148 184.476 87.0076 184.459 86.8 184.46Z" fill="#263238"/>
<path d="M88.6584 185.551C88.8634 185.587 89.073 185.587 89.2779 185.551C89.5077 185.513 89.7337 185.455 89.9531 185.377C90.0852 185.334 90.2119 185.276 90.331 185.204C90.406 185.157 90.4612 185.084 90.4859 184.999C90.4933 184.952 90.4874 184.904 90.4688 184.86C90.4501 184.817 90.4196 184.779 90.3806 184.752C90.1341 184.639 89.8559 184.616 89.5944 184.688C89.333 184.759 89.1048 184.92 88.9496 185.142C88.8545 185.271 88.789 185.419 88.7576 185.575C88.7428 185.63 88.7428 185.688 88.7576 185.743C88.8202 185.546 88.9121 185.36 89.0301 185.191C89.1674 185.021 89.3498 184.892 89.5567 184.82C89.6773 184.769 89.8068 184.743 89.9377 184.743C90.0685 184.743 90.198 184.769 90.3186 184.82C90.4239 184.894 90.3868 185.012 90.2753 185.086C90.1645 185.15 90.0484 185.204 89.9284 185.247C89.7173 185.329 89.4997 185.393 89.2779 185.439C88.9062 185.52 88.6584 185.532 88.6584 185.551Z" fill="#263238"/>
<path d="M88.8315 185.575C88.9005 185.44 88.9203 185.284 88.8873 185.136C88.863 184.969 88.7969 184.811 88.6953 184.677C88.6407 184.583 88.5621 184.504 88.4674 184.45C88.3728 184.395 88.2655 184.367 88.1563 184.367C88.0926 184.385 88.0379 184.426 88.0034 184.482C87.9689 184.539 87.9571 184.606 87.9705 184.671C87.9861 184.772 88.0265 184.868 88.0882 184.95C88.1758 185.088 88.2822 185.213 88.4041 185.321C88.5046 185.435 88.6326 185.52 88.7758 185.569C88.7758 185.569 88.6457 185.458 88.4599 185.266C88.3571 185.149 88.2639 185.025 88.1811 184.894C88.0882 184.758 88.02 184.522 88.1811 184.485C88.3422 184.448 88.5094 184.621 88.6085 184.739C88.7024 184.859 88.768 184.999 88.8006 185.148C88.8224 185.289 88.8328 185.432 88.8315 185.575Z" fill="#263238"/>
<path d="M78.1274 185.291C78.1274 185.291 78.4124 185.253 78.8584 185.291C79.4448 185.341 80.0051 185.556 80.4752 185.91C80.9434 186.261 81.3056 186.735 81.5221 187.279C81.6894 187.7 81.7142 187.985 81.7389 187.979C81.7485 187.913 81.7485 187.847 81.7389 187.781C81.7122 187.602 81.6686 187.425 81.6089 187.254C81.412 186.678 81.0448 186.174 80.5558 185.811C80.064 185.454 79.478 185.249 78.8708 185.222C78.6894 185.207 78.5071 185.207 78.3257 185.222C78.2562 185.234 78.1892 185.257 78.1274 185.291Z" fill="#263238"/>
<path d="M82.9343 187.019C83.4118 187.11 83.8993 187.137 84.3839 187.099C84.8704 187.103 85.3554 187.044 85.8272 186.926C85.8272 186.889 85.1768 186.957 84.3777 186.982C83.5786 187.006 82.9343 186.988 82.9343 187.019Z" fill="#263238"/>
<path d="M80.9956 187.075C80.9956 187.075 81.0514 187.211 81.1257 187.353C81.2 187.496 81.2372 187.632 81.2682 187.632C81.2991 187.632 81.3177 187.471 81.231 187.304C81.1443 187.137 81.0142 187.05 80.9956 187.075Z" fill="#263238"/>
<path d="M80.2334 186.195C80.2334 186.195 80.2768 186.319 80.3821 186.418C80.4874 186.517 80.5927 186.579 80.6175 186.554C80.6423 186.53 80.5741 186.43 80.4626 186.331C80.3511 186.232 80.252 186.17 80.2334 186.195Z" fill="#263238"/>
<path d="M79.1743 185.811C79.1743 185.848 79.3106 185.842 79.4593 185.885C79.608 185.929 79.7133 186.009 79.7381 185.984C79.7628 185.96 79.6761 185.823 79.4903 185.774C79.3044 185.724 79.1619 185.786 79.1743 185.811Z" fill="#263238"/>
<path d="M78.4185 185.644C78.4185 185.675 78.468 185.724 78.5485 185.755C78.6291 185.786 78.7096 185.755 78.722 185.755C78.7344 185.755 78.6724 185.675 78.5919 185.644C78.5114 185.613 78.4308 185.613 78.4185 185.644Z" fill="#263238"/>
<path d="M67.9185 78.4258C67.9185 78.4258 75.9406 131.7 74.776 134.296C73.6114 136.891 47.6247 163.473 47.6247 163.473L37.8618 146.772C37.8618 146.772 55.0583 127.723 54.8105 126.738C54.5627 125.753 42.4211 74.139 42.4211 74.139L67.9185 78.4258Z" fill="#263238"/>
<path d="M70.7742 98.1003C70.6937 97.5304 64.2202 82.9791 64.2202 82.9791L67.3609 78.5437L67.9184 78.426L70.7742 98.1003Z" fill="#263238"/>
<path d="M37.8618 73.4081L37.3724 75.3842C35.9552 81.2156 36.8428 87.3689 39.8503 92.5621L61.5813 130.244C63.1252 132.914 64.2493 135.806 64.914 138.818L70.3344 163.2H88.1751C88.1751 163.2 85.9698 146.474 84.0061 134.277C82.5193 125.066 70.1919 96.4895 64.2202 82.9603L67.937 78.4072L61.5131 77.3355L37.8618 73.4081Z" fill="#263238"/>
<path d="M64.6909 82.8735C64.9399 83.6883 65.2442 84.4851 65.6015 85.2585C66.221 86.7142 67.0139 88.7275 67.8812 90.9638C68.7484 93.2001 69.5104 95.2443 70.0555 96.7187C70.3173 97.5292 70.6319 98.3218 70.9971 99.0912C70.9746 98.8605 70.9226 98.6335 70.8423 98.416C70.7246 97.9948 70.5387 97.3815 70.2971 96.6319C69.8077 95.1328 69.0582 93.0824 68.2157 90.8337C67.3732 88.585 66.4874 86.5904 65.8307 85.1594C65.5024 84.4408 65.2113 83.8647 65.0316 83.4744C64.9453 83.2599 64.8307 83.0578 64.6909 82.8735Z" fill="#455A64"/>
<path d="M66.6425 146.221C66.6563 146.08 66.6563 145.939 66.6425 145.799C66.6053 145.483 66.5619 145.087 66.5062 144.591C66.4446 143.953 66.3494 143.318 66.2212 142.69C66.0788 141.959 65.9425 141.11 65.7009 140.212C65.5894 139.753 65.4717 139.27 65.3478 138.774C65.2239 138.279 65.0504 137.765 64.8894 137.232C64.592 136.16 64.1708 135.051 63.7619 133.874C62.7906 131.339 61.6843 128.858 60.4478 126.441C58.1576 122.094 55.622 117.881 52.8531 113.822C51.8062 112.261 50.9389 111.004 50.3318 110.143L49.6319 109.182C49.5532 109.065 49.464 108.955 49.3655 108.854C49.4189 108.986 49.4875 109.11 49.5699 109.226L50.2203 110.248C50.8398 111.171 51.6451 112.435 52.6487 113.965C54.6867 117.124 57.4991 121.51 60.138 126.602C61.3568 128.998 62.4546 131.455 63.4274 133.961C63.8425 135.126 64.2761 136.228 64.5858 137.288C64.7469 137.814 64.9142 138.322 65.0566 138.818C65.1991 139.313 65.3106 139.784 65.4283 140.243C65.6885 141.147 65.8372 141.983 65.9982 142.721C66.1593 143.458 66.2708 144.083 66.3451 144.579C66.4195 145.074 66.4938 145.465 66.5496 145.774C66.5634 145.926 66.5946 146.076 66.6425 146.221Z" fill="#455A64"/>
<path d="M40.792 90.7843C40.792 90.7843 40.7424 90.7286 40.6557 90.5985L40.2778 89.979C40.5756 89.5111 40.9652 89.1084 41.423 88.7954C41.8809 88.4824 42.3975 88.2654 42.9415 88.1578C43.7551 87.9747 44.5963 87.9495 45.4194 88.0835C46.386 88.2524 47.3355 88.5074 48.2566 88.8454C49.3208 89.1742 50.3566 89.5885 51.3539 90.0843C52.4923 90.6515 53.3876 91.6106 53.8752 92.7852C54.1185 93.4265 54.1596 94.1269 53.9929 94.7923C53.7896 95.437 53.5219 96.0597 53.1938 96.6507C52.8587 97.227 52.6774 97.8797 52.6672 98.5463C52.7213 99.2188 53.0291 99.8455 53.5283 100.299C54.7177 101.483 56.4769 101.699 57.9327 102.437C59.3535 103.155 60.5111 104.304 61.2407 105.72C61.9256 106.978 62.2473 108.402 62.1699 109.833C62.0966 111.08 61.6948 112.285 61.0053 113.327C60.0205 114.839 58.5501 115.971 56.8362 116.536C56.3746 116.681 55.8992 116.779 55.4177 116.827C55.2506 116.839 55.0829 116.839 54.9159 116.827C55.5464 116.735 56.1681 116.59 56.7743 116.393C58.431 115.798 59.843 114.669 60.7885 113.184C61.4417 112.172 61.8177 111.005 61.8787 109.802C61.9369 108.421 61.6178 107.051 60.9557 105.837C60.2452 104.484 59.1299 103.386 57.7654 102.697C57.0654 102.35 56.2787 102.114 55.492 101.817C54.6676 101.545 53.9112 101.1 53.2743 100.51C52.7174 99.9985 52.3763 99.2941 52.3203 98.5401C52.3314 97.8199 52.5254 97.1143 52.884 96.4896C53.2055 95.9143 53.4691 95.3083 53.6707 94.6808C53.8238 94.0748 53.7848 93.4363 53.5592 92.8534C53.1062 91.7422 52.2654 90.8331 51.1929 90.295C50.2126 89.7907 49.1934 89.366 48.1451 89.025C47.2444 88.6785 46.3132 88.4172 45.3637 88.2445C44.5702 88.0986 43.7558 88.1091 42.9663 88.2755C42.4381 88.373 41.9342 88.5736 41.4835 88.8659C41.0329 89.1582 40.6442 89.5364 40.3398 89.979L40.6805 90.5985C40.7245 90.6561 40.7619 90.7184 40.792 90.7843Z" fill="#FAFAFA"/>
<path d="M85.8337 146.289C85.3959 145.904 84.9005 145.59 84.3656 145.359C83.7274 145.109 83.0621 144.934 82.3833 144.839C81.5965 144.709 80.6797 144.628 79.6762 144.467C78.5641 144.308 77.4909 143.945 76.5107 143.396C74.6342 142.346 73.2032 140.65 72.4841 138.624C71.765 136.598 71.8069 134.379 72.6018 132.381C73.1903 130.926 74.0762 129.662 74.324 128.256C74.4809 126.88 74.2804 125.487 73.7417 124.211C73.2706 123.027 72.8693 121.817 72.5399 120.587C72.2728 119.49 72.2728 118.345 72.5399 117.248C72.9281 115.66 73.8243 114.241 75.0921 113.209C75.5453 112.825 76.0607 112.521 76.616 112.311C76.1103 112.604 75.6278 112.935 75.1726 113.302C73.969 114.347 73.1258 115.745 72.7629 117.297C72.5061 118.36 72.5061 119.468 72.7629 120.531C73.1075 121.747 73.5211 122.943 74.0018 124.112C74.5681 125.432 74.7816 126.877 74.6213 128.305C74.3611 129.811 73.4505 131.093 72.893 132.505C72.1249 134.431 72.0779 136.57 72.7608 138.527C73.4437 140.485 74.8105 142.13 76.6098 143.16C77.5673 143.708 78.6171 144.075 79.7072 144.244C80.6983 144.418 81.6151 144.511 82.408 144.659C83.0982 144.782 83.7704 144.99 84.4089 145.279C84.8109 145.459 85.1845 145.697 85.5178 145.985C85.7346 146.165 85.8461 146.276 85.8337 146.289Z" fill="#FAFAFA"/>
<path d="M77.5079 164.061C77.446 164.061 77.4274 163.256 77.1053 162.011C76.9162 161.283 76.6568 160.576 76.3309 159.899C75.9236 159.073 75.4316 158.293 74.8628 157.569C74.2802 156.856 73.6241 156.206 72.9053 155.63C72.3147 155.157 71.6799 154.743 71.0097 154.391C69.8637 153.809 69.077 153.617 69.0955 153.555C69.2861 153.557 69.4748 153.593 69.6531 153.66C69.8643 153.708 70.0714 153.772 70.2725 153.853C70.5521 153.946 70.8253 154.058 71.0902 154.187C71.7916 154.509 72.4562 154.906 73.0725 155.37C74.5854 156.515 75.7903 158.018 76.5787 159.744C76.9 160.444 77.1451 161.177 77.3097 161.93C77.3787 162.218 77.4284 162.51 77.4584 162.804C77.4938 163.023 77.5104 163.245 77.5079 163.467C77.5425 163.663 77.5425 163.865 77.5079 164.061Z" fill="#FAFAFA"/>
<path d="M68.3522 93.9869C68.3522 93.9869 68.2716 93.9869 68.1106 94.0365C67.8744 94.07 67.6366 94.0907 67.3982 94.0984C66.5222 94.1275 65.6464 94.0336 64.7964 93.8197C63.5277 93.5139 62.3264 92.9762 61.2531 92.2338C59.9155 91.3402 58.8155 90.1343 58.0482 88.7205C57.2808 87.3067 56.8691 85.7273 56.8486 84.1188C56.8194 82.8135 57.0294 81.514 57.4681 80.2843C57.7552 79.4548 58.1555 78.6689 58.6575 77.9489C58.7898 77.7538 58.9346 77.5676 59.0911 77.3914C59.1964 77.2675 59.2584 77.2055 59.2646 77.2117C58.6049 78.1884 58.0739 79.2461 57.6849 80.3586C57.2925 81.5697 57.1164 82.8404 57.1646 84.1126C57.1977 85.6674 57.599 87.1923 58.3355 88.562C59.0721 89.9317 60.1229 91.1073 61.4017 91.9922C62.4406 92.7253 63.6001 93.2705 64.8274 93.6029C65.9803 93.8853 67.1655 94.0145 68.3522 93.9869Z" fill="#FAFAFA"/>
<path d="M52.4689 128.745C52.5888 128.787 52.7049 128.839 52.8158 128.9C53.0451 129.006 53.3672 129.185 53.776 129.427C54.9335 130.129 55.9588 131.028 56.8052 132.084C57.39 132.826 57.8388 133.665 58.1309 134.562C58.4552 135.602 58.5274 136.704 58.3415 137.777C58.156 138.981 57.5816 140.09 56.7061 140.937C55.7893 141.829 54.4451 142.126 53.6645 143.105C52.884 144.084 52.7105 145.366 52.5928 146.561C52.5551 147.75 52.3464 148.926 51.9734 150.055C51.5533 151.075 50.7881 151.915 49.8114 152.428C48.9813 152.881 48.0655 153.155 47.1229 153.233C45.7725 153.307 44.4186 153.174 43.1088 152.837C42.6442 152.725 42.2911 152.632 42.0495 152.564C41.9252 152.54 41.8045 152.501 41.6902 152.446C41.8177 152.452 41.9443 152.471 42.0681 152.502L43.1335 152.713C44.4342 153 45.7695 153.098 47.0982 153.004C48.0036 152.917 48.8811 152.642 49.6751 152.199C50.5909 151.704 51.3068 150.907 51.7008 149.944C52.0493 148.838 52.2432 147.689 52.2769 146.53C52.3224 145.904 52.4177 145.283 52.5619 144.672C52.7073 144.024 52.9998 143.418 53.4167 142.9C54.3088 141.829 55.6592 141.538 56.5141 140.707C57.342 139.912 57.8879 138.868 58.0689 137.734C58.2528 136.702 58.1934 135.642 57.8955 134.637C57.6228 133.769 57.2038 132.954 56.6566 132.227C55.8386 131.176 54.8527 130.268 53.7389 129.538C53.3486 129.278 53.0327 129.086 52.8158 128.962C52.6917 128.905 52.5752 128.832 52.4689 128.745Z" fill="#FAFAFA"/>
<path d="M54.3709 0.564809C50.9329 -0.290058 47.2347 1.8595 45.5249 4.95684C43.8152 8.05419 43.7966 11.8515 44.6019 15.2958C44.9426 16.7391 45.4196 18.2321 45.0851 19.6816C44.7258 21.2365 43.4869 22.4445 42.8922 23.9312C41.7586 26.7993 43.2019 29.9772 44.6143 32.7152C45.2338 33.9542 46.0824 35.348 47.4577 35.6206C49.0001 35.9241 50.3568 34.6914 51.6577 33.8055C53.9539 32.2559 56.7487 31.6258 59.4878 32.04C62.5851 32.517 65.3851 34.2949 68.4948 34.3506C69.9033 34.3607 71.2918 34.0172 72.5332 33.3516C73.7746 32.6861 74.8291 31.7196 75.6001 30.5409C76.5232 29.0975 76.8391 26.9232 75.5072 25.8577C74.6276 25.1577 73.2833 25.1825 72.509 24.3648C71.5674 23.3675 71.9763 21.763 72.4594 20.4869C72.9426 19.2108 73.4258 17.6498 72.5648 16.5843C71.6046 15.3825 69.5232 15.6117 68.6063 14.379C67.6895 13.1462 68.6559 11.2816 68.6063 9.64623C68.5455 8.92603 68.3228 8.22887 67.9549 7.60675C67.587 6.98463 67.0833 6.45362 66.4816 6.05331C65.317 5.20463 65.1559 4.93206 63.5515 2.01436" fill="#263238"/>
<path d="M49.576 28.8933L61.9654 29.9526C61.9654 29.9526 70.9911 28.6331 74.4477 51.5225L88.1628 50.9587L88.7822 60.0773L69.9194 61.0065L67.6955 59.6747L67.9185 78.426L36.7159 76.1278C37.4221 71.872 40.7486 66.272 41.8636 62.6791C40.73 59.8419 34.461 48.2764 34.1513 42.3357C33.3088 26.0685 49.576 28.8933 49.576 28.8933Z" fill="#1C1C1C"/>
<path opacity="0.3" d="M69.0895 45.6746C69.0895 45.6746 71.2824 48.1524 71.3196 50.2401C71.3754 53.5852 70.5329 55.3011 71.5798 58.956L68.5939 59.6746C68.5939 59.6746 68.1355 58.7825 68.5258 56.8746C68.9161 54.9666 69.6718 52.6436 70.0063 50.5684C70.3033 48.8799 69.9775 47.141 69.0895 45.6746Z" fill="black"/>
<path d="M68.5936 59.6745C68.5021 59.4394 68.4397 59.1939 68.4077 58.9436C68.3198 58.2608 68.3198 57.5697 68.4077 56.8869C68.5402 55.8838 68.7473 54.892 69.0272 53.9197C69.3793 52.7457 69.6525 51.5495 69.8449 50.3391C70.0286 49.1412 69.8984 47.916 69.467 46.7834C69.0714 45.8767 68.5317 45.0399 67.8688 44.3055C66.7414 43.0232 65.9423 42.3108 66.0104 42.2675C66.2217 42.4021 66.4189 42.5577 66.5989 42.7321C67.1149 43.1787 67.6051 43.6544 68.067 44.1568C68.776 44.8974 69.3522 45.7545 69.7706 46.6905C70.2401 47.8697 70.3835 49.1535 70.1856 50.4073C69.997 51.6334 69.7132 52.8429 69.3369 54.025C69.0438 54.9822 68.81 55.9566 68.6369 56.9427C68.5329 57.6084 68.4976 58.283 68.5316 58.956C68.5772 59.1927 68.598 59.4335 68.5936 59.6745Z" fill="#263238"/>
<g opacity="0.2">
<path d="M69.0027 59.4393L59.7602 59.6499C59.0277 59.7191 58.2888 59.6326 57.5921 59.3959C56.6195 58.9871 55.9938 58.0393 55.4487 57.1349C53.8257 54.4588 52.339 51.7083 50.9885 48.8835C50.9885 48.8835 53.4292 56.6455 54.9593 60.034C55.108 60.4616 55.4153 60.8157 55.8176 61.0233C56.22 61.2308 56.6867 61.2758 57.1213 61.149C61.1436 61.1564 65.1457 60.5805 69.0027 59.4393Z" fill="black"/>
</g>
<path d="M129.426 38.9967C130.788 38.8997 132.153 39.1535 133.39 39.7339C133.917 39.991 134.495 40.1265 135.081 40.1303H136.593V20.71C136.593 20.3182 136.515 19.9302 136.365 19.5683C136.215 19.2064 135.995 18.8776 135.718 18.6008C135.441 18.3241 135.111 18.1047 134.749 17.9554C134.387 17.806 133.999 17.7295 133.607 17.7303H114.267V16.4171C114.273 15.8084 114.417 15.209 114.688 14.664C115.425 13.1539 115.663 11.4492 115.37 9.79493C115.026 7.8064 113.948 6.01939 112.35 4.78765C110.751 3.55591 108.749 2.96922 106.738 3.1437C104.728 3.31818 102.856 4.24113 101.494 5.72984C100.131 7.21856 99.3773 9.16453 99.3813 11.1825C99.3812 12.2987 99.6154 13.4025 100.069 14.4224C100.298 14.9332 100.42 15.4855 100.428 16.0454V17.7303H81.5653C80.7751 17.7303 80.0172 18.0443 79.4584 18.6031C78.8996 19.1618 78.5857 19.9197 78.5857 20.71V73.1728C78.5857 73.4917 78.6485 73.8075 78.7705 74.1021C78.8926 74.3967 79.0714 74.6644 79.2969 74.8899C79.5224 75.1154 79.7901 75.2942 80.0847 75.4163C80.3793 75.5383 80.6951 75.6011 81.014 75.6011H134.164C134.808 75.5995 135.425 75.3431 135.88 74.8881C136.335 74.433 136.591 73.8163 136.593 73.1728V54.2109H134.443C133.946 54.2115 133.454 54.3082 132.994 54.4958C132.042 54.8843 131.024 55.0842 129.995 55.0843C127.86 55.1599 125.781 54.3839 124.218 52.9271C122.654 51.4703 121.733 49.452 121.657 47.3162C121.582 45.1804 122.358 43.102 123.815 41.5383C125.271 39.9746 127.29 39.0537 129.426 38.9781V38.9967Z" fill="#1C1C1C"/>
<path opacity="0.2" d="M129.426 38.9967C130.788 38.8997 132.153 39.1535 133.39 39.7339C133.917 39.991 134.495 40.1265 135.081 40.1303H136.593V20.71C136.593 20.3182 136.515 19.9302 136.365 19.5683C136.215 19.2064 135.995 18.8776 135.718 18.6008C135.441 18.3241 135.111 18.1047 134.749 17.9554C134.387 17.806 133.999 17.7295 133.607 17.7303H114.267V16.4171C114.273 15.8084 114.417 15.209 114.688 14.664C115.425 13.1539 115.663 11.4492 115.37 9.79493C115.026 7.8064 113.948 6.01939 112.35 4.78765C110.751 3.55591 108.749 2.96922 106.738 3.1437C104.728 3.31818 102.856 4.24113 101.494 5.72984C100.131 7.21856 99.3773 9.16453 99.3813 11.1825C99.3812 12.2987 99.6154 13.4025 100.069 14.4224C100.298 14.9332 100.42 15.4855 100.428 16.0454V17.7303H81.5653C80.7751 17.7303 80.0172 18.0443 79.4584 18.6031C78.8996 19.1618 78.5857 19.9197 78.5857 20.71V73.1728C78.5857 73.4917 78.6485 73.8075 78.7705 74.1021C78.8926 74.3967 79.0714 74.6644 79.2969 74.8899C79.5224 75.1154 79.7901 75.2942 80.0847 75.4163C80.3793 75.5383 80.6951 75.6011 81.014 75.6011H134.164C134.808 75.5995 135.425 75.3431 135.88 74.8881C136.335 74.433 136.591 73.8163 136.593 73.1728V54.2109H134.443C133.946 54.2115 133.454 54.3082 132.994 54.4958C132.042 54.8843 131.024 55.0842 129.995 55.0843C127.86 55.1599 125.781 54.3839 124.218 52.9271C122.654 51.4703 121.733 49.452 121.657 47.3162C121.582 45.1804 122.358 43.102 123.815 41.5383C125.271 39.9746 127.29 39.0537 129.426 38.9781V38.9967Z" fill="white"/>
<path d="M49.4087 29.3266L48.4485 7.45937L57.1211 0.880615L65.0131 4.7399C65.0131 4.7399 65.2795 14.6514 65.0131 18.9505C64.7467 23.2496 60.4166 23.7081 60.4166 23.7081C60.4166 23.7081 60.5219 26.2231 60.6211 28.8682C60.6496 29.6278 60.5237 30.3852 60.251 31.0947C59.9783 31.8043 59.5645 32.4511 59.0346 32.996C58.5047 33.541 57.8698 33.9727 57.1682 34.2652C56.4666 34.5576 55.713 34.7047 54.9529 34.6974C53.5176 34.6798 52.1435 34.1136 51.1125 33.1148C50.0815 32.1161 49.4719 30.7606 49.4087 29.3266Z" fill="#FFBE9D"/>
<path d="M64.1705 11.9631C64.1705 12.0721 64.1382 12.1787 64.0776 12.2694C64.017 12.36 63.9309 12.4307 63.8302 12.4724C63.7294 12.5142 63.6186 12.5251 63.5116 12.5038C63.4047 12.4825 63.3065 12.43 63.2294 12.3529C63.1522 12.2758 63.0997 12.1776 63.0785 12.0706C63.0572 11.9637 63.0681 11.8528 63.1098 11.7521C63.1516 11.6513 63.2222 11.5652 63.3129 11.5047C63.4036 11.4441 63.5102 11.4117 63.6192 11.4117C63.7654 11.4117 63.9057 11.4698 64.009 11.5732C64.1124 11.6766 64.1705 11.8168 64.1705 11.9631Z" fill="#263238"/>
<path d="M64.7032 11.3623C64.6289 11.4366 64.2262 11.0897 63.6315 11.0588C63.0369 11.0278 62.597 11.3127 62.5351 11.2322C62.4731 11.1517 62.5785 11.0649 62.7705 10.9349C63.0312 10.7631 63.3406 10.6806 63.6522 10.6996C63.9638 10.7186 64.2609 10.8381 64.4988 11.0402C64.6785 11.195 64.7342 11.3065 64.7032 11.3623Z" fill="#263238"/>
<path d="M57.7965 11.9631C57.7965 12.0721 57.7642 12.1787 57.7036 12.2694C57.643 12.36 57.5569 12.4307 57.4562 12.4724C57.3554 12.5142 57.2446 12.5251 57.1376 12.5038C57.0307 12.4825 56.9324 12.43 56.8553 12.3529C56.7782 12.2758 56.7257 12.1776 56.7044 12.0706C56.6832 11.9637 56.6941 11.8528 56.7358 11.7521C56.7775 11.6513 56.8482 11.5652 56.9389 11.5047C57.0295 11.4441 57.1361 11.4117 57.2452 11.4117C57.3914 11.4117 57.5316 11.4698 57.635 11.5732C57.7384 11.6766 57.7965 11.8168 57.7965 11.9631Z" fill="#263238"/>
<path d="M58.1371 11.3622C58.0627 11.4366 57.6601 11.0897 57.0654 11.0587C56.4707 11.0277 56.0309 11.3127 55.9689 11.2321C55.907 11.1516 56.0123 11.0649 56.2043 10.9348C56.458 10.7633 56.7594 10.6766 57.0654 10.687C57.3773 10.7073 57.6747 10.8267 57.9141 11.0277C58.1123 11.195 58.168 11.3065 58.1371 11.3622Z" fill="#263238"/>
<path d="M60.4354 23.6958C58.3929 23.6091 56.4178 22.9407 54.7424 21.7693C54.7424 21.7693 56.1672 24.9843 60.4787 24.8109L60.4354 23.6958Z" fill="#EB996E"/>
<path d="M60.2742 16.3675C60.5906 16.29 60.9148 16.2485 61.2405 16.2436C61.3892 16.2436 61.5379 16.2436 61.5751 16.1073C61.5922 15.9413 61.5622 15.7738 61.4883 15.6241C61.3603 15.2401 61.224 14.8271 61.0795 14.3852C60.8007 13.5117 60.5591 12.7188 60.3919 12.1427C60.2822 11.8344 60.2095 11.5142 60.175 11.1887C60.3376 11.4714 60.4646 11.7731 60.5529 12.0869C60.7574 12.6569 61.0299 13.4374 61.3087 14.3108L61.6989 15.5498C61.7881 15.7437 61.8078 15.9625 61.7547 16.1693C61.7328 16.222 61.6991 16.269 61.6561 16.3066C61.6131 16.3442 61.5621 16.3714 61.5069 16.3861C61.4204 16.3941 61.3333 16.3941 61.2467 16.3861C60.923 16.4188 60.5964 16.4126 60.2742 16.3675Z" fill="#263238"/>
<path d="M59.8344 16.8815C59.6018 16.9427 59.3887 17.0621 59.2149 17.2284C59.108 17.3187 59.0377 17.4449 59.017 17.5834C58.9964 17.7218 59.0269 17.863 59.1027 17.9807C59.1786 18.0983 59.2947 18.1842 59.4294 18.2225C59.564 18.2608 59.708 18.2487 59.8344 18.1885C59.9478 18.1639 60.0546 18.1152 60.1476 18.0457C60.2405 17.9762 60.3175 17.8876 60.3733 17.7859C60.4255 17.6798 60.4462 17.5611 60.433 17.4436C60.4198 17.3262 60.3733 17.2149 60.299 17.1231C60.2216 17.0396 60.1181 16.9849 60.0055 16.9681C59.893 16.9512 59.778 16.9731 59.6795 17.0301" fill="#EB996E"/>
<path d="M60.6026 17.7366C60.6026 17.8233 60.1132 17.9596 59.5867 17.6561C59.0601 17.3525 58.9176 16.8508 59.0044 16.8322C59.0911 16.8136 59.3141 17.1419 59.7477 17.3773C60.1814 17.6127 60.5902 17.6437 60.6026 17.7366Z" fill="#263238"/>
<path d="M57.6043 0.0259311C56.6939 -0.00560769 55.7878 0.16402 54.9505 0.522718C54.1132 0.881416 53.3652 1.42036 52.76 2.10116C51.5582 3.49168 50.9469 5.29658 51.0565 7.13124C51.0442 7.82045 51.2622 8.49406 51.676 9.04541C52.2954 9.7578 53.3423 9.90027 54.2901 9.99319C55.2527 10.1716 56.2438 10.1206 57.183 9.84452C58.0999 9.49142 58.8618 8.54363 58.6574 7.58965C58.2052 8.20912 58.583 9.12593 59.2273 9.5162C59.9091 9.85063 60.6707 9.98794 61.4264 9.91266H64.6724C65.0428 9.94927 65.4153 9.86913 65.7379 9.68346C65.9113 9.50709 66.0477 9.29789 66.1392 9.06813C66.2307 8.83837 66.2754 8.59266 66.2707 8.3454C66.4441 6.61709 66.6052 4.77726 65.8122 3.23479C65.0245 1.86816 63.7396 0.858427 62.2255 0.4162C60.745 -0.0731809 59.1282 0.14983 57.5857 0.0507152" fill="#263238"/>
<path d="M48.4486 28.7072C49.6318 29.3267 51.8743 26.886 52.6052 25.7647C53.256 24.5833 53.475 23.2122 53.2247 21.8868C53.0698 20.555 52.7167 19.2479 52.6858 17.9099C52.6424 15.7417 53.4601 13.6665 53.8442 11.5293C54.2562 9.20458 54.1568 6.81798 53.553 4.53552C53.3176 3.64968 52.9336 2.67711 52.0663 2.3426C51.7039 2.22163 51.3159 2.1986 50.9417 2.27584C50.5674 2.35307 50.2203 2.52784 49.9353 2.78242C49.3745 3.29968 48.9346 3.9342 48.6468 4.64083L47.9592 9.85676L48.4734 17.1603L48.4486 28.7072Z" fill="#263238"/>
<path d="M79.6326 56.2116L82.7919 66.9904C82.7919 66.9904 66.2583 73.0054 57.307 72.8939C48.9132 72.7948 46.5096 71.8408 43.561 65.0638C40.6123 58.2868 37.2424 50.5063 36.5548 46.0276C36.5548 46.0276 29.8088 27.3072 47.8725 29.1532L50.3503 43.401C50.3503 43.401 52.3512 50.0107 52.4937 50.3948C53.8441 53.963 55.591 59.1913 57.2822 59.8231C58.9734 60.455 79.6326 56.2116 79.6326 56.2116Z" fill="#1C1C1C"/>
<path d="M79.6328 56.2117C79.4927 56.2644 79.3473 56.3018 79.1992 56.3232L77.9602 56.5896C76.8576 56.8188 75.2594 57.1595 73.2771 57.6179C71.2948 58.0763 68.9408 58.64 66.2399 59.1356C63.307 59.7173 60.3217 59.9934 57.3319 59.9595H57.2266L57.1894 59.8604C56.8487 58.9745 56.4894 58.0391 56.1487 57.0851C53.77 50.4011 51.9611 44.2559 50.4992 39.8577C49.7744 37.6524 49.1673 35.8745 48.7337 34.6542C48.5293 34.0347 48.362 33.5949 48.2381 33.248C48.1709 33.0859 48.119 32.918 48.0833 32.7462C48.0833 32.7462 48.1638 32.9073 48.3001 33.2232C48.4363 33.5391 48.6222 34.0037 48.8514 34.6108C49.3222 35.8188 49.9602 37.5843 50.7098 39.7834C52.2337 44.1692 54.0797 50.3144 56.4523 56.9736C56.793 57.9276 57.1461 58.8321 57.4868 59.7427L57.3381 59.6436C60.3076 59.6805 63.2732 59.419 66.1903 58.863C68.8664 58.3798 71.239 57.8285 73.2337 57.4135C75.2284 56.9984 76.8266 56.6763 77.9417 56.4781L79.2178 56.2736C79.3549 56.2456 79.4934 56.2249 79.6328 56.2117Z" fill="#263238"/>
<path d="M82.792 66.9906C82.6383 67.0798 82.4765 67.1545 82.3088 67.2136C81.9867 67.3499 81.5097 67.5357 80.8903 67.765C79.6513 68.2234 77.8301 68.8304 75.5566 69.4933C73.2832 70.1561 70.5637 70.8809 67.5345 71.649C64.2576 72.5634 60.8981 73.1506 57.5053 73.4021C56.6087 73.4447 55.7101 73.422 54.8168 73.334C53.942 73.2537 53.0794 73.0729 52.246 72.795C50.6852 72.2299 49.2546 71.3555 48.0398 70.2242C46.03 68.2853 44.3554 66.0267 43.0841 63.5402C41.969 61.4526 41.2257 59.6933 40.6929 58.4729C40.4389 57.8534 40.2469 57.3888 40.123 57.0605C40.0481 56.9012 39.988 56.7353 39.9434 56.5649C40.038 56.7133 40.1168 56.8711 40.1788 57.0357C40.3336 57.3826 40.5442 57.841 40.7982 58.4233C41.3496 59.6251 42.1363 61.3658 43.2761 63.4349C44.5609 65.878 46.2347 68.0958 48.2319 70.0012C49.4232 71.0912 50.8193 71.9334 52.3389 72.4791C53.1426 72.7445 53.9739 72.917 54.8168 72.9933C55.6956 73.0813 56.5798 73.1041 57.4619 73.0614C60.8325 72.8131 64.1707 72.2363 67.4292 71.3393C70.4646 70.5897 73.1903 69.8959 75.4823 69.2579C77.7743 68.6198 79.5832 68.0189 80.8345 67.6287L82.2717 67.1331C82.4412 67.0723 82.6152 67.0246 82.792 66.9906Z" fill="#263238"/>
<path opacity="0.2" d="M42.9417 63.4287C42.9417 63.4287 46.039 75.3225 54.0921 75.0809C62.1452 74.8393 69.7089 71.3951 69.7089 71.3951L69.3496 71.0234C69.3496 71.0234 55.7213 73.9597 51.9363 72.1137C44.7443 68.6199 42.9417 63.4287 42.9417 63.4287Z" fill="black"/>
<path d="M81.6707 65.7514H84.2044C86.5026 65.5284 87.7849 65.4912 88.4292 64.8841C89.2902 64.0602 88.107 63.2611 88.107 63.2611C88.107 63.2611 89.7672 62.685 89.6123 61.6753C89.507 60.9815 88.7203 60.9071 88.7203 60.9071C88.7203 60.9071 90.1884 60.331 90.4796 59.7177C90.8699 58.8877 89.8601 58.4416 89.8601 58.4416C91.861 57.2027 91.6814 55.9638 91.2168 55.8646C90.7522 55.7655 89.1973 56.4841 89.1973 56.4841C87.8778 56.862 84.2787 57.9585 85.6106 55.9762C86.9424 53.9939 87.2212 51.9682 86.9176 51.3673C86.8328 51.2366 86.7092 51.1355 86.5642 51.0783C86.4192 51.021 86.26 51.0104 86.1087 51.0479C85.9574 51.0854 85.8215 51.1691 85.72 51.2874C85.6185 51.4057 85.5564 51.5528 85.5424 51.708C85.3369 52.4877 85.022 53.2344 84.607 53.9257C84.2938 54.4951 83.8876 55.008 83.4053 55.4434C82.8415 55.9452 82.3398 56.3478 81.9123 56.6824L79.6575 58.8505L81.6707 65.7514Z" fill="#FFBE9D"/>
</svg>
