<svg width="22" height="22" viewBox="0 0 22 22" fill="none" xmlns="http://www.w3.org/2000/svg">
<path d="M11 7.3335V1.8335L9.16667 3.66683" stroke="black" stroke-width="1.5" stroke-linecap="round" stroke-linejoin="round"/>
<path d="M11 1.8335L12.8333 3.66683" stroke="black" stroke-width="1.5" stroke-linecap="round" stroke-linejoin="round"/>
<path d="M2.75 14.6667V15.5833C2.75 18.1133 2.75 20.1667 7.33333 20.1667H14.6667C18.3333 20.1667 19.25 18.1133 19.25 15.5833V14.6667C19.25 12.6408 19.25 11 15.5833 11C14.6667 11 14.41 11.1925 13.9333 11.55L12.9983 12.54C11.9167 13.695 10.0833 13.695 8.9925 12.54L8.06667 11.55C7.59 11.1925 7.33333 11 6.41667 11C2.75 11 2.75 12.6408 2.75 14.6667Z" stroke="black" stroke-width="1.5" stroke-linecap="round" stroke-linejoin="round"/>
<path d="M4.58333 11V9.16662C4.58333 7.32412 4.58333 5.80245 7.33333 5.53662" stroke="black" stroke-width="1.5" stroke-linecap="round" stroke-linejoin="round"/>
<path d="M17.4167 11V9.16662C17.4167 7.32412 17.4167 5.80245 14.6667 5.53662" stroke="black" stroke-width="1.5" stroke-linecap="round" stroke-linejoin="round"/>
</svg>
