<svg width="280" height="227" viewBox="0 0 280 227" fill="none" xmlns="http://www.w3.org/2000/svg">
<path d="M280 225.039C280 225.136 217.318 225.22 140.009 225.22C62.7007 225.22 0 225.136 0 225.039C0 224.941 62.6733 224.858 140.005 224.858C217.336 224.858 280 224.934 280 225.039Z" fill="#263238"/>
<path d="M199.835 18.1726C201.716 19.8515 200.246 22.1992 201.228 22.6171C202.226 23.1024 203.065 23.8609 203.648 24.8043C204.232 25.7477 204.535 26.8373 204.524 27.9464C204.475 29.9318 202.664 31.7222 203.13 33.6518C203.472 35.0451 204.837 35.8602 205.778 36.933C208.202 39.7195 207.519 44.2546 205.081 46.9924C202.643 49.7302 198.888 50.9493 195.251 51.4996C189.971 52.2861 184.581 51.8766 179.48 50.3014C177.25 49.6048 175.014 48.6573 173.426 46.9506C171.837 45.2438 171.029 42.6245 171.991 40.4928C172.687 38.9114 174.324 37.546 174.039 35.8323C173.803 35.071 173.486 34.3375 173.091 33.6449C172.395 31.8824 173.043 29.8552 174.053 28.2459C175.063 26.6367 176.414 25.2574 177.292 23.5715C178.17 21.8857 178.497 19.7191 177.404 18.1656" fill="#1C1C1C"/>
<path d="M205.931 46.9406C205.931 46.9406 221.612 61.3609 222.072 59.6681C224.587 50.4865 224.28 38.6646 224.044 34.1295C223.8 33.7394 223.521 33.3005 223.194 32.8198C222.814 32.2642 222.343 31.7767 221.8 31.3778C221.147 30.8535 220.425 30.42 219.655 30.089C218.916 29.8591 218.826 28.8699 219.481 28.654C220.136 28.438 222.17 29.0162 224.03 30.6672C225.89 32.3183 225.221 28.5077 224.998 27.1144C224.775 25.7211 224.301 21.395 224.678 20.9979C225.228 20.4197 225.973 20.9143 226.154 22.3076C226.336 23.7009 227.199 27.8459 227.931 27.7135C228.662 27.5811 227.436 20.5173 227.436 20.5173C227.436 20.5173 226.935 19.0404 227.771 18.8593C229.282 18.5319 230.021 26.1321 230.07 26.8566C230.111 27.3582 230.905 27.2398 230.843 26.7034C230.78 26.167 229.45 19.6743 231.003 19.326C232.18 19.0613 231.665 25.5957 232.682 26.787C233.699 27.9782 232.57 21.7921 233.706 21.5901C234.131 21.5135 234.458 21.5135 234.598 25.1499C234.569 28.0792 234.381 31.0048 234.033 33.9135C234.73 43.9242 235.859 74.5273 222.086 73.0923C205.834 71.3995 202.441 58.4629 202.441 58.4629L205.931 46.9406Z" fill="#FFBE9D"/>
<path d="M148.029 81.913C146.169 79.7698 145.15 77.0248 145.16 74.1874C145.171 71.3499 146.209 68.6124 148.084 66.4826L157.837 55.427L166.322 63.3965C165.981 63.6264 157.231 74.7447 157.231 74.7447L169.457 89.9731C170.386 91.1305 171.005 92.5043 171.259 93.9662C171.512 95.4281 171.391 96.9304 170.906 98.3327L167.639 106.33L158.701 102.317L159.398 101.273H166.113L166.51 99.6633L148.029 81.913Z" fill="#FFBE9D"/>
<path d="M177.647 222.277L177.682 215.847H189.726L189.775 225.251L189.03 225.3C185.707 225.488 172.116 225.997 169.893 225.349C167.413 224.59 177.647 222.277 177.647 222.277Z" fill="#1C1C1C"/>
<g opacity="0.6">
<path d="M185.423 225.302C185.599 224.286 186.145 223.37 186.956 222.732C187.745 222.105 188.737 221.793 189.742 221.854V225.219L185.423 225.302Z" fill="white"/>
</g>
<g opacity="0.6">
<path d="M172.667 223.578C172.667 223.578 169.079 224.616 169.525 225.201C169.971 225.786 183.729 225.779 189.797 225.236V224.971L173.774 225.125C173.774 225.125 173.363 223.606 172.667 223.578Z" fill="white"/>
</g>
<path d="M189.857 224.87H189.655L189.056 224.912L186.868 225.003C185.022 225.073 182.466 225.135 179.637 225.142C176.809 225.149 174.259 225.1 172.406 225.038L170.219 224.947L169.627 224.912H169.418H170.219L172.413 224.954C174.259 224.989 176.816 225.024 179.637 225.017C182.459 225.01 185.015 224.968 186.861 224.926L189.056 224.87H189.857Z" fill="#263238"/>
<path d="M173.735 225.362C173.644 224.997 173.505 224.646 173.324 224.317C173.106 224.01 172.856 223.728 172.579 223.474C172.952 223.616 173.261 223.888 173.45 224.24C173.681 224.565 173.783 224.965 173.735 225.362Z" fill="#263238"/>
<path d="M177.517 223.268C177.482 223.268 177.315 223.08 177.134 222.802C177.01 222.644 176.922 222.461 176.876 222.265C176.911 222.265 177.085 222.446 177.259 222.725C177.433 223.004 177.552 223.268 177.517 223.268Z" fill="#263238"/>
<path d="M178.49 222.752C178.49 222.787 178.274 222.661 178.065 222.473C177.856 222.285 177.71 222.111 177.738 222.083C177.766 222.055 177.954 222.174 178.163 222.362C178.372 222.55 178.518 222.724 178.49 222.752Z" fill="#263238"/>
<path d="M179.103 221.611C178.903 221.687 178.688 221.715 178.476 221.695C178.262 221.718 178.046 221.694 177.842 221.625C178.045 221.555 178.261 221.528 178.476 221.548C178.687 221.52 178.902 221.541 179.103 221.611Z" fill="#263238"/>
<path d="M179.314 220.817C179.108 220.953 178.865 221.024 178.617 221.019C178.381 221.056 178.139 221.024 177.921 220.928C178.151 220.888 178.384 220.87 178.617 220.872C178.847 220.831 179.08 220.812 179.314 220.817Z" fill="#263238"/>
<path d="M177.102 222.221C176.846 222.263 176.585 222.263 176.329 222.221C176.05 222.188 175.774 222.127 175.507 222.04C175.342 221.998 175.182 221.935 175.033 221.852C174.942 221.796 174.873 221.71 174.838 221.608C174.827 221.551 174.833 221.492 174.854 221.438C174.875 221.384 174.91 221.337 174.956 221.302C175.147 221.211 175.356 221.163 175.567 221.161C175.779 221.16 175.988 221.205 176.18 221.293C176.372 221.382 176.543 221.511 176.679 221.673C176.815 221.835 176.915 222.024 176.97 222.228C176.97 222.361 176.97 222.437 176.97 222.437C176.902 222.184 176.784 221.947 176.621 221.741C176.446 221.538 176.216 221.391 175.96 221.316C175.809 221.264 175.649 221.242 175.49 221.253C175.331 221.264 175.175 221.307 175.033 221.378C174.915 221.469 174.963 221.615 175.096 221.692C175.235 221.77 175.382 221.833 175.535 221.88C175.794 221.968 176.06 222.038 176.329 222.089C176.809 222.194 177.102 222.194 177.102 222.221Z" fill="#263238"/>
<path d="M176.901 222.255C176.807 222.093 176.775 221.902 176.811 221.719C176.838 221.516 176.912 221.323 177.027 221.154C177.09 221.038 177.182 220.94 177.295 220.871C177.407 220.801 177.536 220.762 177.668 220.757C177.746 220.776 177.815 220.823 177.859 220.891C177.903 220.958 177.919 221.04 177.905 221.119C177.889 221.241 177.846 221.358 177.779 221.461C177.674 221.632 177.55 221.79 177.41 221.934C177.29 222.072 177.14 222.18 176.971 222.248C176.971 222.248 177.124 222.109 177.333 221.858C177.459 221.717 177.569 221.563 177.661 221.398C177.765 221.231 177.835 220.938 177.661 220.903C177.487 220.869 177.271 221.078 177.152 221.231C177.045 221.381 176.972 221.552 176.936 221.732C176.912 221.906 176.901 222.08 176.901 222.255Z" fill="#263238"/>
<path d="M189.942 221.81C189.942 221.81 189.594 221.81 189.051 221.81C188.342 221.897 187.67 222.177 187.107 222.618C186.553 223.065 186.136 223.659 185.902 224.331C185.714 224.847 185.7 225.195 185.672 225.195C185.659 225.114 185.659 225.032 185.672 224.951C185.69 224.729 185.732 224.51 185.798 224.297C186.02 223.592 186.444 222.967 187.017 222.499C187.597 222.042 188.3 221.768 189.037 221.712C189.268 221.687 189.502 221.687 189.734 221.712C189.859 221.775 189.942 221.796 189.942 221.81Z" fill="#263238"/>
<path d="M188.686 216.414C188.772 217.236 188.809 218.062 188.797 218.887C188.835 219.714 188.821 220.542 188.755 221.367C188.677 220.543 188.642 219.715 188.651 218.887C188.617 218.063 188.629 217.237 188.686 216.414Z" fill="#263238"/>
<path d="M184.135 223.735C183.56 223.868 182.97 223.926 182.38 223.909C181.789 223.944 181.196 223.897 180.617 223.77C180.617 223.728 181.412 223.77 182.38 223.77C183.348 223.77 184.135 223.693 184.135 223.735Z" fill="#263238"/>
<path d="M186.522 223.728C186.557 223.728 186.46 223.895 186.383 224.076C186.306 224.257 186.258 224.418 186.216 224.411C186.174 224.404 186.153 224.223 186.216 224.014C186.279 223.805 186.474 223.7 186.522 223.728Z" fill="#263238"/>
<path d="M187.385 222.626C187.385 222.626 187.336 222.779 187.211 222.905C187.085 223.03 186.96 223.114 186.932 223.079C186.904 223.044 186.981 222.926 187.106 222.8C187.232 222.675 187.357 222.577 187.385 222.626Z" fill="#263238"/>
<path d="M188.653 222.113C188.653 222.155 188.486 222.155 188.311 222.217C188.137 222.28 188.005 222.371 187.977 222.343C187.949 222.315 188.047 222.148 188.263 222.078C188.479 222.008 188.667 222.071 188.653 222.113Z" fill="#263238"/>
<path d="M189.541 221.873C189.541 221.912 189.489 221.97 189.392 222.003C189.295 222.035 189.217 222.042 189.204 222.003C189.191 221.964 189.249 221.906 189.347 221.873C189.444 221.841 189.522 221.834 189.541 221.873Z" fill="#263238"/>
<path d="M214.563 222.662V216.232H202.483L202.434 225.644L203.187 225.692C206.51 225.874 220.094 226.389 222.316 225.734C224.796 224.975 214.563 222.662 214.563 222.662Z" fill="#1C1C1C"/>
<g opacity="0.6">
<path d="M206.793 225.688C206.615 224.67 206.067 223.754 205.254 223.117C204.465 222.49 203.472 222.178 202.467 222.239V225.611L206.793 225.688Z" fill="white"/>
</g>
<g opacity="0.6">
<path d="M219.552 223.97C219.552 223.97 223.133 225.008 222.687 225.6C222.241 226.192 208.489 226.171 202.422 225.6V225.335L218.444 225.489C218.444 225.489 218.848 223.97 219.552 223.97Z" fill="white"/>
</g>
<path d="M202.349 225.256H202.558L203.15 225.291L205.338 225.389C207.191 225.458 209.748 225.514 212.569 225.521C215.39 225.528 217.947 225.479 219.8 225.416L221.987 225.326H222.587H222.789H221.987L219.8 225.368C217.947 225.368 215.39 225.437 212.569 225.43C209.748 225.423 207.191 225.382 205.345 225.34L203.15 225.291H202.558L202.349 225.256Z" fill="#263238"/>
<path d="M218.48 225.747C218.582 225.385 218.719 225.035 218.891 224.702C219.104 224.392 219.357 224.111 219.643 223.866C219.265 223.998 218.951 224.269 218.766 224.625C218.539 224.952 218.437 225.351 218.48 225.747Z" fill="#263238"/>
<path d="M214.698 223.654C214.698 223.654 214.907 223.466 215.081 223.194C215.256 222.922 215.374 222.672 215.339 222.651C215.304 222.63 215.137 222.839 214.956 223.11C214.832 223.271 214.744 223.456 214.698 223.654Z" fill="#263238"/>
<path d="M213.725 223.137C213.725 223.137 213.941 223.04 214.15 222.852C214.359 222.664 214.498 222.49 214.477 222.462C214.457 222.434 214.255 222.559 214.052 222.74C213.85 222.922 213.69 223.103 213.725 223.137Z" fill="#263238"/>
<path d="M213.104 221.996C213.305 222.07 213.519 222.099 213.731 222.08C213.945 222.104 214.161 222.083 214.365 222.017C214.165 221.941 213.951 221.913 213.738 221.933C213.525 221.905 213.308 221.926 213.104 221.996Z" fill="#263238"/>
<path d="M212.895 221.182C213.102 221.318 213.344 221.391 213.592 221.391C213.829 221.423 214.07 221.389 214.289 221.293C214.059 221.255 213.825 221.238 213.592 221.244C213.362 221.202 213.129 221.181 212.895 221.182Z" fill="#263238"/>
<path d="M215.083 222.575C215.339 222.619 215.601 222.619 215.857 222.575C216.137 222.535 216.414 222.474 216.686 222.394C216.849 222.343 217.008 222.278 217.159 222.199C217.25 222.144 217.317 222.057 217.347 221.955C217.361 221.898 217.356 221.838 217.335 221.783C217.314 221.729 217.277 221.682 217.229 221.648C216.935 221.498 216.597 221.456 216.276 221.531C215.954 221.607 215.67 221.794 215.473 222.059C215.355 222.212 215.27 222.387 215.223 222.575C215.204 222.643 215.204 222.715 215.223 222.784C215.305 222.548 215.425 222.327 215.578 222.129C215.752 221.924 215.982 221.774 216.24 221.697C216.389 221.645 216.548 221.624 216.706 221.635C216.864 221.645 217.018 221.688 217.159 221.76C217.285 221.85 217.236 221.996 217.097 222.08C216.959 222.155 216.814 222.215 216.665 222.261C216.404 222.353 216.136 222.422 215.864 222.47C215.404 222.575 215.083 222.575 215.083 222.575Z" fill="#263238"/>
<path d="M215.31 222.648C215.406 222.484 215.438 222.29 215.4 222.104C215.373 221.903 215.301 221.711 215.191 221.54C215.124 221.426 215.029 221.33 214.916 221.261C214.804 221.192 214.676 221.151 214.543 221.143C214.466 221.163 214.398 221.211 214.355 221.278C214.311 221.345 214.294 221.426 214.307 221.505C214.325 221.627 214.37 221.744 214.439 221.846C214.538 222.02 214.66 222.179 214.801 222.32C214.922 222.459 215.075 222.567 215.247 222.634C215.247 222.634 215.094 222.494 214.878 222.25C214.754 222.107 214.647 221.951 214.557 221.784C214.446 221.617 214.376 221.324 214.557 221.289C214.738 221.254 214.947 221.463 215.066 221.617C215.174 221.768 215.248 221.942 215.282 222.125C215.308 222.298 215.317 222.473 215.31 222.648Z" fill="#263238"/>
<path d="M202.272 222.192C202.272 222.192 202.613 222.158 203.156 222.227C203.866 222.308 204.54 222.585 205.1 223.028C205.65 223.481 206.069 224.073 206.312 224.742C206.493 225.258 206.514 225.606 206.542 225.606C206.551 225.525 206.551 225.443 206.542 225.362C206.522 225.142 206.477 224.925 206.41 224.714C206.194 224.006 205.769 223.38 205.191 222.917C204.613 222.455 203.909 222.178 203.17 222.123C202.95 222.1 202.728 222.1 202.508 222.123C202.426 222.132 202.346 222.155 202.272 222.192Z" fill="#263238"/>
<path d="M203.527 216.8C203.441 217.621 203.406 218.447 203.422 219.273C203.373 220.099 203.373 220.927 203.422 221.753C203.509 220.932 203.544 220.106 203.527 219.28C203.576 218.454 203.576 217.626 203.527 216.8Z" fill="#263238"/>
<path d="M208.076 224.121C208.652 224.253 209.242 224.312 209.832 224.295C210.423 224.329 211.016 224.282 211.594 224.156C211.594 224.114 210.807 224.156 209.839 224.156C208.87 224.156 208.118 224.079 208.076 224.121Z" fill="#263238"/>
<path d="M205.712 224.113C205.712 224.113 205.775 224.281 205.858 224.462C205.942 224.643 205.984 224.803 206.025 224.796C206.067 224.789 206.081 224.608 206.025 224.399C205.97 224.19 205.74 224.085 205.712 224.113Z" fill="#263238"/>
<path d="M204.831 223.004C204.831 223.004 204.88 223.157 204.998 223.283C205.117 223.408 205.249 223.492 205.277 223.464C205.305 223.436 205.228 223.311 205.103 223.178C204.978 223.046 204.859 222.976 204.831 223.004Z" fill="#263238"/>
<path d="M203.558 222.499C203.558 222.54 203.725 222.54 203.899 222.603C204.073 222.666 204.206 222.756 204.24 222.728C204.275 222.701 204.171 222.54 203.948 222.464C203.725 222.387 203.544 222.464 203.558 222.499Z" fill="#263238"/>
<path d="M202.65 222.259C202.65 222.291 202.702 222.35 202.792 222.382C202.883 222.414 202.974 222.421 202.987 222.382C203 222.343 202.935 222.291 202.844 222.252C202.753 222.214 202.663 222.22 202.65 222.259Z" fill="#263238"/>
<path d="M167.152 96.5016L173.004 220.092L191.757 220.482L186.895 113.688L199.595 220.029L218.752 220.509L203.76 95.1501" fill="#455A64"/>
<path d="M181.831 220.268C181.734 220.268 180.389 192.654 178.836 158.588C177.282 124.523 176.105 96.8875 176.203 96.8805C176.3 96.8735 177.645 124.488 179.198 158.567C180.752 192.647 181.936 220.268 181.831 220.268Z" fill="#263238"/>
<path d="M209.837 219.277C209.732 219.277 206.354 192.464 202.32 159.366C198.287 126.269 195.068 99.4559 195.173 99.4141C195.277 99.3723 198.656 126.221 202.683 159.325C206.709 192.429 209.934 219.263 209.837 219.277Z" fill="#263238"/>
<path d="M179.288 37.6883L175.861 38.3153C172.181 38.9924 168.812 40.8222 166.24 43.54L153.903 58.2529L165.495 67.2256L171.897 59.7368C171.897 59.7368 170.97 64.3276 171.158 65.0312C171.473 65.8588 171.99 66.5942 172.663 67.1699L172.461 79.765L167.153 96.4842L203.761 96.8674L200.974 79.1171L201.49 61.0465L207.634 68.0128L218.126 55.6615L206.283 43.756C204.012 41.3845 201.218 39.5763 198.125 38.4755C196.62 37.9392 195.046 37.6202 193.451 37.5281" fill="#263238"/>
<path d="M195.275 66.266C195.027 66.5256 194.718 66.7196 194.376 66.8302C193.575 67.1605 192.711 67.3081 191.846 67.2623C190.98 67.2165 190.136 66.9785 189.375 66.5655C189.044 66.4036 188.757 66.1647 188.539 65.8689C189.574 66.4061 190.701 66.744 191.862 66.8651C193.027 66.8834 194.185 66.6801 195.275 66.266Z" fill="#FAFAFA"/>
<path d="M165.803 43.426C165.997 43.2968 166.215 43.209 166.444 43.1683C167.07 43.0292 167.722 43.0605 168.332 43.2588C168.791 43.4002 169.214 43.6371 169.574 43.9542C169.934 44.2712 170.223 44.661 170.422 45.098C170.667 45.641 170.774 46.2365 170.733 46.8311C170.691 47.4256 170.503 48.0006 170.185 48.5045C169.842 48.992 169.379 49.3832 168.841 49.6405C168.303 49.8979 167.708 50.0129 167.113 49.9744C166.628 49.9421 166.158 49.7952 165.742 49.5457C165.325 49.2962 164.974 48.9513 164.716 48.5393C164.364 47.9996 164.184 47.3655 164.201 46.7211C164.19 46.4803 164.241 46.2407 164.347 46.0245C164.382 46.0245 164.347 46.2753 164.347 46.7211C164.376 47.3288 164.576 47.9158 164.925 48.4139C165.171 48.7771 165.498 49.0782 165.88 49.2934C166.262 49.5086 166.689 49.632 167.127 49.6539C167.66 49.6795 168.191 49.5703 168.67 49.3366C169.15 49.1028 169.563 48.752 169.872 48.3164C170.158 47.8635 170.329 47.3474 170.37 46.8132C170.412 46.279 170.322 45.7428 170.108 45.2512C169.933 44.847 169.675 44.4839 169.351 44.1852C169.027 43.8865 168.645 43.6588 168.227 43.5166C167.659 43.3106 167.05 43.2437 166.451 43.3215C166.238 43.3707 166.021 43.4056 165.803 43.426Z" fill="#FAFAFA"/>
<path d="M181.736 46.659C181.808 46.6648 181.879 46.6837 181.945 46.7147C182.146 46.7842 182.336 46.8828 182.509 47.0073C183.057 47.3941 183.491 47.922 183.765 48.5351C184.038 49.1482 184.141 49.8238 184.062 50.4904C183.973 51.1262 183.699 51.7218 183.275 52.2042C182.808 52.7796 182.176 53.1986 181.464 53.405C180.752 53.6113 179.994 53.5952 179.292 53.3588C178.589 53.1223 177.976 52.6769 177.534 52.082C177.091 51.4872 176.841 50.7715 176.817 50.0307C176.766 49.3921 176.896 48.7521 177.194 48.1846C177.46 47.7006 177.829 47.28 178.273 46.9515C178.91 46.4761 179.68 46.2151 180.475 46.2061C180.688 46.1991 180.901 46.2202 181.109 46.2688C181.248 46.2688 181.318 46.3315 181.318 46.3455C181.318 46.3594 181.011 46.3037 180.482 46.3455C179.733 46.407 179.02 46.6908 178.434 47.1605C177.996 47.486 177.648 47.9179 177.424 48.4153C177.199 48.9127 177.106 49.4591 177.152 50.0028C177.178 50.6742 177.408 51.3218 177.811 51.8597C178.213 52.3976 178.77 52.8006 179.407 53.0151C180.043 53.2296 180.73 53.2456 181.376 53.061C182.022 52.8764 182.597 52.4998 183.024 51.9812C183.416 51.5541 183.673 51.021 183.763 50.4486C183.841 49.9451 183.802 49.4305 183.651 48.9439C183.442 48.2212 183.013 47.5812 182.425 47.1118C182.007 46.7913 181.722 46.6938 181.736 46.659Z" fill="#FAFAFA"/>
<path d="M166.873 56.154C166.873 56.154 166.956 56.154 167.089 56.2097C167.291 56.2779 167.481 56.3766 167.653 56.5023C168.311 56.9509 168.801 57.6051 169.046 58.3623C169.225 58.886 169.282 59.4434 169.213 59.9924C169.124 60.6282 168.85 61.2238 168.426 61.7061C167.959 62.2816 167.327 62.7006 166.615 62.9069C165.903 63.1133 165.145 63.0972 164.443 62.8607C163.741 62.6243 163.127 62.1788 162.685 61.584C162.243 60.9892 161.993 60.2735 161.968 59.5327C161.912 58.8938 162.043 58.2525 162.345 57.6866C162.67 57.0974 163.144 56.604 163.72 56.2556C164.296 55.9072 164.953 55.716 165.626 55.7012C165.837 55.6992 166.047 55.7226 166.253 55.7708C166.399 55.8056 166.469 55.8335 166.462 55.8405C166.455 55.8475 166.162 55.8405 165.633 55.8405C164.883 55.9019 164.168 56.183 163.578 56.6486C163.143 56.9782 162.797 57.4118 162.573 57.9097C162.349 58.4075 162.254 58.9536 162.296 59.4978C162.324 60.169 162.556 60.8159 162.959 61.353C163.363 61.8902 163.919 62.2924 164.556 62.5066C165.193 62.7209 165.88 62.7371 166.526 62.5532C167.172 62.3692 167.747 61.9938 168.175 61.4763C168.562 61.0457 168.818 60.5142 168.914 59.9437C168.988 59.4377 168.95 58.9216 168.802 58.432C168.591 57.712 168.163 57.0747 167.576 56.6068C167.151 56.2863 166.859 56.1888 166.873 56.154Z" fill="#FAFAFA"/>
<path d="M193.183 54.5329C193.183 54.5329 193.26 54.533 193.392 54.5887C193.593 54.6582 193.784 54.7568 193.956 54.8813C194.505 55.2681 194.939 55.796 195.212 56.4091C195.486 57.0222 195.589 57.6978 195.51 58.3644C195.42 59.0002 195.146 59.5958 194.723 60.0782C194.256 60.6536 193.624 61.0726 192.912 61.279C192.2 61.4853 191.442 61.4692 190.739 61.2328C190.037 60.9963 189.423 60.5509 188.981 59.9561C188.539 59.3612 188.289 58.6455 188.265 57.9047C188.208 57.2757 188.329 56.6434 188.613 56.0795C188.88 55.5955 189.248 55.1749 189.693 54.8464C190.329 54.371 191.1 54.11 191.894 54.101C192.107 54.094 192.321 54.1151 192.528 54.1637C192.668 54.1986 192.737 54.2264 192.737 54.2404C192.737 54.2543 192.431 54.1986 191.901 54.2404C191.153 54.3019 190.439 54.5857 189.853 55.0554C189.415 55.3809 189.068 55.8128 188.843 56.3102C188.619 56.8076 188.525 57.354 188.571 57.8977C188.598 58.5691 188.827 59.2167 189.23 59.7546C189.633 60.2925 190.189 60.6955 190.826 60.91C191.463 61.1245 192.15 61.1405 192.796 60.9559C193.442 60.7713 194.017 60.3947 194.444 59.8761C194.835 59.449 195.092 58.9159 195.182 58.3435C195.26 57.84 195.222 57.3254 195.071 56.8388C194.861 56.1161 194.433 55.4761 193.845 55.0067C193.49 54.6862 193.169 54.5678 193.183 54.5329Z" fill="#FAFAFA"/>
<path d="M209.829 52.902C209.904 52.9074 209.977 52.9262 210.045 52.9577C210.244 53.0317 210.434 53.1299 210.609 53.2503C211.158 53.637 211.591 54.165 211.863 54.7783C212.136 55.3917 212.237 56.0673 212.156 56.7335C212.069 57.37 211.795 57.9664 211.368 58.4472C210.887 59.0023 210.256 59.4067 209.55 59.6119C208.845 59.817 208.095 59.8141 207.391 59.6036C206.703 59.3419 206.105 58.8896 205.666 58.2998C205.227 57.71 204.965 57.0071 204.911 56.2737C204.861 55.6345 204.994 54.9944 205.294 54.4276C205.555 53.9413 205.924 53.5218 206.374 53.2015C207.006 52.7228 207.775 52.4592 208.568 52.4492C208.781 52.4453 208.994 52.4664 209.202 52.5119C209.341 52.5537 209.411 52.5746 209.411 52.5885C209.411 52.6024 209.104 52.5537 208.575 52.5885C207.827 52.6508 207.114 52.9346 206.527 53.4036C206.089 53.729 205.741 54.1609 205.517 54.6583C205.293 55.1557 205.199 55.7021 205.245 56.2458C205.302 56.9084 205.544 57.5418 205.943 58.0738C206.342 58.6058 206.882 59.0152 207.502 59.2553C208.14 59.4481 208.819 59.4542 209.46 59.2727C210.101 59.0912 210.676 58.7297 211.118 58.2312C211.51 57.8012 211.769 57.2663 211.863 56.6917C211.936 56.188 211.898 55.6744 211.752 55.187C211.539 54.4654 211.112 53.8261 210.526 53.3548C210.101 53.0413 209.815 52.9368 209.829 52.902Z" fill="#FAFAFA"/>
<path d="M199.36 42.7797C199.432 42.7856 199.503 42.8045 199.569 42.8354C199.768 42.9094 199.958 43.0076 200.133 43.128C200.793 43.5776 201.283 44.2348 201.526 44.995C201.708 45.5155 201.765 46.0715 201.693 46.6181C201.604 47.2539 201.33 47.8495 200.906 48.3319C200.424 48.8878 199.791 49.2922 199.084 49.4961C198.377 49.7001 197.626 49.695 196.921 49.4813C196.236 49.2205 195.638 48.7692 195.2 48.1805C194.762 47.5918 194.501 46.8903 194.448 46.1584C194.397 45.5198 194.527 44.8798 194.825 44.3123C195.152 43.7254 195.627 43.2341 196.202 42.8871C196.778 42.5401 197.434 42.3494 198.106 42.3338C198.317 42.3299 198.527 42.3509 198.733 42.3965C198.879 42.3965 198.949 42.4592 198.949 42.4732C198.949 42.4871 198.642 42.4383 198.113 42.4732C197.364 42.5334 196.65 42.8174 196.065 43.2882C195.627 43.6137 195.279 44.0456 195.055 44.543C194.83 45.0404 194.737 45.5868 194.783 46.1305C194.811 46.8007 195.042 47.4465 195.445 47.983C195.847 48.5195 196.403 48.9216 197.039 49.1365C197.674 49.3513 198.36 49.3688 199.005 49.1866C199.651 49.0045 200.226 48.6312 200.655 48.1159C201.043 47.6835 201.299 47.1493 201.394 46.5763C201.472 46.0728 201.434 45.5582 201.282 45.0716C201.073 44.3489 200.644 43.7089 200.056 43.2395C199.631 42.919 199.346 42.8424 199.36 42.7797Z" fill="#FAFAFA"/>
<path d="M195.866 71.5782C195.866 71.5782 195.943 71.5782 196.082 71.6339C196.284 71.7021 196.474 71.8008 196.646 71.9265C197.304 72.3751 197.794 73.0293 198.04 73.7865C198.218 74.3102 198.275 74.8676 198.207 75.4166C198.118 76.0538 197.841 76.6502 197.413 77.1303C196.944 77.7021 196.312 78.1176 195.601 78.3216C194.89 78.5257 194.134 78.5087 193.434 78.2728C192.733 78.0369 192.12 77.5934 191.678 77.0011C191.235 76.4088 190.983 75.6958 190.955 74.9568C190.905 74.3176 191.037 73.6772 191.338 73.1108C191.603 72.6254 191.972 72.2044 192.418 71.8777C193.056 71.404 193.825 71.141 194.619 71.1254C194.83 71.1234 195.041 71.1468 195.246 71.195C195.386 71.2298 195.462 71.2507 195.455 71.2647C195.448 71.2786 195.156 71.2298 194.619 71.2647C193.872 71.3275 193.16 71.6085 192.571 72.0728C192.136 72.4024 191.791 72.836 191.567 73.3338C191.343 73.8317 191.247 74.3778 191.289 74.922C191.316 75.5934 191.545 76.241 191.948 76.7789C192.351 77.3169 192.907 77.7198 193.544 77.9343C194.181 78.1488 194.868 78.1648 195.514 77.9802C196.16 77.7956 196.735 77.419 197.162 76.9005C197.553 76.4721 197.812 75.9399 197.907 75.3679C197.982 74.8619 197.944 74.3458 197.796 73.8562C197.587 73.1352 197.158 72.4973 196.57 72.031C196.145 71.7105 195.852 71.613 195.866 71.5782Z" fill="#FAFAFA"/>
<path d="M194.765 86.7337C194.765 86.7337 194.841 86.7337 194.981 86.7825C195.18 86.8564 195.37 86.9547 195.545 87.0751C196.093 87.463 196.526 87.991 196.799 88.6038C197.072 89.2166 197.176 89.8917 197.099 90.5582C197.005 91.21 196.719 91.8189 196.277 92.3068C195.808 92.88 195.176 93.2967 194.465 93.5013C193.754 93.7058 192.997 93.6884 192.296 93.4514C191.595 93.2144 190.982 92.769 190.541 92.1749C190.1 91.5807 189.85 90.8661 189.826 90.1263C189.771 89.4876 189.901 88.8465 190.202 88.2802C190.469 87.7982 190.837 87.3798 191.282 87.0542C191.916 86.574 192.688 86.3103 193.483 86.3018C193.694 86.2964 193.905 86.3198 194.11 86.3715C194.256 86.3715 194.326 86.4272 194.319 86.4411C194.312 86.4551 194.019 86.4063 193.49 86.4411C192.74 86.5054 192.025 86.7888 191.435 87.2562C190.999 87.5854 190.654 88.0189 190.43 88.5169C190.206 89.0148 190.111 89.5611 190.153 90.1054C190.211 90.7678 190.454 91.4006 190.854 91.9315C191.255 92.4624 191.796 92.8701 192.417 93.1079C193.054 93.2993 193.732 93.3046 194.371 93.1231C195.011 92.9417 195.585 92.581 196.026 92.0838C196.418 91.6538 196.677 91.1189 196.771 90.5443C196.844 90.0406 196.806 89.527 196.66 89.0396C196.45 88.3186 196.022 87.6807 195.434 87.2144C195.043 86.8521 194.751 86.7337 194.765 86.7337Z" fill="#FAFAFA"/>
<path d="M176.609 88.2362C176.681 88.2421 176.752 88.261 176.818 88.292C177.017 88.3659 177.207 88.4642 177.382 88.5845C178.042 89.0342 178.532 89.6913 178.775 90.4515C178.957 90.9721 179.014 91.528 178.942 92.0747C178.853 92.7104 178.579 93.3061 178.155 93.7884C177.673 94.3443 177.04 94.7487 176.333 94.9527C175.626 95.1567 174.875 95.1515 174.171 94.9378C173.485 94.677 172.888 94.2257 172.449 93.637C172.011 93.0484 171.75 92.3468 171.697 91.6149C171.646 90.9764 171.777 90.3363 172.074 89.7688C172.401 89.1819 172.876 88.6907 173.451 88.3437C174.027 87.9967 174.683 87.806 175.355 87.7904C175.566 87.7864 175.776 87.8075 175.982 87.8531C176.128 87.8531 176.198 87.9158 176.198 87.9297C176.198 87.9436 175.891 87.8949 175.362 87.9297C174.613 87.9899 173.899 88.2739 173.314 88.7448C172.876 89.0708 172.528 89.5026 172.303 89.9997C172.077 90.4968 171.982 91.0429 172.025 91.587C172.083 92.2502 172.326 92.8837 172.726 93.4157C173.127 93.9477 173.668 94.3567 174.289 94.5965C174.927 94.785 175.605 94.7889 176.245 94.6076C176.885 94.4264 177.46 94.0675 177.905 93.5725C178.292 93.14 178.548 92.6059 178.643 92.0329C178.721 91.5294 178.683 91.0147 178.531 90.5282C178.322 89.8055 177.893 89.1655 177.305 88.696C176.88 88.3756 176.588 88.2711 176.609 88.2362Z" fill="#FAFAFA"/>
<path d="M180.592 63.3368C180.592 63.3368 180.669 63.3368 180.808 63.3925C181.008 63.465 181.198 63.5634 181.372 63.6851C182.028 64.1357 182.518 64.7892 182.766 65.5451C182.941 66.0695 182.996 66.6268 182.926 67.1753C182.836 67.811 182.563 68.4066 182.139 68.889C181.67 69.4607 181.038 69.8762 180.327 70.0803C179.616 70.2844 178.86 70.2673 178.16 70.0314C177.459 69.7956 176.846 69.352 176.404 68.7597C175.961 68.1674 175.709 67.4544 175.681 66.7155C175.628 66.0761 175.761 65.4349 176.064 64.8694C176.386 64.2793 176.859 63.7853 177.434 63.4377C178.009 63.0901 178.666 62.9014 179.338 62.891C179.551 62.8836 179.765 62.9046 179.972 62.9537C180.112 62.9537 180.181 63.0164 180.181 63.0303C180.181 63.0442 179.875 62.9885 179.345 63.0303C178.597 63.0926 177.884 63.3764 177.297 63.8454C176.859 64.1708 176.512 64.6027 176.287 65.1001C176.063 65.5975 175.969 66.1439 176.015 66.6876C176.042 67.359 176.271 68.0066 176.674 68.5445C177.077 69.0825 177.633 69.4854 178.27 69.6999C178.907 69.9144 179.594 69.9305 180.24 69.7458C180.886 69.5612 181.461 69.1847 181.888 68.6661C182.281 68.2393 182.541 67.7064 182.633 67.1335C182.704 66.6293 182.664 66.1156 182.515 65.6287C182.305 64.9081 181.879 64.2689 181.296 63.7966C180.864 63.4692 180.578 63.3716 180.592 63.3368Z" fill="#FAFAFA"/>
<path d="M184.086 77.1809C184.086 77.1809 184.163 77.1809 184.302 77.2367C184.503 77.3077 184.693 77.4061 184.867 77.5292C185.522 77.9798 186.012 78.6333 186.26 79.3893C186.436 79.9136 186.49 80.4709 186.42 81.0194C186.336 81.6569 186.062 82.2542 185.633 82.7331C185.164 83.3048 184.532 83.7204 183.821 83.9244C183.111 84.1285 182.355 84.1114 181.654 83.8756C180.953 83.6397 180.34 83.1961 179.898 82.6038C179.455 82.0115 179.203 81.2986 179.175 80.5596C179.125 79.9204 179.258 79.2801 179.558 78.7135C179.821 78.2267 180.19 77.8052 180.638 77.4805C181.272 77.0064 182.041 76.7455 182.832 76.7351C183.046 76.7277 183.259 76.7488 183.466 76.7978C183.606 76.7978 183.675 76.8605 183.675 76.8744C183.675 76.8884 183.369 76.8326 182.839 76.8744C182.091 76.9368 181.378 77.2205 180.791 77.6895C180.353 78.0149 180.006 78.4468 179.781 78.9442C179.557 79.4416 179.463 79.9881 179.509 80.5318C179.566 81.1944 179.808 81.8277 180.207 82.3597C180.606 82.8917 181.146 83.3011 181.767 83.5412C182.405 83.7332 183.085 83.7381 183.725 83.5554C184.366 83.3726 184.941 83.0099 185.382 82.5102C185.775 82.0834 186.035 81.5505 186.128 80.9776C186.201 80.4739 186.163 79.9603 186.016 79.4729C185.796 78.7631 185.366 78.1366 184.783 77.6755C184.365 77.3133 184.072 77.2158 184.086 77.1809Z" fill="#FAFAFA"/>
<path d="M180.503 38.2384C180.503 35.9047 180.461 33.8705 180.461 33.8705C180.461 33.8705 175.745 33.369 175.459 28.6945C175.174 24.0201 175.459 13.2362 175.459 13.2362L184.049 9.0564L193.488 16.1969L192.492 38.4544C192.424 39.9976 191.763 41.4551 190.647 42.5231C189.531 43.5911 188.046 44.1874 186.501 44.1877C184.919 44.1877 183.4 43.5625 182.277 42.4482C181.154 41.3339 180.516 39.8207 180.503 38.2384Z" fill="#FFBE9D"/>
<path d="M176.771 20.6914C176.771 20.8099 176.806 20.9257 176.872 21.0242C176.938 21.1228 177.031 21.1996 177.141 21.2449C177.25 21.2902 177.371 21.3021 177.487 21.279C177.603 21.2559 177.71 21.1988 177.794 21.115C177.877 21.0312 177.934 20.9245 177.957 20.8083C177.981 20.6921 177.969 20.5716 177.923 20.4621C177.878 20.3527 177.801 20.2591 177.703 20.1933C177.604 20.1274 177.488 20.0923 177.37 20.0923C177.291 20.0923 177.213 20.1078 177.141 20.1379C177.068 20.168 177.002 20.2121 176.946 20.2678C176.891 20.3234 176.846 20.3894 176.816 20.4621C176.786 20.5348 176.771 20.6127 176.771 20.6914Z" fill="#263238"/>
<path d="M175.89 20.4448C175.966 20.5215 176.405 20.1453 177.053 20.1104C177.701 20.0756 178.175 20.3891 178.244 20.2985C178.314 20.208 178.196 20.1174 177.987 19.9711C177.7 19.7895 177.364 19.7018 177.025 19.7203C176.688 19.7431 176.366 19.8724 176.106 20.0895C175.911 20.2567 175.848 20.41 175.89 20.4448Z" fill="#263238"/>
<path d="M184.409 21.2905C184.74 21.2905 185.009 21.0223 185.009 20.6914C185.009 20.3605 184.74 20.0923 184.409 20.0923C184.079 20.0923 183.81 20.3605 183.81 20.6914C183.81 21.0223 184.079 21.2905 184.409 21.2905Z" fill="#263238"/>
<path d="M183.041 20.4448C183.118 20.5215 183.557 20.1453 184.204 20.1104C184.852 20.0756 185.333 20.3891 185.396 20.2985C185.458 20.208 185.354 20.1174 185.138 19.9711C184.851 19.7895 184.515 19.7018 184.177 19.7203C183.839 19.7431 183.517 19.8724 183.257 20.0895C183.041 20.2567 182.992 20.41 183.041 20.4448Z" fill="#263238"/>
<path d="M180.71 25.888C180.365 25.9794 180.007 26.01 179.651 25.9786C179.554 25.9911 179.456 25.9911 179.359 25.9786C179.292 25.9638 179.23 25.9333 179.178 25.8897C179.126 25.846 179.085 25.7905 179.059 25.7278C178.999 25.4959 179.019 25.2507 179.115 25.0312C179.254 24.5923 179.386 24.1534 179.533 23.6867C179.846 22.5181 180.275 21.3839 180.815 20.301C180.622 21.4908 180.31 22.6579 179.881 23.7842L179.435 25.1217C179.358 25.272 179.324 25.4409 179.338 25.6094C179.338 25.6999 179.491 25.7278 179.658 25.7417C180.015 25.7306 180.37 25.7801 180.71 25.888Z" fill="#263238"/>
<path d="M180.46 33.8712C182.61 33.7617 184.682 33.0362 186.43 31.7813C186.43 31.7813 185.156 35.2157 180.467 35.0206L180.46 33.8712Z" fill="#EB996E"/>
<path d="M200.41 20.0922V20.9212C200.312 20.0574 200.068 18.0929 199.929 17.5565C197.379 7.8036 188.783 5.98539 187.118 5.98539C185.3 5.98539 182.165 5.03796 177.483 9.80295C173.631 13.725 174.418 19.3468 174.418 19.3468L176.16 19.0891L183.001 17.3196C183.983 15.2297 184.45 13.6275 184.903 12.5616C185.217 14.4847 186.17 16.2456 187.609 17.5602C189.047 18.8747 190.887 19.6661 192.83 19.8066L192.705 33.7881C201.81 31.8514 200.41 20.0922 200.41 20.0922Z" fill="#1C1C1C"/>
<path d="M181.982 27.4405C181.812 27.3198 181.606 27.2622 181.399 27.2774C181.191 27.2927 180.996 27.3799 180.846 27.5241C180.708 27.6785 180.632 27.878 180.632 28.0849C180.632 28.2917 180.708 28.4912 180.846 28.6456C180.995 28.792 181.195 28.874 181.403 28.874C181.612 28.874 181.812 28.792 181.961 28.6456C182.051 28.5398 182.115 28.4133 182.145 28.2773C182.176 28.1412 182.172 27.9998 182.135 27.8654C182.057 27.5931 181.881 27.3596 181.64 27.2106" fill="#EB996E"/>
<path d="M182.493 26.4332C182.534 26.4332 182.548 26.6562 182.43 26.9697C182.28 27.3862 182.008 27.748 181.65 28.0076C181.282 28.2626 180.843 28.3966 180.396 28.3908C180.054 28.3908 179.859 28.3002 179.866 28.2515C180.417 28.1552 180.948 27.9718 181.441 27.7081C182.172 27.1856 182.388 26.3984 182.493 26.4332Z" fill="#263238"/>
<path d="M185.066 18.7695C184.996 18.8392 184.564 18.3863 183.881 18.3585C183.199 18.3306 182.732 18.7347 182.662 18.658C182.593 18.5814 182.697 18.4699 182.913 18.3027C183.195 18.0851 183.547 17.9763 183.902 17.9962C184.257 18.0141 184.594 18.1544 184.857 18.3933C185.052 18.5814 185.128 18.7416 185.066 18.7695Z" fill="#263238"/>
<path d="M198.407 17.8254C198.59 16.6869 199.049 15.6105 199.744 14.6906C200.099 14.2382 200.56 13.8806 201.086 13.6496C201.612 13.4187 202.188 13.3216 202.761 13.367C203.171 13.4238 203.562 13.5739 203.905 13.8057C204.248 14.0374 204.534 14.3446 204.739 14.7038C204.945 15.063 205.066 15.4645 205.092 15.8776C205.119 16.2908 205.05 16.7044 204.892 17.087C204.594 17.6911 204.121 18.1915 203.535 18.5233C202.948 18.855 202.276 19.0026 201.604 18.947C200.254 18.8051 199 18.1819 198.072 17.1915" fill="#1C1C1C"/>
<path d="M79.8442 37.9684L92.4951 36.7423C92.6553 35.3142 92.4045 28.3827 92.4045 28.3827C92.4045 28.3827 97.5596 27.8951 97.9288 22.8097C98.298 17.7242 98.1169 5.9302 98.1169 5.9302C95.2892 4.50832 92.1331 3.86714 88.9747 4.07288C85.8163 4.27863 82.7701 5.32383 80.1507 7.10054L79.3565 7.63695L79.8442 37.9684Z" fill="#B78876"/>
<path d="M95.1685 14.5445C95.0929 14.4762 95.0321 14.3931 94.9899 14.3004C94.9477 14.2077 94.9249 14.1073 94.923 14.0054C94.9211 13.9035 94.9401 13.8023 94.9789 13.7081C95.0176 13.6139 95.0752 13.5286 95.1482 13.4575C95.2212 13.3864 95.308 13.331 95.4032 13.2948C95.4985 13.2586 95.6001 13.2423 95.7019 13.2469C95.8037 13.2514 95.9035 13.2769 95.995 13.3215C96.0866 13.3662 96.1681 13.4292 96.2343 13.5065C96.3576 13.6504 96.4215 13.8358 96.4129 14.0251C96.4044 14.2144 96.3241 14.3933 96.1883 14.5255C96.0526 14.6577 95.8716 14.7332 95.6822 14.7368C95.4927 14.7403 95.3091 14.6716 95.1685 14.5445Z" fill="#263238"/>
<path d="M97.5546 13.4959C97.471 13.5795 96.9973 13.1684 96.2936 13.1197C95.59 13.0709 95.0536 13.4053 94.984 13.3147C94.9143 13.2242 95.0397 13.1127 95.2696 12.9595C95.5828 12.761 95.9514 12.6681 96.3212 12.6944C96.6911 12.7208 97.0427 12.8649 97.3247 13.1057C97.5337 13.2938 97.5964 13.461 97.5546 13.4959Z" fill="#263238"/>
<path d="M88.8132 13.656C88.9339 13.7407 89.0267 13.8594 89.08 13.9969C89.1332 14.1344 89.1445 14.2846 89.1124 14.4285C89.0802 14.5724 89.0061 14.7035 88.8994 14.8053C88.7928 14.9071 88.6583 14.975 88.513 15.0003C88.3678 15.0257 88.2182 15.0074 88.0834 14.9477C87.9485 14.8881 87.8344 14.7898 87.7554 14.6653C87.6764 14.5407 87.6362 14.3956 87.6397 14.2482C87.6432 14.1008 87.6904 13.9577 87.7752 13.8371C87.8901 13.677 88.0632 13.5684 88.2572 13.5345C88.4513 13.5007 88.651 13.5443 88.8132 13.656Z" fill="#263238"/>
<path d="M90.0787 13.6915C89.9881 13.7751 89.5144 13.3572 88.8108 13.3154C88.1072 13.2736 87.5708 13.601 87.5011 13.5035C87.4315 13.4059 87.5569 13.3084 87.7867 13.1551C88.0999 12.9567 88.4685 12.8638 88.8384 12.8901C89.2082 12.9165 89.5599 13.0606 89.8418 13.3014C90.0508 13.4895 90.1205 13.6567 90.0787 13.6915Z" fill="#263238"/>
<path d="M92.5433 19.661C92.9178 19.5464 93.3082 19.4923 93.6998 19.5008C93.8809 19.5008 94.0341 19.459 94.055 19.3545C94.0763 19.1677 94.0424 18.9788 93.9575 18.8111L93.4908 17.3482C93.041 16.1075 92.7098 14.8269 92.5015 13.5237C93.0669 14.7165 93.5194 15.9596 93.853 17.2367C94.0063 17.7453 94.1526 18.2329 94.2919 18.7066C94.3956 18.9487 94.4153 19.2185 94.3476 19.4729C94.3176 19.5403 94.2724 19.5999 94.2156 19.647C94.1588 19.6941 94.092 19.7275 94.0202 19.7446C93.9161 19.7572 93.8108 19.7572 93.7067 19.7446C93.317 19.7823 92.9237 19.7541 92.5433 19.661Z" fill="#263238"/>
<path d="M92.4411 28.3141C90.0791 28.2176 87.7994 27.4197 85.8928 26.0222C85.8928 26.0222 87.2442 29.791 92.3715 29.6377L92.4411 28.3141Z" fill="#A36957"/>
<path d="M80.3688 12.1475C80.2573 12.1057 76.5791 11.632 76.9344 15.972C77.2896 20.3121 81.56 18.5217 81.553 18.3963C81.5461 18.2709 80.3688 12.1475 80.3688 12.1475Z" fill="#B78876"/>
<path d="M80.0981 16.9864C80.0981 16.9864 80.0284 17.0491 79.903 17.1188C79.7282 17.2062 79.5273 17.226 79.3388 17.1745C79.0454 17.0175 78.7983 16.7863 78.6223 16.5039C78.4463 16.2215 78.3474 15.8979 78.3356 15.5653C78.2969 15.1937 78.3397 14.818 78.461 14.4646C78.4908 14.3256 78.5539 14.1959 78.6449 14.0867C78.736 13.9775 78.8521 13.892 78.9835 13.8377C79.0695 13.8091 79.1627 13.8108 79.2476 13.8424C79.3325 13.8741 79.404 13.9339 79.4502 14.0118C79.5129 14.1233 79.492 14.2138 79.5199 14.2208C79.5478 14.2278 79.6035 14.1372 79.5547 13.963C79.5225 13.8566 79.4533 13.7652 79.3597 13.7053C79.2335 13.6251 79.0809 13.5976 78.9347 13.6287C78.7657 13.683 78.6132 13.7792 78.4914 13.9083C78.3696 14.0374 78.2825 14.1952 78.2381 14.3671C78.0814 14.758 78.0239 15.1816 78.0709 15.6001C78.0814 15.9878 78.2059 16.3637 78.4289 16.6809C78.652 16.9981 78.9636 17.2425 79.3248 17.3835C79.4464 17.4118 79.573 17.4108 79.6942 17.3805C79.8153 17.3502 79.9275 17.2916 80.0215 17.2094C80.0981 17.07 80.119 16.9934 80.0981 16.9864Z" fill="#A36957"/>
<path d="M85.2143 3.13418C85.2143 3.13418 85.8622 -0.453491 93.8735 0.0480858C94.9775 0.122985 96.0272 0.554947 96.8641 1.27878C97.701 2.00262 98.2798 2.97905 98.5131 4.0607C98.9529 4.01962 99.3913 4.1528 99.7339 4.4316C100.077 4.71039 100.296 5.11252 100.345 5.5515C100.367 5.99243 100.273 6.4314 100.071 6.82405C99.8692 7.2167 99.5673 7.54912 99.1958 7.7877C98.4229 8.20569 97.5657 8.44382 96.6879 8.48433C91.3029 9.2785 87.5481 6.1715 84.7824 5.89285C82.0168 5.6142 82.9781 8.06635 82.9781 8.06635C83.828 12.6711 82.17 13.8554 80.8464 16.4817H80.1498L79.5228 12.8244C79.28 12.5116 79.1066 12.1506 79.0143 11.7655C78.5963 10.414 78.4779 8.97894 78.0111 7.65534C76.9104 4.55531 79.063 3.02271 79.063 3.02271C79.063 3.02271 80.0871 1.30203 85.2143 3.13418Z" fill="#263238"/>
<path d="M92.7409 21.1622C92.7409 21.197 92.6642 21.3572 92.3995 21.4896C92.2203 21.5731 92.026 21.6193 91.8284 21.6253C91.6308 21.6313 91.434 21.597 91.2501 21.5244C91.0674 21.4506 90.9012 21.3411 90.7612 21.2024C90.6213 21.0636 90.5104 20.8984 90.435 20.7163C90.3305 20.4377 90.3654 20.2496 90.435 20.2426C90.5047 20.2356 90.6997 20.9392 91.4033 21.19C92.1069 21.4408 92.6921 21.0786 92.7409 21.1622Z" fill="#263238"/>
<path d="M89.3052 10.8696C89.2564 10.9671 88.7549 10.793 88.1279 10.8696C87.5009 10.9462 87.0272 11.1552 86.9645 11.0716C86.9018 10.988 87.3616 10.5631 88.1 10.5074C88.8385 10.4516 89.3609 10.7999 89.3052 10.8696Z" fill="#263238"/>
<path d="M96.5627 10.8324C96.5139 10.9229 96.0541 10.7488 95.4829 10.6861C94.9117 10.6234 94.424 10.6861 94.3892 10.5886C94.3543 10.491 94.8559 10.2542 95.5177 10.3308C96.1795 10.4074 96.6114 10.7488 96.5627 10.8324Z" fill="#263238"/>
<path d="M85.7486 0.109312C85.7486 0.158076 85.5257 0.151108 85.261 0.325267C85.1015 0.448802 84.974 0.60881 84.8891 0.791852C84.8042 0.974894 84.7646 1.17563 84.7734 1.37719C84.7696 1.80138 84.8829 2.2184 85.1008 2.58236C85.268 2.86798 85.4212 3.02125 85.3934 3.06304C85.3655 3.10484 85.1426 3.01428 84.8918 2.72866C84.5599 2.34202 84.3858 1.84459 84.4041 1.33539C84.3984 1.07745 84.4644 0.822992 84.5948 0.600361C84.7252 0.37773 84.9148 0.195674 85.1426 0.0744778C85.5188 -0.057883 85.7695 0.0675135 85.7486 0.109312Z" fill="#263238"/>
<path d="M87.3549 222.115V215.685L75.3101 215.56L75.1708 224.964L75.9162 225.027C79.2391 225.243 92.8235 225.905 95.0527 225.257C97.5676 224.532 87.3549 222.115 87.3549 222.115Z" fill="#1C1C1C"/>
<g opacity="0.4">
<path d="M79.5629 224.92C79.3955 223.901 78.857 222.981 78.0512 222.336C77.2711 221.691 76.2748 221.367 75.2647 221.43L75.2229 224.795L79.5629 224.92Z" fill="black"/>
</g>
<path opacity="0.4" d="M92.341 223.474C92.341 223.474 95.9217 224.546 95.4689 225.132C95.0161 225.717 81.2575 225.564 75.1968 224.964V224.7L91.2194 225.013C91.2194 225.013 91.6444 223.495 92.341 223.474Z" fill="black"/>
<path d="M75.0263 224.662H75.2353L75.8275 224.704L78.0149 224.822C79.868 224.913 82.4176 224.996 85.246 225.031C88.0743 225.066 90.624 225.031 92.4771 224.996L94.6645 224.927H95.2636H95.4656C95.3987 224.916 95.3305 224.916 95.2636 224.927H94.6645H92.4771C90.624 224.927 88.0674 224.927 85.246 224.927C82.4246 224.927 79.868 224.822 78.0219 224.759L75.8275 224.69H75.2353C75.1669 224.673 75.0968 224.663 75.0263 224.662Z" fill="#263238"/>
<path d="M91.255 225.204C91.4163 224.463 91.833 223.802 92.4324 223.337C92.0542 223.466 91.7401 223.735 91.5546 224.089C91.3197 224.411 91.213 224.808 91.255 225.204Z" fill="#263238"/>
<path d="M87.7214 223.36C87.7562 223.36 87.9234 223.172 88.1045 222.9C88.2857 222.629 88.4041 222.385 88.3693 222.364C88.3344 222.343 88.1603 222.545 87.9861 222.817C87.812 223.088 87.6866 223.332 87.7214 223.36Z" fill="#263238"/>
<path d="M86.7553 222.83C86.7553 222.83 86.9712 222.733 87.1802 222.552C87.3892 222.37 87.5355 222.196 87.5146 222.161C87.4937 222.127 87.2917 222.259 87.0827 222.44C86.8737 222.621 86.7274 222.802 86.7553 222.83Z" fill="#263238"/>
<path d="M86.1477 221.687C86.3475 221.762 86.562 221.791 86.7746 221.771C86.9875 221.799 87.204 221.78 87.4086 221.715C86.9945 221.613 86.5618 221.613 86.1477 221.715V221.687Z" fill="#263238"/>
<path d="M85.9455 220.881C86.1504 221.022 86.3934 221.098 86.6421 221.097C86.8782 221.134 87.12 221.103 87.3388 221.007C87.1087 220.967 86.8756 220.948 86.6421 220.951C86.4122 220.909 86.1792 220.886 85.9455 220.881Z" fill="#263238"/>
<path d="M88.1397 222.314C88.3953 222.36 88.6573 222.36 88.9129 222.314C89.1943 222.283 89.472 222.225 89.7419 222.14C89.9067 222.096 90.0657 222.033 90.2156 221.951C90.3079 221.9 90.3774 221.815 90.4107 221.715C90.4243 221.657 90.421 221.597 90.4012 221.541C90.3814 221.486 90.346 221.437 90.2992 221.401C90.0062 221.247 89.6679 221.203 89.3449 221.275C89.022 221.348 88.7355 221.533 88.5367 221.798C88.4158 221.95 88.328 222.126 88.279 222.314C88.2442 222.446 88.2442 222.523 88.279 222.523C88.3555 222.282 88.4759 222.058 88.6343 221.861C88.8221 221.658 89.0637 221.513 89.3309 221.443C89.6345 221.343 89.9653 221.368 90.2505 221.513C90.3759 221.61 90.3271 221.749 90.1878 221.833C90.0464 221.905 89.8997 221.965 89.7489 222.014C89.488 222.102 89.22 222.168 88.9478 222.209C88.4392 222.293 88.1397 222.293 88.1397 222.314Z" fill="#263238"/>
<path d="M88.3385 222.354C88.4357 222.193 88.4704 222.002 88.436 221.817C88.4132 221.615 88.3415 221.422 88.227 221.253C88.1633 221.137 88.0711 221.039 87.9589 220.968C87.8468 220.897 87.7185 220.856 87.5861 220.849C87.5086 220.867 87.4407 220.914 87.3956 220.98C87.3505 221.045 87.3315 221.125 87.3423 221.204C87.3618 221.328 87.4069 221.447 87.4747 221.553C87.5736 221.726 87.6954 221.886 87.8369 222.026C87.9535 222.167 88.1048 222.275 88.2758 222.34C88.2758 222.34 88.1226 222.201 87.9066 221.957C87.7855 221.811 87.6804 221.652 87.5931 221.483C87.4886 221.323 87.419 221.023 87.5931 220.995C87.7673 220.968 87.9832 221.17 88.0947 221.33C88.2045 221.478 88.2785 221.65 88.3106 221.831C88.3348 222.004 88.3441 222.179 88.3385 222.354Z" fill="#263238"/>
<path d="M75.3142 221.396C75.3142 221.396 75.6555 221.396 76.1989 221.437C76.9085 221.525 77.5793 221.81 78.1355 222.259C78.6832 222.715 79.0953 223.313 79.3268 223.987C79.5079 224.503 79.5218 224.851 79.5497 224.851C79.5631 224.77 79.5631 224.688 79.5497 224.607C79.5352 224.384 79.4931 224.164 79.4243 223.952C79.2143 223.243 78.7971 222.612 78.2261 222.141C77.6489 221.68 76.9487 221.399 76.2128 221.333C75.9928 221.311 75.7711 221.311 75.551 221.333C75.4686 221.337 75.388 221.359 75.3142 221.396Z" fill="#263238"/>
<path d="M76.6182 216.395C76.526 217.216 76.4818 218.042 76.4858 218.868C76.435 219.694 76.435 220.522 76.4858 221.348C76.578 220.527 76.6222 219.701 76.6182 218.875C76.6691 218.049 76.6691 217.221 76.6182 216.395Z" fill="#263238"/>
<path d="M81.093 223.762C81.6662 223.909 82.2571 223.975 82.8486 223.957C83.4387 223.991 84.0307 223.951 84.611 223.839C84.611 223.797 83.8169 223.839 82.8486 223.839C81.8802 223.839 81.093 223.72 81.093 223.762Z" fill="#263238"/>
<path d="M78.7363 223.728C78.7363 223.728 78.799 223.895 78.8756 224.077C78.9523 224.258 78.994 224.418 79.0358 224.418C79.0776 224.418 79.0985 224.23 79.0358 224.021C78.9731 223.812 78.7642 223.7 78.7363 223.728Z" fill="#263238"/>
<path d="M77.8543 222.619C77.8543 222.619 77.9031 222.772 78.0215 222.898C78.1399 223.023 78.2723 223.107 78.3001 223.079C78.328 223.051 78.2514 222.925 78.126 222.8C78.0006 222.675 77.8822 222.577 77.8543 222.619Z" fill="#263238"/>
<path d="M76.5873 222.094C76.5873 222.136 76.7545 222.136 76.9286 222.199C77.1028 222.261 77.2351 222.359 77.263 222.331C77.2909 222.303 77.2003 222.136 76.9774 222.059C76.7545 221.983 76.5733 222.059 76.5873 222.094Z" fill="#263238"/>
<path d="M75.6597 221.873C75.6597 221.912 75.7116 221.97 75.8023 222.003C75.893 222.035 75.9837 222.042 75.9967 222.003C76.0097 221.964 75.9449 221.912 75.8541 221.873C75.7634 221.834 75.6921 221.808 75.6597 221.873Z" fill="#263238"/>
<path d="M99.9826 220.006L101.585 213.778L89.9441 210.734L87.5059 219.79L88.2025 220.027C91.3722 221.058 104.378 225.036 106.698 224.959C109.283 224.855 99.9826 220.006 99.9826 220.006Z" fill="#1C1C1C"/>
<g opacity="0.4">
<path d="M91.7386 220.808C91.827 219.779 91.5317 218.754 90.9096 217.93C90.3016 217.113 89.4091 216.554 88.4087 216.363L87.5449 219.616L91.7386 220.808Z" fill="black"/>
</g>
<path opacity="0.4" d="M104.483 222.574C104.483 222.574 107.687 224.497 107.102 224.949C106.517 225.402 93.2253 221.877 87.5059 219.787L87.5965 219.53L103.069 223.779C103.069 223.779 103.793 222.393 104.483 222.574Z" fill="black"/>
<path d="M87.4015 219.471C87.4623 219.506 87.528 219.532 87.5965 219.548L88.1608 219.736L90.2507 220.391C92.0202 220.927 94.4793 221.638 97.2171 222.362C99.9548 223.087 102.428 223.693 104.232 224.111L106.371 224.584L106.956 224.703C107.025 224.713 107.096 224.713 107.165 224.703L106.963 224.647L106.385 224.501L104.295 223.978C102.498 223.539 100.018 222.919 97.2867 222.195C94.5559 221.47 92.1037 220.802 90.3204 220.258L88.2305 219.652L87.6592 219.492C87.5744 219.475 87.4879 219.468 87.4015 219.471Z" fill="#263238"/>
<path d="M103.002 223.967C103.184 223.639 103.406 223.335 103.663 223.062C103.95 222.821 104.263 222.613 104.597 222.442C104.199 222.48 103.83 222.663 103.559 222.957C103.255 223.213 103.056 223.573 103.002 223.967Z" fill="#263238"/>
<path d="M100.044 221.298C100.044 221.298 100.288 221.173 100.525 220.95C100.762 220.727 100.943 220.518 100.915 220.49C100.887 220.462 100.671 220.615 100.427 220.838C100.183 221.061 100.002 221.27 100.044 221.298Z" fill="#263238"/>
<path d="M99.2146 220.545C99.2146 220.586 99.4515 220.544 99.7023 220.384C99.9531 220.224 100.134 220.127 100.12 220.085C100.106 220.043 99.8834 220.127 99.6326 220.252C99.3818 220.377 99.2007 220.482 99.2146 220.545Z" fill="#263238"/>
<path d="M98.9138 219.295C99.0881 219.418 99.2883 219.499 99.4989 219.532C99.6966 219.616 99.9121 219.649 100.126 219.629C99.9502 219.509 99.7506 219.428 99.5407 219.392C99.342 219.312 99.1275 219.279 98.9138 219.295Z" fill="#263238"/>
<path d="M98.9138 218.465C99.0802 218.651 99.2987 218.782 99.5407 218.841C99.7589 218.94 100.001 218.971 100.237 218.932C100.012 218.837 99.7786 218.76 99.5407 218.702C99.3387 218.606 99.129 218.526 98.9138 218.465Z" fill="#263238"/>
<path d="M100.69 220.39C100.928 220.497 101.182 220.563 101.442 220.585C101.722 220.623 102.004 220.635 102.285 220.62C102.454 220.615 102.622 220.594 102.787 220.557C102.89 220.525 102.978 220.459 103.038 220.369C103.065 220.317 103.077 220.259 103.071 220.2C103.065 220.142 103.041 220.087 103.003 220.042C102.757 219.821 102.44 219.695 102.11 219.686C101.779 219.677 101.456 219.786 101.199 219.993C101.043 220.108 100.915 220.255 100.822 220.425C100.76 220.543 100.739 220.62 100.753 220.627C100.885 220.413 101.058 220.226 101.261 220.077C101.481 219.926 101.74 219.841 102.007 219.833C102.165 219.821 102.324 219.84 102.475 219.89C102.626 219.941 102.765 220.021 102.884 220.125C102.982 220.251 102.884 220.376 102.745 220.418C102.593 220.458 102.436 220.482 102.278 220.488C102.002 220.509 101.725 220.509 101.449 220.488C100.983 220.446 100.697 220.369 100.69 220.39Z" fill="#263238"/>
<path d="M100.877 220.488C101.006 220.354 101.084 220.179 101.099 219.994C101.124 219.789 101.102 219.582 101.037 219.387C101.005 219.259 100.94 219.141 100.848 219.046C100.757 218.95 100.641 218.881 100.514 218.844C100.434 218.84 100.356 218.868 100.296 218.921C100.236 218.975 100.199 219.05 100.194 219.13C100.178 219.252 100.193 219.376 100.236 219.492C100.288 219.685 100.365 219.87 100.465 220.042C100.547 220.207 100.666 220.351 100.814 220.46C100.814 220.46 100.702 220.286 100.556 219.994C100.475 219.821 100.41 219.641 100.361 219.457C100.305 219.276 100.305 218.969 100.507 218.99C100.709 219.011 100.835 219.255 100.911 219.436C100.981 219.608 101.009 219.794 100.995 219.98C100.969 220.152 100.929 220.322 100.877 220.488Z" fill="#263238"/>
<path d="M88.479 216.351C88.479 216.351 88.8273 216.406 89.3358 216.608C90.0012 216.867 90.58 217.308 91.0053 217.881C91.4306 218.454 91.685 219.136 91.7392 219.848C91.781 220.398 91.7392 220.733 91.7392 220.739C91.7717 220.664 91.7929 220.584 91.8019 220.503C91.8378 220.284 91.8518 220.062 91.8437 219.841C91.8187 219.104 91.5763 218.392 91.1471 217.793C90.7056 217.2 90.0965 216.754 89.3985 216.511C89.1882 216.438 88.9712 216.387 88.7507 216.358C88.6614 216.338 88.5691 216.335 88.479 216.351Z" fill="#263238"/>
<path d="M90.9891 211.818C90.7163 212.595 90.4838 213.385 90.2925 214.186C90.048 214.975 89.848 215.778 89.6934 216.59C89.9861 215.815 90.2326 215.024 90.4318 214.221C90.6684 213.433 90.8546 212.63 90.9891 211.818Z" fill="#263238"/>
<path d="M93.5073 220.059C94.0278 220.337 94.583 220.546 95.1584 220.679C95.7217 220.863 96.3078 220.968 96.9 220.992C96.9 220.95 96.1337 220.797 95.2002 220.539C94.2667 220.281 93.5213 220.017 93.5073 220.059Z" fill="#263238"/>
<path d="M91.2222 219.451C91.1874 219.451 91.2222 219.626 91.271 219.821C91.3198 220.016 91.3058 220.183 91.3476 220.19C91.3894 220.197 91.4591 220.023 91.4173 219.8C91.3755 219.577 91.2571 219.431 91.2222 219.451Z" fill="#263238"/>
<path d="M90.6471 218.152C90.6471 218.152 90.6471 218.312 90.7446 218.466C90.8421 218.619 90.9327 218.73 90.9675 218.709C91.0024 218.688 90.9675 218.549 90.87 218.396C90.7725 218.243 90.6819 218.131 90.6471 218.152Z" fill="#263238"/>
<path d="M89.5431 217.338C89.5431 217.38 89.6964 217.421 89.8566 217.526C90.0168 217.63 90.1074 217.756 90.1422 217.735C90.1771 217.714 90.1422 217.533 89.9332 217.401C89.7243 217.268 89.5431 217.296 89.5431 217.338Z" fill="#263238"/>
<path d="M88.7337 216.879C88.7337 216.879 88.7336 216.976 88.8438 217.035C88.954 217.093 89.0058 217.119 89.0253 217.086C89.0447 217.054 89.0253 216.989 88.9216 216.931C88.8179 216.872 88.7596 216.847 88.7337 216.879Z" fill="#263238"/>
<path d="M106.078 90.2721C104.358 91.5019 102.713 92.8349 101.153 94.2638C99.6763 95.6153 102.595 103.634 104.197 102.219C105.8 100.805 110.182 95.253 110.182 95.253L106.078 90.2721Z" fill="#B78876"/>
<path d="M103.969 102.36C103.969 102.36 108.525 101.844 108.392 100.904C108.188 100.127 107.801 99.4104 107.264 98.8137L103.969 102.36Z" fill="#A36957"/>
<path d="M105.761 97.2596L91.5845 96.1937L68.2681 94.3407L71.0547 219.547L91.2919 219.254C91.2919 219.254 91.2919 217.861 91.2432 215.416L103.086 218.641C103.086 218.641 114.594 179.567 118.509 163.523C121.812 150.127 105.761 97.2596 105.761 97.2596ZM90.9854 195.945C90.6301 167.048 90.2052 117.922 90.6162 111.889C90.6162 111.889 101.95 155.136 102.069 158.563C102.132 160.625 95.9106 180.605 90.9854 195.945Z" fill="#263238"/>
<path d="M91.4105 214.493C91.4105 214.605 86.8824 214.702 81.3023 214.709C75.7223 214.716 71.1872 214.633 71.1872 214.528C71.1872 214.424 75.7153 214.319 81.2953 214.312C86.8754 214.305 91.4105 214.382 91.4105 214.493Z" fill="#455A64"/>
<path d="M91.2348 209.996C91.8677 210.142 92.4875 210.34 93.0879 210.588L97.7205 212.197L102.353 213.806C103.009 213.995 103.645 214.245 104.255 214.552C103.579 214.463 102.913 214.304 102.27 214.078C101.057 213.73 99.3994 213.207 97.5881 212.573C95.7769 211.939 94.1537 211.326 92.9834 210.853C92.3633 210.65 91.7747 210.362 91.2348 209.996Z" fill="#455A64"/>
<path d="M90.9376 193.416C90.9937 193.74 91.0147 194.07 91.0003 194.398C91.0003 195.095 91.0003 195.994 91.0421 197.066C91.0421 199.386 91.1327 202.465 91.1814 205.872C91.2302 209.278 91.3695 212.351 91.4392 214.67C91.4392 215.743 91.4949 216.642 91.5158 217.338C91.5444 217.665 91.5444 217.994 91.5158 218.321C91.4398 218.001 91.3978 217.674 91.3904 217.345C91.3347 216.718 91.265 215.806 91.1954 214.684C91.0561 212.434 90.9167 209.32 90.8401 205.879C90.7635 202.437 90.7635 199.323 90.7983 197.066C90.7983 195.938 90.8471 195.025 90.8749 194.391C90.864 194.065 90.885 193.738 90.9376 193.416Z" fill="#455A64"/>
<path d="M109.384 158.163C108.134 158.453 106.857 158.616 105.574 158.651C104.299 158.819 103.01 158.851 101.728 158.748C102.98 158.45 104.259 158.284 105.546 158.254C106.819 158.09 108.105 158.06 109.384 158.163Z" fill="#455A64"/>
<path d="M108.074 160.437C107.075 160.358 106.091 160.145 105.149 159.803C104.179 159.59 103.242 159.251 102.362 158.793C103.359 158.868 104.341 159.079 105.281 159.42C106.252 159.635 107.192 159.977 108.074 160.437Z" fill="#455A64"/>
<path d="M91.8643 96.3446C91.9584 97.1374 91.9957 97.9359 91.9757 98.7341C91.9757 100.204 91.9757 102.217 91.9757 104.488C91.9757 105.61 91.9757 106.676 91.9339 107.658C91.9589 108.543 91.7975 109.424 91.4602 110.242C91.2124 110.8 90.8204 111.281 90.3247 111.636C90.1523 111.774 89.9493 111.87 89.7326 111.914C89.8954 111.776 90.0651 111.646 90.2411 111.524C90.6732 111.157 91.0102 110.691 91.2234 110.166C91.5155 109.371 91.6434 108.525 91.5996 107.679C91.5996 106.697 91.5996 105.631 91.5996 104.516C91.5996 102.266 91.6483 100.232 91.6901 98.755C91.6851 97.9482 91.7434 97.1423 91.8643 96.3446Z" fill="#455A64"/>
<path d="M108.741 43.0974L124.178 60.4367C128.714 65.9192 127.843 73.2199 124.248 79.3643C120.436 85.6256 116.001 91.4861 111.012 96.8568C110.942 96.9543 104.777 88.2324 104.777 88.2324C104.777 88.2324 114.314 72.9691 112.781 69.479C111.249 65.9889 100.939 53.2753 100.939 53.2753L108.741 43.0974Z" fill="#455A64"/>
<path d="M104.091 57.2074L104.544 80.6909L106.369 97.4101L67.6712 95.0068L69.6984 75.501L67.72 54.9503L56.9709 45.894C57.7094 44.9048 58.4246 43.9922 59.1166 43.1563C63.9164 37.3812 72.1715 33.7726 79.6743 33.5079C79.6743 33.5079 81.3113 36.1899 87.5253 36.2944C91.8723 36.378 92.6944 33.4661 92.6944 33.4661C95.5854 33.6472 103.541 35.0056 109.713 44.1803" fill="#455A64"/>
<path d="M60.4965 41.9624L45.1148 59.3783C40.5936 64.8817 41.4853 72.1685 45.1148 78.3058C50.6112 87.6407 60.796 98.3898 60.7055 98.3062C60.6149 98.2226 67.1075 90.2183 67.1075 90.2183C67.1075 90.2183 54.9861 71.848 56.5117 68.3579C58.0373 64.8677 69.3159 53.4569 69.3159 53.4569L60.4965 41.9624Z" fill="#455A64"/>
<path d="M107.535 41.981C107.473 42.1287 107.391 42.267 107.291 42.392C107.016 42.7608 106.696 43.0932 106.337 43.3813C104.968 44.4056 103.295 44.9427 101.586 44.9069C100.408 44.887 99.238 44.7185 98.1027 44.4053C96.8836 44.0918 95.6227 43.646 94.2991 43.1932C92.9426 42.7002 91.5434 42.334 90.1193 42.0994C88.5796 41.8916 87.0135 42.0078 85.5215 42.4408C82.4493 43.2907 79.6628 44.8512 76.7717 45.0114C76.0729 45.0542 75.3714 45.0144 74.6818 44.893C74.0376 44.7627 73.4109 44.5569 72.8149 44.2799C71.7626 43.7765 70.7657 43.1648 69.8402 42.4547C68.541 41.4188 67.162 40.487 65.7162 39.6682C64.6642 39.1318 64.0164 38.9716 64.0303 38.9716C64.1895 38.9916 64.346 39.029 64.497 39.083C64.9378 39.2076 65.3667 39.3708 65.7788 39.5707C67.2624 40.3561 68.6728 41.2723 69.9935 42.3084C70.914 42.9916 71.9013 43.5798 72.9403 44.064C73.517 44.3187 74.1196 44.5102 74.7376 44.6352C75.3976 44.7487 76.069 44.7814 76.7369 44.7327C79.5235 44.5655 82.2752 43.019 85.417 42.1482C86.9537 41.6988 88.5682 41.5801 90.1541 41.7999C91.6129 42.0409 93.0452 42.4211 94.4315 42.9354C95.7551 43.3952 97.002 43.848 98.2003 44.1684C99.3003 44.485 100.435 44.6652 101.579 44.7049C103.244 44.7559 104.882 44.2672 106.246 43.3116C106.73 42.9243 107.164 42.4772 107.535 41.981Z" fill="#263238"/>
<path d="M116.461 51.5506L116.294 51.5018L115.834 51.3276C115.236 51.1103 114.624 50.9334 114.002 50.7982C111.723 50.2854 109.354 50.3332 107.098 50.9375C106.355 51.1346 105.63 51.3956 104.932 51.7178C104.235 52.0521 103.476 52.4701 102.709 52.8951C101.922 53.3533 101.097 53.7425 100.243 54.0584C99.7906 54.2155 99.3241 54.3298 98.85 54.3998C98.3546 54.4555 97.8546 54.4555 97.3592 54.3998C95.339 54.149 93.5347 53.0065 91.5772 52.2333C90.5947 51.8203 89.5427 51.5981 88.4771 51.5784C87.377 51.6044 86.2871 51.797 85.2447 52.1497C83.1061 52.8463 81.1137 53.8494 78.975 54.3232C76.9221 54.7628 74.7852 54.5883 72.8307 53.8216C71.0891 53.1462 69.4126 52.3138 67.8219 51.3346C66.4422 50.5041 65.0112 49.7619 63.5376 49.1123C61.4205 48.1085 59.0357 47.8153 56.7385 48.2764C55.9112 48.4914 55.1218 48.8321 54.3978 49.2865L54.5301 49.175C54.6613 49.0717 54.7985 48.9763 54.9411 48.8894C55.4892 48.5516 56.086 48.3002 56.7106 48.144C57.6973 47.8921 58.7193 47.8073 59.734 47.8932C61.0782 48.0116 62.3951 48.3432 63.6351 48.8755C65.1271 49.5169 66.5747 50.2569 67.9682 51.0908C69.5515 52.0459 71.2159 52.8595 72.9422 53.522C74.8399 54.254 76.9099 54.4162 78.8984 53.9888C80.9883 53.529 82.9459 52.5189 85.1194 51.8222C86.1962 51.4524 87.3247 51.255 88.4632 51.2371C89.5757 51.2567 90.6737 51.4933 91.6956 51.9337C93.688 52.7279 95.4713 53.8494 97.3871 54.0933C97.8499 54.1478 98.3175 54.1478 98.7804 54.0933C99.2382 54.0359 99.6888 53.9308 100.125 53.7798C100.963 53.4716 101.774 53.0941 102.549 52.6512C103.315 52.2402 104.054 51.8153 104.799 51.4879C105.514 51.1644 106.255 50.9034 107.015 50.7076C109.315 50.1276 111.723 50.1276 114.023 50.7076C114.869 50.8801 115.689 51.1635 116.461 51.5506Z" fill="#263238"/>
<path d="M104.288 65.2067C104.199 65.2982 104.098 65.3778 103.989 65.4436C103.673 65.6432 103.324 65.7825 102.957 65.8546C101.602 66.082 100.21 65.836 99.0145 65.1579C98.2413 64.7818 97.4401 64.2941 96.5554 63.8622C95.6094 63.4072 94.6029 63.0905 93.5669 62.9217C91.1643 62.6144 88.7259 62.7465 86.3706 63.3119C83.8418 63.8343 81.4454 64.5031 79.2022 64.7957C77.213 65.1176 75.18 65.0466 73.2182 64.5867C71.8933 64.2802 70.6505 63.6908 69.5747 62.859C69.2813 62.6354 69.0107 62.3834 68.7667 62.1067C68.6731 62.0175 68.5912 61.9168 68.5228 61.8071C68.5228 61.8071 68.899 62.1903 69.6583 62.7476C70.7455 63.519 71.9778 64.0617 73.2808 64.3429C75.2125 64.7443 77.2026 64.7773 79.1465 64.4404C81.3618 64.1269 83.7443 63.4582 86.294 62.9287C88.6907 62.3536 91.1738 62.2307 93.6156 62.5665C94.6802 62.7483 95.7127 63.0838 96.6808 63.5627C97.5795 64.0224 98.3667 64.517 99.119 64.9002C100.262 65.5844 101.6 65.871 102.923 65.7153C103.403 65.6214 103.864 65.4496 104.288 65.2067Z" fill="#263238"/>
<path d="M104.744 75.0386C104.077 74.4756 103.295 74.0664 102.452 73.8401C101.609 73.6137 100.727 73.5758 99.8674 73.7289C98.2582 73.8752 96.4539 74.6137 94.3919 75.2824C93.3094 75.6573 92.1833 75.8915 91.0411 75.9791C89.8172 76.0467 88.5895 75.9696 87.3837 75.7492C84.9107 75.3173 82.6466 74.551 80.5637 74.0285C78.732 73.5281 76.8406 73.2797 74.9418 73.2901C73.6626 73.3065 72.3971 73.5567 71.2079 74.0285C70.3719 74.3838 69.9539 74.6764 69.933 74.6415C69.9121 74.6067 70.0306 74.5579 70.2326 74.4186C70.5238 74.2227 70.8288 74.0481 71.1452 73.8961C72.3381 73.3654 73.6229 73.072 74.9279 73.0323C76.8579 72.9895 78.784 73.2241 80.6473 73.7289C82.7372 74.2375 85.0082 74.9898 87.4464 75.4148C88.6159 75.6046 89.8032 75.6607 90.9853 75.582C92.0992 75.5058 93.1992 75.2905 94.2595 74.9411C96.3007 74.3002 98.1468 73.5478 99.8326 73.4572C101.144 73.3105 102.469 73.5528 103.643 74.1539C104.072 74.3623 104.448 74.6647 104.744 75.0386Z" fill="#263238"/>
<path d="M105.463 86.9234C105.463 86.9234 105.463 86.9583 105.387 86.9931C105.312 87.0553 105.23 87.1091 105.143 87.1533C104.814 87.3351 104.456 87.4577 104.084 87.5156C103.496 87.6054 102.897 87.5889 102.315 87.4668C101.55 87.2964 100.805 87.0466 100.092 86.7214C98.2812 85.8657 96.3286 85.3486 94.3312 85.1958C93.1569 85.1071 91.9762 85.1562 90.8132 85.3421C89.563 85.5631 88.3276 85.8609 87.1141 86.2338C85.8905 86.6211 84.6462 86.9397 83.3871 87.1882C82.2067 87.4101 81.0073 87.5151 79.8064 87.5017C77.7729 87.485 75.7543 87.1537 73.8223 86.5194C72.5247 86.0914 71.2774 85.5238 70.1022 84.8266C69.7804 84.639 69.4688 84.4344 69.1687 84.2135C68.9598 84.0672 68.8553 83.9906 68.8622 83.9767C68.8692 83.9628 69.329 84.2484 70.1719 84.6733C73.134 86.3046 76.4597 87.1623 79.8412 87.1673C81.0214 87.1654 82.1989 87.0558 83.3592 86.8399C84.6051 86.5838 85.8374 86.2652 87.0514 85.8855C88.2802 85.5062 89.5321 85.2061 90.7993 84.9868C91.9884 84.8041 93.1949 84.762 94.3939 84.8614C96.4251 85.0324 98.4058 85.5855 100.232 86.4915C100.924 86.8216 101.648 87.083 102.391 87.2718C102.95 87.402 103.527 87.4373 104.098 87.3763C104.576 87.3039 105.037 87.1508 105.463 86.9234Z" fill="#263238"/>
<path d="M47.9132 55.6816C47.948 55.6816 48.0247 55.8837 48.2755 56.1902C48.6431 56.6036 49.1074 56.9195 49.6269 57.1097C50.4075 57.3973 51.2273 57.5641 52.0582 57.6044C53.1125 57.6405 54.1504 57.8769 55.1164 58.301C56.0303 58.8578 56.7784 59.6492 57.2829 60.5929C57.6891 61.3267 58.1551 62.0257 58.6762 62.6828C59.1748 63.2614 59.8024 63.7148 60.5084 64.0064C60.2957 64.0107 60.0852 63.9629 59.8953 63.8671C59.3645 63.6299 58.8897 63.2833 58.5021 62.85C57.9343 62.2067 57.4347 61.5063 57.0113 60.7601C56.5175 59.8835 55.8107 59.1456 54.9562 58.6145C54.0292 58.2056 53.0352 57.9695 52.0234 57.9178C51.1656 57.8558 50.3235 57.6559 49.5294 57.3257C48.9753 57.1028 48.4933 56.7316 48.1361 56.2529C48.0152 56.0841 47.9385 55.8877 47.9132 55.6816Z" fill="#263238"/>
<path d="M56.481 69.7467C56.481 69.7467 56.3556 69.9348 56.0282 70.1577C55.5513 70.4632 55.0144 70.6628 54.4538 70.7429C53.628 70.8602 52.7878 70.8271 51.9738 70.6454C50.9981 70.4019 50.0375 70.1018 49.0967 69.7467C48.177 69.3975 47.2135 69.1772 46.2335 69.0919C45.4411 69.0468 44.6491 69.1875 43.9207 69.5029C43.2581 69.8035 42.695 70.2868 42.2975 70.8962C42.3318 70.6911 42.4155 70.4974 42.5414 70.3319C42.8608 69.8625 43.298 69.4853 43.8092 69.2382C44.5656 68.8637 45.4043 68.6863 46.2474 68.7227C47.2638 68.7867 48.2645 69.0052 49.2151 69.3705C50.2252 69.7189 51.1657 70.0672 52.0435 70.2831C52.8201 70.4726 53.623 70.5315 54.419 70.4573C55.1485 70.3675 55.851 70.1254 56.481 69.7467Z" fill="#263238"/>
<path d="M59.265 77.9801C59.265 78.0149 59.0769 77.9313 58.7565 77.8965C58.2976 77.8687 57.841 77.9804 57.4468 78.2169C56.8718 78.5557 56.3923 79.0352 56.0536 79.6102C55.6356 80.272 55.3082 81.0871 54.7996 81.8812C54.3214 82.6498 53.6186 83.2529 52.7863 83.6089C52.1139 83.8942 51.3833 84.016 50.6546 83.9642C50.1717 83.9366 49.6986 83.816 49.2614 83.6089C49.0918 83.547 48.9374 83.4496 48.8085 83.3233C49.4097 83.5394 50.0381 83.6707 50.6755 83.7134C51.3618 83.7241 52.0419 83.5838 52.6679 83.3024C53.4295 82.9574 54.0701 82.392 54.507 81.6792C54.9947 80.9268 55.336 80.1118 55.7888 79.436C56.1705 78.8073 56.7208 78.2981 57.3772 77.9661C57.8207 77.7293 58.331 77.6483 58.8262 77.7362C58.9921 77.7756 59.144 77.8599 59.265 77.9801Z" fill="#263238"/>
<path d="M64.2033 86.217C64.1391 86.7733 63.9638 87.3111 63.6878 87.7983C63.0833 89.0127 62.2091 90.0727 61.1321 90.8974C60.0551 91.722 58.8038 92.2895 57.4738 92.5563C56.9296 92.6929 56.3639 92.7213 55.8088 92.6399C55.8088 92.5772 56.4428 92.5563 57.418 92.3055C58.681 91.981 59.8657 91.4053 60.9012 90.6127C61.9409 89.8158 62.8102 88.8185 63.4579 87.6799C63.9525 86.8021 64.1406 86.1961 64.2033 86.217Z" fill="#263238"/>
<path d="M121.742 57.4708C121.762 57.6786 121.718 57.8875 121.616 58.0699C121.365 58.5803 120.961 58.9993 120.46 59.2681C119.722 59.6692 118.888 59.8573 118.05 59.8115C117.116 59.8115 116.12 59.6165 115.089 59.6165C113.314 59.633 111.585 60.1787 110.122 61.1839C108.993 61.9572 108.471 62.6468 108.415 62.5772C108.503 62.3941 108.621 62.2269 108.763 62.0825C109.123 61.6636 109.527 61.2851 109.969 60.954C111.447 59.847 113.242 59.2438 115.089 59.2333C116.169 59.2333 117.179 59.4353 118.057 59.4562C118.841 59.5147 119.626 59.3657 120.335 59.0243C120.811 58.7953 121.211 58.4321 121.484 57.9794C121.672 57.7007 121.714 57.4708 121.742 57.4708Z" fill="#263238"/>
<path d="M127.215 70.4157C127.043 70.3046 126.864 70.2045 126.679 70.1161C126.165 69.9204 125.599 69.9081 125.077 70.0813C124.299 70.3817 123.559 70.7746 122.875 71.2517C121.981 71.7982 121.024 72.2355 120.026 72.5544C119.009 72.8784 117.929 72.9525 116.877 72.7703C116.018 72.6096 115.214 72.2305 114.544 71.6696C114.091 71.2952 113.735 70.8173 113.506 70.2764C113.446 70.1297 113.399 69.9782 113.366 69.8236C113.354 69.7685 113.354 69.7114 113.366 69.6564C113.667 70.3604 114.133 70.9816 114.725 71.4676C115.377 71.9705 116.142 72.3054 116.954 72.4429C117.953 72.5958 118.973 72.5147 119.935 72.206C120.906 71.8939 121.84 71.4781 122.722 70.966C123.436 70.4892 124.209 70.1075 125.021 69.8305C125.598 69.6657 126.216 69.7203 126.756 69.9838C127.111 70.1928 127.215 70.4087 127.215 70.4157Z" fill="#263238"/>
<path d="M117.798 89.0442C117.82 88.4152 117.728 87.7875 117.527 87.1911C117.287 86.5618 116.886 86.0068 116.363 85.5819C115.684 85.1061 114.896 84.8112 114.071 84.725C113.628 84.6502 113.191 84.5455 112.762 84.4116C112.354 84.2746 111.969 84.0773 111.619 83.8264C111.033 83.4032 110.555 82.8469 110.226 82.2032C110.008 81.766 109.867 81.2948 109.808 80.81C109.77 80.6378 109.77 80.4596 109.808 80.2875C109.94 80.905 110.153 81.5024 110.442 82.0639C110.777 82.6529 111.241 83.1579 111.8 83.5408C112.505 83.9827 113.3 84.2612 114.127 84.3558C115.008 84.4504 115.848 84.78 116.558 85.3102C117.117 85.7774 117.533 86.3933 117.756 87.0866C117.911 87.5482 117.966 88.0374 117.917 88.5217C117.921 88.703 117.88 88.8824 117.798 89.0442Z" fill="#263238"/>
<path d="M59.7676 55.0326C59.67 55.0326 59.5098 54.6076 59.4053 54.0364C59.3008 53.4651 59.3078 52.9984 59.4053 52.9845C59.5028 52.9705 59.6631 53.4094 59.7676 53.9737C59.872 54.5379 59.8651 55.0117 59.7676 55.0326Z" fill="white"/>
<path d="M66.3403 45.4666C66.3403 45.5641 65.8457 45.7522 65.1909 45.8776C64.5361 46.003 63.9857 46.0309 63.9648 45.9334C63.9439 45.8358 64.4664 45.6547 65.1212 45.5223C65.7761 45.39 66.3194 45.3691 66.3403 45.4666Z" fill="white"/>
<path d="M81.2348 48.4831C81.1652 48.5598 80.7263 48.2811 80.2456 47.8631C79.7649 47.4452 79.4375 47.0411 79.5072 46.9645C79.5768 46.8878 80.0087 47.1735 80.4894 47.5914C80.9701 48.0094 81.2348 48.4135 81.2348 48.4831Z" fill="white"/>
<path d="M98.5409 47.5457C98.6175 47.6153 98.1926 48.2075 97.6004 48.8693C97.0083 49.5311 96.458 50.0117 96.3813 49.9421C96.3047 49.8724 96.7296 49.2872 97.3287 48.6254C97.9279 47.9636 98.4712 47.483 98.5409 47.5457Z" fill="white"/>
<path d="M109.55 48.2283C109.495 48.3119 108.937 48.0123 108.303 47.5665C107.669 47.1206 107.21 46.6957 107.272 46.6121C107.335 46.5285 107.885 46.8281 108.512 47.3087C109.139 47.7894 109.606 48.1447 109.55 48.2283Z" fill="white"/>
<path d="M75.2552 69.8513C74.6793 69.826 74.128 69.6104 73.6878 69.2383C72.9075 68.7088 72.4756 68.0609 72.5522 67.9982C72.6289 67.9355 73.1583 68.4371 73.8968 68.9387C74.6352 69.4403 75.29 69.7468 75.2552 69.8513Z" fill="white"/>
<path d="M87.0059 68.9056C87.0756 68.9753 86.6088 69.5535 85.961 70.1874C85.3131 70.8214 84.7349 71.2881 84.6652 71.2185C84.5956 71.1488 85.0623 70.5706 85.7102 69.9297C86.3581 69.2888 86.9363 68.836 87.0059 68.9056Z" fill="white"/>
<path d="M95.3873 70.9006C94.8447 70.776 94.3344 70.5386 93.8895 70.204C93.1093 69.7233 92.4962 69.2705 92.5798 69.1799C93.1224 69.3046 93.6327 69.5419 94.0776 69.8766C94.8578 70.3572 95.443 70.8101 95.3873 70.9006Z" fill="white"/>
<path d="M103.189 68.7181C103.258 68.7947 103.015 69.1012 102.659 69.4147C102.304 69.7282 101.963 69.8954 101.893 69.8188C101.823 69.7422 102.067 69.4356 102.429 69.1221C102.792 68.8087 103.126 68.6206 103.189 68.7181Z" fill="white"/>
<path d="M99.3467 58.4317C99.2561 58.4317 99.3815 57.7838 99.7786 57.1289C100.176 56.4741 100.656 56.0631 100.726 56.1258C100.796 56.1885 100.461 56.6901 100.092 57.3101C99.7229 57.9301 99.4651 58.4665 99.3467 58.4317Z" fill="white"/>
<path d="M90.3835 56.5154C90.3138 56.5921 89.9167 56.3343 89.4987 55.9442C89.0807 55.5541 88.8021 55.1848 88.8648 55.1082C88.9275 55.0316 89.3246 55.2893 89.7495 55.6795C90.1745 56.0696 90.4462 56.4388 90.3835 56.5154Z" fill="white"/>
<path d="M77.754 58.7979C77.8236 58.8676 77.545 59.2438 77.127 59.6339C76.709 60.024 76.3119 60.2818 76.2423 60.2051C76.1726 60.1285 76.4582 59.7593 76.8762 59.3692C77.2942 58.979 77.6704 58.7213 77.754 58.7979Z" fill="white"/>
<path d="M111.842 56.7763C111.786 56.8599 111.355 56.6648 110.874 56.3305C110.393 55.9961 110.059 55.6686 110.115 55.585C110.17 55.5015 110.602 55.7035 111.083 56.0309C111.564 56.3583 111.891 56.6857 111.842 56.7763Z" fill="white"/>
<path d="M116.762 64.7004C116.759 65.2246 116.637 65.7413 116.406 66.2121C116.121 67.0132 115.807 67.6053 115.71 67.6053C115.716 67.0815 115.837 66.5655 116.065 66.0936C116.33 65.2855 116.636 64.6655 116.762 64.7004Z" fill="white"/>
<path d="M114.676 79.4052C114.585 79.4401 114.286 78.9176 114.021 78.2279C113.756 77.5383 113.61 76.9531 113.7 76.9183C113.791 76.8834 114.091 77.4059 114.355 78.0956C114.62 78.7853 114.787 79.3704 114.676 79.4052Z" fill="white"/>
<path d="M110.143 89.5204C110.038 89.5204 110.031 88.9561 109.968 88.2804C109.906 87.6046 109.822 87.0613 109.92 87.0334C110.017 87.0055 110.268 87.535 110.331 88.2525C110.393 88.97 110.233 89.5204 110.143 89.5204Z" fill="white"/>
<path d="M99.7698 79.1522C99.8325 79.2218 99.4703 79.6607 98.9478 80.1275C98.4253 80.5942 97.9586 80.9147 97.8889 80.8241C97.8192 80.7335 98.1885 80.3086 98.7109 79.8418C99.2334 79.3751 99.7001 79.0686 99.7698 79.1522Z" fill="white"/>
<path d="M92.3804 81.2992C92.3037 81.3619 91.8509 80.8743 91.3703 80.2125C90.8896 79.5507 90.5761 78.9725 90.6736 78.9098C90.7712 78.8471 91.2031 79.3417 91.6837 80.0035C92.1644 80.6653 92.4431 81.2435 92.3804 81.2992Z" fill="white"/>
<path d="M82.1093 79.4716C82.1859 79.5413 81.8167 80.0638 81.2803 80.635C80.7439 81.2063 80.2632 81.6243 80.1866 81.5546C80.1099 81.4849 80.4861 80.9624 81.0155 80.3912C81.545 79.82 82.0396 79.409 82.1093 79.4716Z" fill="white"/>
<path d="M74.6328 81.3106C74.5492 81.3664 74.2149 80.9971 73.8805 80.4956C73.5461 79.994 73.351 79.5272 73.4346 79.4715C73.5182 79.4158 73.8596 79.785 74.187 80.2935C74.5144 80.8021 74.7164 81.2549 74.6328 81.3106Z" fill="white"/>
<path d="M74.4703 92.6382C74.4007 92.7078 74.0524 92.4779 73.6831 92.1296C73.3139 91.7813 73.0771 91.433 73.1467 91.3633C73.2164 91.2937 73.5717 91.5166 73.9339 91.8649C74.2962 92.2132 74.54 92.5615 74.4703 92.6382Z" fill="white"/>
<path d="M82.6643 91.4805C82.7409 91.5501 82.5111 91.9193 82.1488 92.3094C81.7866 92.6996 81.4522 92.9573 81.3686 92.8946C81.285 92.8319 81.5288 92.4557 81.8841 92.0656C82.2394 91.6755 82.6295 91.4178 82.6643 91.4805Z" fill="white"/>
<path d="M93.0763 93.614C92.9927 93.6767 92.4145 93.0498 91.7806 92.2208C91.344 91.7539 91.0011 91.2076 90.7705 90.6115C90.8471 90.5488 91.4253 91.1688 92.0662 92.0048C92.4972 92.4759 92.8394 93.0211 93.0763 93.614Z" fill="white"/>
<path d="M101.358 91.4351C101.427 91.5048 100.947 92.09 100.278 92.7309C99.6092 93.3718 99.0101 93.8455 98.9404 93.7758C98.8707 93.7061 99.3584 93.121 100.027 92.4731C100.696 91.8252 101.288 91.3585 101.358 91.4351Z" fill="white"/>
<path d="M56.1542 88.0522C56.0567 88.0522 56.0219 87.4322 56.0846 86.6589C56.1473 85.8856 56.2727 85.3144 56.3702 85.3214C56.4677 85.3283 56.5026 85.9414 56.4468 86.7146C56.3911 87.4879 56.2309 88.0591 56.1542 88.0522Z" fill="white"/>
<path d="M60.5677 85.124C60.526 85.2145 60.0592 85.124 59.5158 84.8593C58.9725 84.5945 58.5754 84.3507 58.6172 84.2601C58.659 84.1696 59.1257 84.2601 59.6621 84.5249C60.1985 84.7896 60.6095 85.0334 60.5677 85.124Z" fill="white"/>
<path d="M49.8395 77.3532C49.8395 77.4507 49.2892 77.4089 48.6622 77.2556C48.0352 77.1024 47.5406 76.9073 47.5615 76.8098C47.5824 76.7123 48.1119 76.7541 48.7458 76.9073C49.3797 77.0606 49.8883 77.2556 49.8395 77.3532Z" fill="white"/>
<path d="M54.1629 75.5859C54.2291 75.0576 54.4124 74.5506 54.6993 74.1021C55.0894 73.3218 55.4725 72.7088 55.5631 72.7715C55.4965 73.3019 55.3133 73.811 55.0267 74.2623C54.6366 75.0565 54.2534 75.6556 54.1629 75.5859Z" fill="white"/>
<path d="M46.5374 61.4481C46.6349 61.4133 46.9415 62.0542 47.3943 62.7787C47.8471 63.5032 48.272 64.0675 48.2024 64.1371C48.1327 64.2068 47.5615 63.7401 47.0878 62.9668C46.614 62.1935 46.4399 61.483 46.5374 61.4481Z" fill="white"/>
<path d="M52.7369 64.24C52.7369 64.3445 52.4444 64.4768 52.11 64.7067C51.7756 64.9366 51.5318 65.1734 51.4482 65.1177C51.3646 65.062 51.4969 64.6788 51.9079 64.4211C52.319 64.1633 52.73 64.1424 52.7369 64.24Z" fill="white"/>
<path d="M74.4621 40.8323C74.3715 40.8811 73.9883 40.3377 73.5982 39.6202C73.31 39.2043 73.1217 38.7275 73.0479 38.2269C73.1384 38.1782 73.5286 38.7215 73.9117 39.4391C74.202 39.8539 74.3905 40.3312 74.4621 40.8323Z" fill="white"/>
<path d="M83.6525 38.5477C83.7082 38.6313 83.1509 39.1119 82.4055 39.6205C81.9795 39.9771 81.4835 40.2405 80.9495 40.3937C80.8938 40.3102 81.4511 39.8295 82.2035 39.3209C82.9558 38.8124 83.5967 38.4641 83.6525 38.5477Z" fill="white"/>
<path d="M97.0868 40.1505C95.9581 39.7572 94.9237 39.1333 94.0494 38.3184C94.6331 38.4559 95.1814 38.7146 95.6586 39.0777C96.2004 39.3382 96.6857 39.7027 97.0868 40.1505Z" fill="white"/>
<path d="M103.109 37.9655C103.206 37.9655 103.192 38.5715 103.109 39.2891C103.025 40.0066 102.809 40.5778 102.712 40.5569C102.614 40.536 102.628 39.9509 102.747 39.2333C102.865 38.5158 103.011 37.9655 103.109 37.9655Z" fill="white"/>
<path d="M107.535 41.981C107.473 42.1287 107.391 42.267 107.291 42.392C107.016 42.7608 106.696 43.0932 106.337 43.3813C104.968 44.4056 103.295 44.9427 101.586 44.9069C100.408 44.887 99.238 44.7185 98.1027 44.4053C96.8836 44.0918 95.6227 43.646 94.2991 43.1932C92.9426 42.7002 91.5434 42.334 90.1193 42.0994C88.5796 41.8916 87.0135 42.0078 85.5215 42.4408C82.4493 43.2907 79.6628 44.8512 76.7717 45.0114C76.0729 45.0542 75.3714 45.0144 74.6818 44.893C74.0376 44.7627 73.4109 44.5569 72.8149 44.2799C71.7626 43.7765 70.7657 43.1648 69.8402 42.4547C68.541 41.4188 67.162 40.487 65.7162 39.6682C64.6642 39.1318 64.0164 38.9716 64.0303 38.9716C64.1895 38.9916 64.346 39.029 64.497 39.083C64.9378 39.2076 65.3667 39.3708 65.7788 39.5707C67.2624 40.3561 68.6728 41.2723 69.9935 42.3084C70.914 42.9916 71.9013 43.5798 72.9403 44.064C73.517 44.3187 74.1196 44.5102 74.7376 44.6352C75.3976 44.7487 76.069 44.7814 76.7369 44.7327C79.5235 44.5655 82.2752 43.019 85.417 42.1482C86.9537 41.6988 88.5682 41.5801 90.1541 41.7999C91.6129 42.0409 93.0452 42.4211 94.4315 42.9354C95.7551 43.3952 97.002 43.848 98.2003 44.1684C99.3003 44.485 100.435 44.6652 101.579 44.7049C103.244 44.7559 104.882 44.2672 106.246 43.3116C106.73 42.9243 107.164 42.4772 107.535 41.981Z" fill="#263238"/>
<path d="M116.461 51.5506L116.294 51.5018L115.834 51.3276C115.236 51.1103 114.624 50.9334 114.002 50.7982C111.723 50.2854 109.354 50.3332 107.098 50.9375C106.355 51.1346 105.63 51.3956 104.932 51.7178C104.235 52.0521 103.476 52.4701 102.709 52.8951C101.922 53.3533 101.097 53.7425 100.243 54.0584C99.7906 54.2155 99.3241 54.3298 98.85 54.3998C98.3546 54.4555 97.8546 54.4555 97.3592 54.3998C95.339 54.149 93.5347 53.0065 91.5772 52.2333C90.5947 51.8203 89.5427 51.5981 88.4771 51.5784C87.377 51.6044 86.2871 51.797 85.2447 52.1497C83.1061 52.8463 81.1137 53.8494 78.975 54.3232C76.9221 54.7628 74.7852 54.5883 72.8307 53.8216C71.0891 53.1462 69.4126 52.3138 67.8219 51.3346C66.4422 50.5041 65.0112 49.7619 63.5376 49.1123C61.4205 48.1085 59.0357 47.8153 56.7385 48.2764C55.9112 48.4914 55.1218 48.8321 54.3978 49.2865L54.5301 49.175C54.6613 49.0717 54.7985 48.9763 54.9411 48.8894C55.4892 48.5516 56.086 48.3002 56.7106 48.144C57.6973 47.8921 58.7193 47.8073 59.734 47.8932C61.0782 48.0116 62.3951 48.3432 63.6351 48.8755C65.1271 49.5169 66.5747 50.2569 67.9682 51.0908C69.5515 52.0459 71.2159 52.8595 72.9422 53.522C74.8399 54.254 76.9099 54.4162 78.8984 53.9888C80.9883 53.529 82.9459 52.5189 85.1194 51.8222C86.1962 51.4524 87.3247 51.255 88.4632 51.2371C89.5757 51.2567 90.6737 51.4933 91.6956 51.9337C93.688 52.7279 95.4713 53.8494 97.3871 54.0933C97.8499 54.1478 98.3175 54.1478 98.7804 54.0933C99.2382 54.0359 99.6888 53.9308 100.125 53.7798C100.963 53.4716 101.774 53.0941 102.549 52.6512C103.315 52.2402 104.054 51.8153 104.799 51.4879C105.514 51.1644 106.255 50.9034 107.015 50.7076C109.315 50.1276 111.723 50.1276 114.023 50.7076C114.869 50.8801 115.689 51.1635 116.461 51.5506Z" fill="#263238"/>
<path d="M104.288 65.2067C104.199 65.2982 104.098 65.3778 103.989 65.4436C103.673 65.6432 103.324 65.7825 102.957 65.8546C101.602 66.082 100.21 65.836 99.0145 65.1579C98.2413 64.7818 97.4401 64.2941 96.5554 63.8622C95.6094 63.4072 94.6029 63.0905 93.5669 62.9217C91.1643 62.6144 88.7259 62.7465 86.3706 63.3119C83.8418 63.8343 81.4454 64.5031 79.2022 64.7957C77.213 65.1176 75.18 65.0466 73.2182 64.5867C71.8933 64.2802 70.6505 63.6908 69.5747 62.859C69.2813 62.6354 69.0107 62.3834 68.7667 62.1067C68.6731 62.0175 68.5912 61.9168 68.5228 61.8071C68.5228 61.8071 68.899 62.1903 69.6583 62.7476C70.7455 63.519 71.9778 64.0617 73.2808 64.3429C75.2125 64.7443 77.2026 64.7773 79.1465 64.4404C81.3618 64.1269 83.7443 63.4582 86.294 62.9287C88.6907 62.3536 91.1738 62.2307 93.6156 62.5665C94.6802 62.7483 95.7127 63.0838 96.6808 63.5627C97.5795 64.0224 98.3667 64.517 99.119 64.9002C100.262 65.5844 101.6 65.871 102.923 65.7153C103.403 65.6214 103.864 65.4496 104.288 65.2067Z" fill="#263238"/>
<path d="M104.744 75.0386C104.077 74.4756 103.295 74.0664 102.452 73.8401C101.609 73.6137 100.727 73.5758 99.8674 73.7289C98.2582 73.8752 96.4539 74.6137 94.3919 75.2824C93.3094 75.6573 92.1833 75.8915 91.0411 75.9791C89.8172 76.0467 88.5895 75.9696 87.3837 75.7492C84.9107 75.3173 82.6466 74.551 80.5637 74.0285C78.732 73.5281 76.8406 73.2797 74.9418 73.2901C73.6626 73.3065 72.3971 73.5567 71.2079 74.0285C70.3719 74.3838 69.9539 74.6764 69.933 74.6415C69.9121 74.6067 70.0306 74.5579 70.2326 74.4186C70.5238 74.2227 70.8288 74.0481 71.1452 73.8961C72.3381 73.3654 73.6229 73.072 74.9279 73.0323C76.8579 72.9895 78.784 73.2241 80.6473 73.7289C82.7372 74.2375 85.0082 74.9898 87.4464 75.4148C88.6159 75.6046 89.8032 75.6607 90.9853 75.582C92.0992 75.5058 93.1992 75.2905 94.2595 74.9411C96.3007 74.3002 98.1468 73.5478 99.8326 73.4572C101.144 73.3105 102.469 73.5528 103.643 74.1539C104.072 74.3623 104.448 74.6647 104.744 75.0386Z" fill="#263238"/>
<path d="M105.463 86.9234C105.463 86.9234 105.463 86.9583 105.387 86.9931C105.312 87.0553 105.23 87.1091 105.143 87.1533C104.814 87.3351 104.456 87.4577 104.084 87.5156C103.496 87.6054 102.897 87.5889 102.315 87.4668C101.55 87.2964 100.805 87.0466 100.092 86.7214C98.2812 85.8657 96.3286 85.3486 94.3312 85.1958C93.1569 85.1071 91.9762 85.1562 90.8132 85.3421C89.563 85.5631 88.3276 85.8609 87.1141 86.2338C85.8905 86.6211 84.6462 86.9397 83.3871 87.1882C82.2067 87.4101 81.0073 87.5151 79.8064 87.5017C77.7729 87.485 75.7543 87.1537 73.8223 86.5194C72.5247 86.0914 71.2774 85.5238 70.1022 84.8266C69.7804 84.639 69.4688 84.4344 69.1687 84.2135C68.9598 84.0672 68.8553 83.9906 68.8622 83.9767C68.8692 83.9628 69.329 84.2484 70.1719 84.6733C73.134 86.3046 76.4597 87.1623 79.8412 87.1673C81.0214 87.1654 82.1989 87.0558 83.3592 86.8399C84.6051 86.5838 85.8374 86.2652 87.0514 85.8855C88.2802 85.5062 89.5321 85.2061 90.7993 84.9868C91.9884 84.8041 93.1949 84.762 94.3939 84.8614C96.4251 85.0324 98.4058 85.5855 100.232 86.4915C100.924 86.8216 101.648 87.083 102.391 87.2718C102.95 87.402 103.527 87.4373 104.098 87.3763C104.576 87.3039 105.037 87.1508 105.463 86.9234Z" fill="#263238"/>
<path d="M47.9132 55.6816C47.948 55.6816 48.0247 55.8837 48.2755 56.1902C48.6431 56.6036 49.1074 56.9195 49.6269 57.1097C50.4075 57.3973 51.2273 57.5641 52.0582 57.6044C53.1125 57.6405 54.1504 57.8769 55.1164 58.301C56.0303 58.8578 56.7784 59.6492 57.2829 60.5929C57.6891 61.3267 58.1551 62.0257 58.6762 62.6828C59.1748 63.2614 59.8024 63.7148 60.5084 64.0064C60.2957 64.0107 60.0852 63.9629 59.8953 63.8671C59.3645 63.6299 58.8897 63.2833 58.5021 62.85C57.9343 62.2067 57.4347 61.5063 57.0113 60.7601C56.5175 59.8835 55.8107 59.1456 54.9562 58.6145C54.0292 58.2056 53.0352 57.9695 52.0234 57.9178C51.1656 57.8558 50.3235 57.6559 49.5294 57.3257C48.9753 57.1028 48.4933 56.7316 48.1361 56.2529C48.0152 56.0841 47.9385 55.8877 47.9132 55.6816Z" fill="#263238"/>
<path d="M56.481 69.7467C56.481 69.7467 56.3556 69.9348 56.0282 70.1577C55.5513 70.4632 55.0144 70.6628 54.4538 70.7429C53.628 70.8602 52.7878 70.8271 51.9738 70.6454C50.9981 70.4019 50.0375 70.1018 49.0967 69.7467C48.177 69.3975 47.2135 69.1772 46.2335 69.0919C45.4411 69.0468 44.6491 69.1875 43.9207 69.5029C43.2581 69.8035 42.695 70.2868 42.2975 70.8962C42.3318 70.6911 42.4155 70.4974 42.5414 70.3319C42.8608 69.8625 43.298 69.4853 43.8092 69.2382C44.5656 68.8637 45.4043 68.6863 46.2474 68.7227C47.2638 68.7867 48.2645 69.0052 49.2151 69.3705C50.2252 69.7189 51.1657 70.0672 52.0435 70.2831C52.8201 70.4726 53.623 70.5315 54.419 70.4573C55.1485 70.3675 55.851 70.1254 56.481 69.7467Z" fill="#263238"/>
<path d="M59.265 77.9801C59.265 78.0149 59.0769 77.9313 58.7565 77.8965C58.2976 77.8687 57.841 77.9804 57.4468 78.2169C56.8718 78.5557 56.3923 79.0352 56.0536 79.6102C55.6356 80.272 55.3082 81.0871 54.7996 81.8812C54.3214 82.6498 53.6186 83.2529 52.7863 83.6089C52.1139 83.8942 51.3833 84.016 50.6546 83.9642C50.1717 83.9366 49.6986 83.816 49.2614 83.6089C49.0918 83.547 48.9374 83.4496 48.8085 83.3233C49.4097 83.5394 50.0381 83.6707 50.6755 83.7134C51.3618 83.7241 52.0419 83.5838 52.6679 83.3024C53.4295 82.9574 54.0701 82.392 54.507 81.6792C54.9947 80.9268 55.336 80.1118 55.7888 79.436C56.1705 78.8073 56.7208 78.2981 57.3772 77.9661C57.8207 77.7293 58.331 77.6483 58.8262 77.7362C58.9921 77.7756 59.144 77.8599 59.265 77.9801Z" fill="#263238"/>
<path d="M64.2033 86.217C64.1391 86.7733 63.9638 87.3111 63.6878 87.7983C63.0833 89.0127 62.2091 90.0727 61.1321 90.8974C60.0551 91.722 58.8038 92.2895 57.4738 92.5563C56.9296 92.6929 56.3639 92.7213 55.8088 92.6399C55.8088 92.5772 56.4428 92.5563 57.418 92.3055C58.681 91.981 59.8657 91.4053 60.9012 90.6127C61.9409 89.8158 62.8102 88.8185 63.4579 87.6799C63.9525 86.8021 64.1406 86.1961 64.2033 86.217Z" fill="#263238"/>
<path d="M121.742 57.4708C121.762 57.6786 121.718 57.8875 121.616 58.0699C121.365 58.5803 120.961 58.9993 120.46 59.2681C119.722 59.6692 118.888 59.8573 118.05 59.8115C117.116 59.8115 116.12 59.6165 115.089 59.6165C113.314 59.633 111.585 60.1787 110.122 61.1839C108.993 61.9572 108.471 62.6468 108.415 62.5772C108.503 62.3941 108.621 62.2269 108.763 62.0825C109.123 61.6636 109.527 61.2851 109.969 60.954C111.447 59.847 113.242 59.2438 115.089 59.2333C116.169 59.2333 117.179 59.4353 118.057 59.4562C118.841 59.5147 119.626 59.3657 120.335 59.0243C120.811 58.7953 121.211 58.4321 121.484 57.9794C121.672 57.7007 121.714 57.4708 121.742 57.4708Z" fill="#263238"/>
<path d="M127.215 70.4157C127.043 70.3046 126.864 70.2045 126.679 70.1161C126.165 69.9204 125.599 69.9081 125.077 70.0813C124.299 70.3817 123.559 70.7746 122.875 71.2517C121.981 71.7982 121.024 72.2355 120.026 72.5544C119.009 72.8784 117.929 72.9525 116.877 72.7703C116.018 72.6096 115.214 72.2305 114.544 71.6696C114.091 71.2952 113.735 70.8173 113.506 70.2764C113.446 70.1297 113.399 69.9782 113.366 69.8236C113.354 69.7685 113.354 69.7114 113.366 69.6564C113.667 70.3604 114.133 70.9816 114.725 71.4676C115.377 71.9705 116.142 72.3054 116.954 72.4429C117.953 72.5958 118.973 72.5147 119.935 72.206C120.906 71.8939 121.84 71.4781 122.722 70.966C123.436 70.4892 124.209 70.1075 125.021 69.8305C125.598 69.6657 126.216 69.7203 126.756 69.9838C127.111 70.1928 127.215 70.4087 127.215 70.4157Z" fill="#263238"/>
<path d="M117.798 89.0442C117.82 88.4152 117.728 87.7875 117.527 87.1911C117.287 86.5618 116.886 86.0068 116.363 85.5819C115.684 85.1061 114.896 84.8112 114.071 84.725C113.628 84.6502 113.191 84.5455 112.762 84.4116C112.354 84.2746 111.969 84.0773 111.619 83.8264C111.033 83.4032 110.555 82.8469 110.226 82.2032C110.008 81.766 109.867 81.2948 109.808 80.81C109.77 80.6378 109.77 80.4596 109.808 80.2875C109.94 80.905 110.153 81.5024 110.442 82.0639C110.777 82.6529 111.241 83.1579 111.8 83.5408C112.505 83.9827 113.3 84.2612 114.127 84.3558C115.008 84.4504 115.848 84.78 116.558 85.3102C117.117 85.7774 117.533 86.3933 117.756 87.0866C117.911 87.5482 117.966 88.0374 117.917 88.5217C117.921 88.703 117.88 88.8824 117.798 89.0442Z" fill="#263238"/>
<path d="M59.7676 55.0326C59.67 55.0326 59.5098 54.6076 59.4053 54.0364C59.3008 53.4651 59.3078 52.9984 59.4053 52.9845C59.5028 52.9705 59.6631 53.4094 59.7676 53.9737C59.872 54.5379 59.8651 55.0117 59.7676 55.0326Z" fill="white"/>
<path d="M66.3403 45.4666C66.3403 45.5641 65.8457 45.7522 65.1909 45.8776C64.5361 46.003 63.9857 46.0309 63.9648 45.9334C63.9439 45.8358 64.4664 45.6547 65.1212 45.5223C65.7761 45.39 66.3194 45.3691 66.3403 45.4666Z" fill="white"/>
<path d="M81.2348 48.4831C81.1652 48.5598 80.7263 48.2811 80.2456 47.8631C79.7649 47.4452 79.4375 47.0411 79.5072 46.9645C79.5768 46.8878 80.0087 47.1735 80.4894 47.5914C80.9701 48.0094 81.2348 48.4135 81.2348 48.4831Z" fill="white"/>
<path d="M98.5409 47.5457C98.6175 47.6153 98.1926 48.2075 97.6004 48.8693C97.0083 49.5311 96.458 50.0117 96.3813 49.9421C96.3047 49.8724 96.7296 49.2872 97.3287 48.6254C97.9279 47.9636 98.4712 47.483 98.5409 47.5457Z" fill="white"/>
<path d="M109.55 48.2283C109.495 48.3119 108.937 48.0123 108.303 47.5665C107.669 47.1206 107.21 46.6957 107.272 46.6121C107.335 46.5285 107.885 46.8281 108.512 47.3087C109.139 47.7894 109.606 48.1447 109.55 48.2283Z" fill="white"/>
<path d="M75.2552 69.8513C74.6793 69.826 74.128 69.6104 73.6878 69.2383C72.9075 68.7088 72.4756 68.0609 72.5522 67.9982C72.6289 67.9355 73.1583 68.4371 73.8968 68.9387C74.6352 69.4403 75.29 69.7468 75.2552 69.8513Z" fill="white"/>
<path d="M87.0059 68.9056C87.0756 68.9753 86.6088 69.5535 85.961 70.1874C85.3131 70.8214 84.7349 71.2881 84.6652 71.2185C84.5956 71.1488 85.0623 70.5706 85.7102 69.9297C86.3581 69.2888 86.9363 68.836 87.0059 68.9056Z" fill="white"/>
<path d="M95.3873 70.9006C94.8447 70.776 94.3344 70.5386 93.8895 70.204C93.1093 69.7233 92.4962 69.2705 92.5798 69.1799C93.1224 69.3046 93.6327 69.5419 94.0776 69.8766C94.8578 70.3572 95.443 70.8101 95.3873 70.9006Z" fill="white"/>
<path d="M103.189 68.7181C103.258 68.7947 103.015 69.1012 102.659 69.4147C102.304 69.7282 101.963 69.8954 101.893 69.8188C101.823 69.7422 102.067 69.4356 102.429 69.1221C102.792 68.8087 103.126 68.6206 103.189 68.7181Z" fill="white"/>
<path d="M99.3467 58.4317C99.2561 58.4317 99.3815 57.7838 99.7786 57.1289C100.176 56.4741 100.656 56.0631 100.726 56.1258C100.796 56.1885 100.461 56.6901 100.092 57.3101C99.7229 57.9301 99.4651 58.4665 99.3467 58.4317Z" fill="white"/>
<path d="M90.3835 56.5154C90.3138 56.5921 89.9167 56.3343 89.4987 55.9442C89.0807 55.5541 88.8021 55.1848 88.8648 55.1082C88.9275 55.0316 89.3246 55.2893 89.7495 55.6795C90.1745 56.0696 90.4462 56.4388 90.3835 56.5154Z" fill="white"/>
<path d="M77.754 58.7979C77.8236 58.8676 77.545 59.2438 77.127 59.6339C76.709 60.024 76.3119 60.2818 76.2423 60.2051C76.1726 60.1285 76.4582 59.7593 76.8762 59.3692C77.2942 58.979 77.6704 58.7213 77.754 58.7979Z" fill="white"/>
<path d="M111.842 56.7763C111.786 56.8599 111.355 56.6648 110.874 56.3305C110.393 55.9961 110.059 55.6686 110.115 55.585C110.17 55.5015 110.602 55.7035 111.083 56.0309C111.564 56.3583 111.891 56.6857 111.842 56.7763Z" fill="white"/>
<path d="M116.762 64.7004C116.759 65.2246 116.637 65.7413 116.406 66.2121C116.121 67.0132 115.807 67.6053 115.71 67.6053C115.716 67.0815 115.837 66.5655 116.065 66.0936C116.33 65.2855 116.636 64.6655 116.762 64.7004Z" fill="white"/>
<path d="M114.676 79.4052C114.585 79.4401 114.286 78.9176 114.021 78.2279C113.756 77.5383 113.61 76.9531 113.7 76.9183C113.791 76.8834 114.091 77.4059 114.355 78.0956C114.62 78.7853 114.787 79.3704 114.676 79.4052Z" fill="white"/>
<path d="M110.143 89.5204C110.038 89.5204 110.031 88.9561 109.968 88.2804C109.906 87.6046 109.822 87.0613 109.92 87.0334C110.017 87.0055 110.268 87.535 110.331 88.2525C110.393 88.97 110.233 89.5204 110.143 89.5204Z" fill="white"/>
<path d="M99.7698 79.1522C99.8325 79.2218 99.4703 79.6607 98.9478 80.1275C98.4253 80.5942 97.9586 80.9147 97.8889 80.8241C97.8192 80.7335 98.1885 80.3086 98.7109 79.8418C99.2334 79.3751 99.7001 79.0686 99.7698 79.1522Z" fill="white"/>
<path d="M92.3804 81.2992C92.3037 81.3619 91.8509 80.8743 91.3703 80.2125C90.8896 79.5507 90.5761 78.9725 90.6736 78.9098C90.7712 78.8471 91.2031 79.3417 91.6837 80.0035C92.1644 80.6653 92.4431 81.2435 92.3804 81.2992Z" fill="white"/>
<path d="M82.1093 79.4716C82.1859 79.5413 81.8167 80.0638 81.2803 80.635C80.7439 81.2063 80.2632 81.6243 80.1866 81.5546C80.1099 81.4849 80.4861 80.9624 81.0155 80.3912C81.545 79.82 82.0396 79.409 82.1093 79.4716Z" fill="white"/>
<path d="M74.6328 81.3106C74.5492 81.3664 74.2149 80.9971 73.8805 80.4956C73.5461 79.994 73.351 79.5272 73.4346 79.4715C73.5182 79.4158 73.8596 79.785 74.187 80.2935C74.5144 80.8021 74.7164 81.2549 74.6328 81.3106Z" fill="white"/>
<path d="M74.4703 92.6382C74.4007 92.7078 74.0524 92.4779 73.6831 92.1296C73.3139 91.7813 73.0771 91.433 73.1467 91.3633C73.2164 91.2937 73.5717 91.5166 73.9339 91.8649C74.2962 92.2132 74.54 92.5615 74.4703 92.6382Z" fill="white"/>
<path d="M82.6643 91.4805C82.7409 91.5501 82.5111 91.9193 82.1488 92.3094C81.7866 92.6996 81.4522 92.9573 81.3686 92.8946C81.285 92.8319 81.5288 92.4557 81.8841 92.0656C82.2394 91.6755 82.6295 91.4178 82.6643 91.4805Z" fill="white"/>
<path d="M93.0763 93.614C92.9927 93.6767 92.4145 93.0498 91.7806 92.2208C91.344 91.7539 91.0011 91.2076 90.7705 90.6115C90.8471 90.5488 91.4253 91.1688 92.0662 92.0048C92.4972 92.4759 92.8394 93.0211 93.0763 93.614Z" fill="white"/>
<path d="M101.358 91.4351C101.427 91.5048 100.947 92.09 100.278 92.7309C99.6092 93.3718 99.0101 93.8455 98.9404 93.7758C98.8707 93.7061 99.3584 93.121 100.027 92.4731C100.696 91.8252 101.288 91.3585 101.358 91.4351Z" fill="white"/>
<path d="M56.1542 88.0522C56.0567 88.0522 56.0219 87.4322 56.0846 86.6589C56.1473 85.8856 56.2727 85.3144 56.3702 85.3214C56.4677 85.3283 56.5026 85.9414 56.4468 86.7146C56.3911 87.4879 56.2309 88.0591 56.1542 88.0522Z" fill="white"/>
<path d="M60.5677 85.124C60.526 85.2145 60.0592 85.124 59.5158 84.8593C58.9725 84.5945 58.5754 84.3507 58.6172 84.2601C58.659 84.1696 59.1257 84.2601 59.6621 84.5249C60.1985 84.7896 60.6095 85.0334 60.5677 85.124Z" fill="white"/>
<path d="M49.8395 77.3532C49.8395 77.4507 49.2892 77.4089 48.6622 77.2556C48.0352 77.1024 47.5406 76.9073 47.5615 76.8098C47.5824 76.7123 48.1119 76.7541 48.7458 76.9073C49.3797 77.0606 49.8883 77.2556 49.8395 77.3532Z" fill="white"/>
<path d="M54.1629 75.5859C54.2291 75.0576 54.4124 74.5506 54.6993 74.1021C55.0894 73.3218 55.4725 72.7088 55.5631 72.7715C55.4965 73.3019 55.3133 73.811 55.0267 74.2623C54.6366 75.0565 54.2534 75.6556 54.1629 75.5859Z" fill="white"/>
<path d="M46.5374 61.4481C46.6349 61.4133 46.9415 62.0542 47.3943 62.7787C47.8471 63.5032 48.272 64.0675 48.2024 64.1371C48.1327 64.2068 47.5615 63.7401 47.0878 62.9668C46.614 62.1935 46.4399 61.483 46.5374 61.4481Z" fill="white"/>
<path d="M52.7369 64.24C52.7369 64.3445 52.4444 64.4768 52.11 64.7067C51.7756 64.9366 51.5318 65.1734 51.4482 65.1177C51.3646 65.062 51.4969 64.6788 51.9079 64.4211C52.319 64.1633 52.73 64.1424 52.7369 64.24Z" fill="white"/>
<path d="M74.4621 40.8323C74.3715 40.8811 73.9883 40.3377 73.5982 39.6202C73.31 39.2043 73.1217 38.7275 73.0479 38.2269C73.1384 38.1782 73.5286 38.7215 73.9117 39.4391C74.202 39.8539 74.3905 40.3312 74.4621 40.8323Z" fill="white"/>
<path d="M83.6525 38.5477C83.7082 38.6313 83.1509 39.1119 82.4055 39.6205C81.9795 39.9771 81.4835 40.2405 80.9495 40.3937C80.8938 40.3102 81.4511 39.8295 82.2035 39.3209C82.9558 38.8124 83.5967 38.4641 83.6525 38.5477Z" fill="white"/>
<path d="M97.0868 40.1505C95.9581 39.7572 94.9237 39.1333 94.0494 38.3184C94.6331 38.4559 95.1814 38.7146 95.6586 39.0777C96.2004 39.3382 96.6857 39.7027 97.0868 40.1505Z" fill="white"/>
<path d="M103.109 37.9655C103.206 37.9655 103.192 38.5715 103.109 39.2891C103.025 40.0066 102.809 40.5778 102.712 40.5569C102.614 40.536 102.628 39.9509 102.747 39.2333C102.865 38.5158 103.011 37.9655 103.109 37.9655Z" fill="white"/>
<path d="M65.5717 91.8396C67.2973 93.064 68.9468 94.3924 70.5108 95.8174C71.9947 97.1619 69.1176 105.187 67.4944 103.78C65.8712 102.373 61.4894 96.8136 61.4894 96.8136L65.5717 91.8396Z" fill="#B78876"/>
<path d="M67.7298 103.919C67.7298 103.919 63.1738 103.418 63.2992 102.477C63.5036 101.702 63.8879 100.986 64.4208 100.387L67.7298 103.919Z" fill="#A36957"/>
</svg>
