<svg width="14" height="14" viewBox="0 0 14 14" fill="none" xmlns="http://www.w3.org/2000/svg">
<path d="M12.3987 5.14679C11.192 5.14679 10.6987 4.29345 11.2987 3.24679C11.6454 2.64012 11.4387 1.86679 10.832 1.52012L9.6787 0.86012C9.15203 0.546787 8.47203 0.733454 8.1587 1.26012L8.08536 1.38679C7.48536 2.43345 6.4987 2.43345 5.89203 1.38679L5.8187 1.26012C5.5187 0.733454 4.8387 0.546787 4.31203 0.86012L3.1587 1.52012C2.55203 1.86679 2.34536 2.64679 2.69203 3.25345C3.2987 4.29345 2.80536 5.14679 1.5987 5.14679C0.905365 5.14679 0.332031 5.71345 0.332031 6.41345V7.58679C0.332031 8.28012 0.898698 8.85345 1.5987 8.85345C2.80536 8.85345 3.2987 9.70679 2.69203 10.7535C2.34536 11.3601 2.55203 12.1335 3.1587 12.4801L4.31203 13.1401C4.8387 13.4535 5.5187 13.2668 5.83203 12.7401L5.90536 12.6135C6.50536 11.5668 7.49203 11.5668 8.0987 12.6135L8.17203 12.7401C8.48536 13.2668 9.16537 13.4535 9.69203 13.1401L10.8454 12.4801C11.452 12.1335 11.6587 11.3535 11.312 10.7535C10.7054 9.70679 11.1987 8.85345 12.4054 8.85345C13.0987 8.85345 13.672 8.28679 13.672 7.58679V6.41345C13.6654 5.72012 13.0987 5.14679 12.3987 5.14679ZM6.9987 9.16679C5.80536 9.16679 4.83203 8.19345 4.83203 7.00012C4.83203 5.80679 5.80536 4.83345 6.9987 4.83345C8.19203 4.83345 9.16536 5.80679 9.16536 7.00012C9.16536 8.19345 8.19203 9.16679 6.9987 9.16679Z" fill="white"/>
</svg>
