<svg width="20" height="20" viewBox="0 0 20 20" fill="none" xmlns="http://www.w3.org/2000/svg">
<path d="M1.66666 9.16658V7.49992C1.66666 4.58325 3.33332 3.33325 5.83332 3.33325H14.1667C16.6667 3.33325 18.3333 4.58325 18.3333 7.49992V12.4999C18.3333 15.4166 16.6667 16.6666 14.1667 16.6666H9.99999" stroke="black" stroke-width="1.5" stroke-linecap="round" stroke-linejoin="round"/>
<path fill-rule="evenodd" clip-rule="evenodd" d="M9.99999 12.0834C8.8494 12.0834 7.91666 11.1507 7.91666 10.0001C7.91666 8.84949 8.8494 7.91675 9.99999 7.91675C11.1506 7.91675 12.0833 8.84949 12.0833 10.0001C12.0833 11.1507 11.1506 12.0834 9.99999 12.0834Z" stroke="black" stroke-width="1.5" stroke-linecap="round" stroke-linejoin="round"/>
<path d="M15.4167 7.91675V12.0834" stroke="black" stroke-width="1.5" stroke-linecap="round" stroke-linejoin="round"/>
<path d="M1.66666 12.9167H6.11668C6.65001 12.9167 7.08332 13.3501 7.08332 13.8834V14.9501" stroke="black" stroke-width="1.5" stroke-linecap="round" stroke-linejoin="round"/>
<path d="M2.6833 11.8999L1.66666 12.9165L2.6833 13.9332" stroke="black" stroke-width="1.5" stroke-linecap="round" stroke-linejoin="round"/>
<path d="M7.08332 17.3168H2.6333C2.09997 17.3168 1.66666 16.8834 1.66666 16.3501V15.2834" stroke="black" stroke-width="1.5" stroke-linecap="round" stroke-linejoin="round"/>
<path d="M6.06772 18.3336L7.08436 17.317L6.06772 16.3003" stroke="black" stroke-width="1.5" stroke-linecap="round" stroke-linejoin="round"/>
</svg>
