<svg width="120" height="120" viewBox="0 0 120 120" fill="none" xmlns="http://www.w3.org/2000/svg">
<path d="M10 60C10 53.0833 11.3125 46.5833 13.9375 40.5C16.5625 34.4167 20.125 29.125 24.625 24.625C29.125 20.125 34.4167 16.5625 40.5 13.9375C46.5833 11.3125 53.0833 10 60 10C71.1392 10 80.9933 13.1946 89.5625 19.5837C98.1317 25.9721 104.069 34.1804 107.375 44.2088C107.792 45.4029 107.743 46.5554 107.229 47.6663C106.715 48.7779 105.865 49.5079 104.676 49.8563C103.559 50.1463 102.521 49.9721 101.562 49.3338C100.604 48.6946 99.9304 47.8196 99.5413 46.7088C97.6529 40.9304 94.6392 35.8054 90.5 31.3337C86.3608 26.8612 81.3887 23.4446 75.5837 21.0837V23.25C75.5837 26.1108 74.5904 28.59 72.6038 30.6875C70.6179 32.785 68.1946 33.8337 65.3337 33.8337H54.75V44.4163C54.75 45.8096 54.2154 46.9775 53.1463 47.92C52.0763 48.8625 50.8329 49.3338 49.4162 49.3338H39.1662V60H47.5C48.6808 60 49.6704 60.3992 50.4688 61.1975C51.2671 61.9967 51.6662 62.9863 51.6662 64.1663V75.4163H44.4162L19.4163 50.4163C19.0554 52.0279 18.7846 53.63 18.6038 55.2225C18.4237 56.815 18.3337 58.4075 18.3337 60C18.3337 70.5008 21.7433 79.6679 28.5625 87.5013C35.3817 95.3338 43.9858 99.9167 54.375 101.25C55.4683 101.399 56.3733 101.902 57.09 102.758C57.8075 103.613 58.1662 104.625 58.1662 105.791C58.1662 106.958 57.7529 107.923 56.9263 108.688C56.0988 109.452 55.1096 109.75 53.9588 109.584C41.4863 108.055 31.0417 102.625 22.625 93.2913C14.2083 83.9579 10 72.8608 10 60ZM103.084 103.916L89.5 90.4163C87.75 91.5829 85.8612 92.4996 83.8337 93.1663C81.8054 93.8329 79.7062 94.1663 77.5362 94.1663C71.5079 94.1663 66.3838 92.0588 62.1637 87.8438C57.9437 83.6296 55.8338 78.5117 55.8338 72.49C55.8338 66.4692 57.9412 61.3546 62.1562 57.1463C66.3704 52.9379 71.4883 50.8338 77.51 50.8338C83.5308 50.8338 88.6454 52.9438 92.8538 57.1638C97.0621 61.3838 99.1663 66.5079 99.1663 72.5363C99.1663 74.7063 98.8192 76.8054 98.125 78.8338C97.4308 80.8613 96.5279 82.7779 95.4163 84.5838L108.916 98.0838C109.722 98.8888 110.139 99.8608 110.166 101C110.195 102.139 109.806 103.111 109 103.916C108.194 104.722 107.208 105.125 106.041 105.125C104.875 105.125 103.889 104.722 103.084 103.916ZM77.4887 85.8338C81.2188 85.8338 84.3754 84.5458 86.9587 81.97C89.5421 79.3942 90.8337 76.2413 90.8337 72.5113C90.8337 68.7813 89.5458 65.6246 86.97 63.0413C84.3942 60.4579 81.2413 59.1663 77.5113 59.1663C73.7813 59.1663 70.6246 60.4542 68.0413 63.03C65.4579 65.6058 64.1663 68.7588 64.1663 72.4888C64.1663 76.2188 65.4542 79.3754 68.03 81.9588C70.6058 84.5421 73.7587 85.8338 77.4887 85.8338Z" fill="#D9D9D9"/>
</svg>
