<svg width="24" height="24" viewBox="0 0 24 24" fill="none" xmlns="http://www.w3.org/2000/svg">
<path d="M12 11.4002L8.10005 15.3002C7.91672 15.4835 7.68338 15.5752 7.40005 15.5752C7.11672 15.5752 6.88338 15.4835 6.70005 15.3002C6.51672 15.1169 6.42505 14.8835 6.42505 14.6002C6.42505 14.3169 6.51672 14.0835 6.70005 13.9002L11.3 9.3002C11.4 9.2002 11.5084 9.12936 11.625 9.0877C11.7417 9.04603 11.8667 9.0252 12 9.0252C12.1334 9.0252 12.2584 9.04603 12.375 9.0877C12.4917 9.12936 12.6 9.2002 12.7 9.3002L17.3 13.9002C17.4834 14.0835 17.575 14.3169 17.575 14.6002C17.575 14.8835 17.4834 15.1169 17.3 15.3002C17.1167 15.4835 16.8834 15.5752 16.6 15.5752C16.3167 15.5752 16.0834 15.4835 15.9 15.3002L12 11.4002Z" fill="white"/>
</svg>
