<svg width="48" height="48" viewBox="0 0 48 48" fill="none" xmlns="http://www.w3.org/2000/svg">
<path d="M3.97972 41.8434C3.17972 40.6434 2.71972 39.2034 2.71972 37.6634C2.71972 33.4434 6.13972 30.0234 10.3597 30.0234C14.5797 30.0234 17.9997 33.4234 17.9997 37.6434C17.9997 41.8634 14.5797 45.2834 10.3597 45.2834C8.81972 45.2834 7.37972 44.8234 6.17972 44.0234L4.65972 45.5434C4.33972 45.8434 3.93972 46.0034 3.53972 46.0034C3.13972 46.0034 2.73972 45.8434 2.43972 45.5434C1.83972 44.9434 1.83972 43.9634 2.45972 43.3634L3.97972 41.8434Z" fill="white"/>
<path d="M38 25C35.8 25 34 26.8 34 29C34 31.2 35.8 33 38 33H43C43.56 33 44 32.56 44 32V26C44 25.44 43.56 25 43 25H38Z" fill="white"/>
<path d="M32.3185 12.2803L15.7585 12.2603C14.7985 12.2603 14.3185 11.1003 14.9985 10.4203L18.4985 6.90031C21.4585 3.96031 26.2385 3.96031 29.1985 6.90031L32.9785 10.7203C32.9985 10.7403 33.0385 10.7803 33.0585 10.8003C33.6585 11.3803 33.1585 12.2803 32.3185 12.2803Z" fill="white"/>
<path d="M34.1988 44H21.1988C20.4188 44 19.9188 43.14 20.2388 42.42C20.8388 41.02 21.2188 39.44 21.2188 38C21.2188 31.94 16.2788 27 10.2188 27C8.69875 27 7.21875 27.32 5.85875 27.92C5.11875 28.24 4.21875 27.74 4.21875 26.94V24C4.21875 18.56 7.49875 14.76 12.5988 14.12C13.0988 14.04 13.6387 14 14.1987 14H34.1988C34.7188 14 35.2188 14.02 35.6988 14.1C39.7388 14.56 42.6587 17.02 43.7388 20.68C43.9388 21.34 43.4587 22 42.7787 22H38.1987C33.8587 22 30.4188 25.96 31.3588 30.46C32.0188 33.74 35.0588 36 38.3988 36H42.7787C43.4787 36 43.9388 36.68 43.7388 37.32C42.5187 41.44 38.9988 44 34.1988 44Z" fill="white"/>
</svg>
