<svg width="20" height="20" viewBox="0 0 20 20" fill="none" xmlns="http://www.w3.org/2000/svg">
<path d="M2.02832 18.0428L3.15082 13.9449C2.45832 12.7458 2.09415 11.3849 2.09457 9.99117C2.09665 5.63075 5.64499 2.08325 10.0058 2.08325C12.1221 2.08409 14.1079 2.90784 15.6017 4.40242C17.095 5.89742 17.9175 7.88409 17.9167 9.99742C17.915 14.3578 14.3658 17.9058 10.0058 17.9058H10.0025C8.67874 17.9053 7.37749 17.5733 6.22207 16.9428L2.02832 18.0428Z" fill="white"/>
<path d="M2.02822 18.2513C1.97322 18.2513 1.91989 18.2296 1.8803 18.1896C1.82822 18.1367 1.8078 18.0596 1.82739 17.9883L2.92697 13.9733C2.2453 12.7625 1.88572 11.3875 1.88655 9.99167C1.88822 5.51583 5.5303 1.875 10.0057 1.875C12.1766 1.87583 14.2161 2.72125 15.7491 4.25542C17.282 5.79 18.1257 7.82917 18.1249 9.9975C18.1232 14.4729 14.4807 18.1142 10.0057 18.1142C8.67697 18.1138 7.36239 17.7858 6.19572 17.1654L2.08114 18.2442C2.06364 18.2492 2.04614 18.2513 2.02822 18.2513Z" fill="white"/>
<path d="M10.0059 2.08341C12.1222 2.08425 14.108 2.908 15.6017 4.40258C17.0951 5.89758 17.9176 7.88425 17.9167 9.99758C17.9151 14.358 14.3659 17.9059 10.0059 17.9059H10.0026C8.67883 17.9055 7.37758 17.5734 6.22216 16.943L2.02841 18.043L3.15091 13.9451C2.45841 12.7459 2.09424 11.3851 2.09466 9.99133C2.09674 5.63091 5.64508 2.08341 10.0059 2.08341ZM10.0059 1.66675C5.41591 1.66675 1.68008 5.40091 1.67799 9.99133C1.67758 11.3942 2.03174 12.7767 2.70341 14.0005L1.62633 17.9334C1.58716 18.0772 1.62716 18.2305 1.73216 18.3363C1.81133 18.4163 1.91841 18.4601 2.02841 18.4601C2.06383 18.4601 2.09924 18.4555 2.13424 18.4463L6.17049 17.388C7.34883 17.9997 8.66966 18.3226 10.0026 18.323C14.5959 18.323 18.3317 14.5884 18.3338 9.998C18.3347 7.77341 17.4692 5.68175 15.8972 4.10841C14.3242 2.53466 12.2322 1.66758 10.0059 1.66675Z" fill="#CFD8DC"/>
<path d="M14.6566 5.34669C13.4149 4.10419 11.7645 3.41961 10.0078 3.41919C6.38118 3.41919 3.4316 6.36752 3.42993 9.99169C3.42952 11.2338 3.77702 12.4429 4.43535 13.49L4.59202 13.7388L3.92743 16.1642L6.41618 15.5117L6.6566 15.6542C7.66576 16.2534 8.82327 16.57 10.0033 16.5704H10.0058C13.6299 16.5704 16.5795 13.6217 16.5808 9.99711C16.5812 8.24086 15.8983 6.58919 14.6566 5.34669Z" fill="#40C351"/>
<path fill-rule="evenodd" clip-rule="evenodd" d="M8.02827 6.68537C7.88035 6.3562 7.72452 6.34954 7.58327 6.3437C7.46785 6.3387 7.33619 6.33912 7.20452 6.33912C7.07285 6.33912 6.85868 6.3887 6.67743 6.58662C6.49618 6.78454 5.98535 7.26245 5.98535 8.23495C5.98535 9.20745 6.69368 10.1475 6.79243 10.2791C6.89118 10.4108 8.15993 12.4704 10.1691 13.2629C11.8387 13.9212 12.1787 13.7904 12.5412 13.7575C12.9037 13.7245 13.7108 13.2795 13.8754 12.8179C14.0399 12.3562 14.0399 11.9608 13.9908 11.8783C13.9412 11.7958 13.8095 11.7466 13.612 11.6475C13.4145 11.5483 12.4424 11.0704 12.2612 11.0045C12.0799 10.9387 11.9483 10.9058 11.8162 11.1037C11.6845 11.3012 11.3058 11.7466 11.1904 11.8783C11.0749 12.0104 10.9595 12.027 10.762 11.9279C10.5645 11.8287 9.92785 11.6204 9.17243 10.947C8.58493 10.4233 8.18827 9.7762 8.07285 9.57829C7.95743 9.38079 8.06035 9.2737 8.15952 9.17495C8.24827 9.0862 8.35702 8.94412 8.45618 8.8287C8.55493 8.71329 8.58785 8.63079 8.65368 8.49912C8.71952 8.36704 8.6866 8.25162 8.63702 8.15287C8.58827 8.0537 8.2041 7.0762 8.02827 6.68537Z" fill="white"/>
</svg>
